<?xml version="1.0" encoding="utf-8"?>
<!-- Generator: Adobe Illustrator 16.0.0, SVG Export Plug-In . SVG Version: 6.00 Build 0)  -->
<!DOCTYPE svg PUBLIC "-//W3C//DTD SVG 1.1//EN" "http://www.w3.org/Graphics/SVG/1.1/DTD/svg11.dtd">
<svg version="1.1" id="Layer_1" xmlns="http://www.w3.org/2000/svg" xmlns:xlink="http://www.w3.org/1999/xlink" x="0px" y="0px"
	 width="57.58px" height="52.2px" viewBox="0 0 57.58 52.2" enable-background="new 0 0 57.58 52.2" xml:space="preserve">
<g>
	<g>
		<g>
			<g>
				<path fill="#E8E8E8" d="M28.853,52.2c-6.405,0-12.71-1.466-17.513-4.238c-5.093-2.934-7.893-6.964-7.88-11.348l0.005-1.281
					l-2.464-1.421C0.382,33.556,0,32.895,0,32.18v-1.5c0-0.712,0.379-1.37,0.994-1.729l2.471-1.438l0.012-2.253
					c-0.795-0.92-1.602-2.153-1.201-3.678c0.203-0.78,0.685-1.381,1.201-1.84c0.059-1.115,0.314-2.228,0.765-3.316l0.198-0.452
					c0.172-0.396,0.36-0.826,0.531-1.168c0.153-0.306,0.692-1.366,1.215-2.199c0.26-0.426,0.644-1.016,0.948-1.441
					c0.289-0.394,1-1.348,1.65-2.092c0.407-0.459,0.828-0.925,1.207-1.28c0.514-0.498,1.404-1.323,2.152-1.943
					c0.394-0.314,0.926-0.727,1.387-1.03c0.618-0.423,1.505-0.982,2.231-1.406l0.235-0.125c0.767-0.399,1.722-0.896,2.535-1.229
					c1.193-0.504,1.789-0.685,2.87-1.014c0.495-0.152,1.084-0.298,1.53-0.397c0.355-0.084,0.864-0.185,1.253-0.25
					c0.667-0.126,1.482-0.229,2.459-0.312c0.349-0.032,0.85-0.065,1.216-0.076L29.021,0c0.264,0,0.603,0.012,0.907,0.022
					l0.248,0.009c0.797,0.032,1.795,0.165,2.331,0.235c0.572,0.076,1.651,0.259,2.589,0.493c0.99,0.249,1.628,0.441,2.627,0.792
					c0.426,0.153,0.968,0.373,1.399,0.549c0.021,0.008,0.134,0.055,0.154,0.064c0.203,0.09,0.433,0.199,0.663,0.309
					c0.2,0.096,0.4,0.19,0.577,0.27v0.001c0.06,0.026,0.117,0.057,0.174,0.089c0.569,0.277,1.23,0.639,1.71,0.935
					c0.754,0.466,1.778,1.169,2.609,1.792c0.561,0.415,1.252,0.996,1.752,1.474c0.605,0.585,1.472,1.437,2.096,2.164
					c0.716,0.845,1.521,1.938,2.036,2.683c0.542,0.781,1.109,1.828,1.399,2.382c0.395,0.744,0.827,1.743,1.05,2.271
					c0.739,1.83,0.949,3.676,0.635,5.514c0.08,0.447,0.126,0.911,0.139,1.404c0.792,0.915,1.596,2.145,1.186,3.668
					c-0.09,0.32-0.223,0.608-0.383,0.869l1.661,0.959c0.623,0.36,1.005,1.026,1,1.745l-0.01,1.5
					c-0.005,0.708-0.383,1.361-0.995,1.717l-2.47,1.435L54.1,36.759c-0.013,4.315-2.773,8.294-7.774,11.2
					c-0.887,0.515-1.812,0.981-2.752,1.387c-0.298,0.129-0.54,0.233-0.793,0.327c-0.353,0.145-0.758,0.297-1.173,0.439
					c-0.216,0.079-0.469,0.17-0.733,0.251c-0.229,0.076-0.448,0.147-0.668,0.21c-0.237,0.078-0.544,0.166-0.861,0.254l-0.783,0.204
					C35.425,51.817,32.125,52.2,28.853,52.2z M4.695,31.425l1.773,1.022c0.622,0.358,1.004,1.022,1.001,1.74l-0.01,2.44
					c-0.008,2.885,2.079,5.681,5.878,7.868c6.31,3.644,16.058,4.709,24.256,2.653l0.728-0.189c0.216-0.061,0.47-0.131,0.723-0.213
					c0.235-0.068,0.4-0.124,0.565-0.179c0.015-0.005,0.082-0.026,0.097-0.031c0.196-0.06,0.383-0.129,0.569-0.196
					c0.382-0.131,0.717-0.258,1.052-0.394c0.24-0.091,0.421-0.17,0.602-0.248c0.854-0.369,1.638-0.764,2.388-1.199
					c3.721-2.162,5.775-4.917,5.783-7.756l0.011-2.563c0.003-0.709,0.382-1.364,0.995-1.721l1.774-1.03l-1.78-1.027
					c-0.619-0.357-1-1.018-1-1.732v-0.72c0-0.682,0.348-1.316,0.922-1.685c0.056-0.036,0.106-0.069,0.151-0.101
					c-0.177-0.21-0.392-0.439-0.512-0.568c-0.348-0.37-0.541-0.859-0.541-1.367V23.74c0-0.455-0.041-0.852-0.126-1.212
					c-0.037-0.155-0.055-0.312-0.054-0.469c-0.001-0.144,0.014-0.287,0.045-0.431c0.254-1.181,0.14-2.383-0.34-3.57
					c-0.323-0.767-0.652-1.481-0.892-1.932c-0.426-0.813-0.843-1.527-1.147-1.969c-0.581-0.838-1.285-1.767-1.792-2.364
					c-0.567-0.661-1.514-1.576-1.824-1.876c-0.37-0.354-0.937-0.829-1.369-1.15c-0.742-0.556-1.671-1.194-2.322-1.596
					c-0.379-0.234-0.957-0.549-1.413-0.769c-0.048-0.022-0.096-0.046-0.143-0.072c-0.165-0.075-0.344-0.16-0.522-0.245
					c-0.2-0.096-0.4-0.19-0.577-0.27c-0.413-0.167-0.892-0.363-1.258-0.494c-0.868-0.305-1.399-0.465-2.264-0.683
					c-0.727-0.182-1.645-0.342-2.064-0.397c-0.516-0.068-1.429-0.189-2.027-0.214l-0.246-0.008C29.527,4.011,29.242,4,29.021,4
					L27.92,4.01c-0.234,0.008-0.634,0.035-0.926,0.062c-0.855,0.072-1.538,0.157-2.104,0.265c-0.348,0.06-0.759,0.139-1.062,0.21
					c-0.376,0.085-0.846,0.199-1.191,0.306c-1.116,0.339-1.549,0.471-2.57,0.901c-0.665,0.272-1.53,0.722-2.225,1.084l-0.15,0.077
					c-0.555,0.327-1.367,0.84-1.934,1.228c-0.285,0.188-0.672,0.477-1.09,0.811c-0.517,0.428-1.28,1.118-1.918,1.735
					c-0.318,0.3-0.754,0.792-0.964,1.028c-0.372,0.426-0.904,1.101-1.414,1.797c-0.241,0.336-0.559,0.826-0.785,1.198
					c-0.354,0.563-0.767,1.34-1.04,1.885c-0.142,0.284-0.297,0.644-0.441,0.975l-0.189,0.434c-0.345,0.834-0.5,1.727-0.441,2.603
					c0.05,0.729-0.303,1.426-0.919,1.819c-0.057,0.036-0.107,0.07-0.153,0.102c0.179,0.213,0.4,0.45,0.537,0.596
					c0.35,0.373,0.543,0.866,0.54,1.378L7.46,28.463c0.077,0.775-0.305,1.53-0.984,1.926L4.695,31.425z M7.444,28.342
					c0.003,0.019,0.006,0.037,0.008,0.056C7.45,28.379,7.447,28.36,7.444,28.342z M51.526,25.873L51.526,25.873L51.526,25.873z
					 M6.049,22.817L6.049,22.817L6.049,22.817z"/>
			</g>
		</g>
		<g>
			<g>
				<path fill="#FFFFFF" d="M28.845,51.701c-6.314,0-12.525-1.442-17.255-4.173c-4.932-2.841-7.642-6.716-7.63-10.912l0.006-1.572
					l-2.715-1.564C0.786,33.212,0.5,32.716,0.5,32.18v-1.5c0-0.534,0.284-1.027,0.745-1.297l2.719-1.581l0.014-2.729
					c-0.779-0.872-1.579-1.991-1.219-3.363c0.192-0.739,0.692-1.304,1.209-1.728C4,18.851,4.246,17.723,4.703,16.616l0.194-0.443
					c0.169-0.388,0.354-0.81,0.521-1.144c0.15-0.301,0.681-1.343,1.191-2.156c0.257-0.423,0.633-1,0.932-1.417
					c0.281-0.384,0.982-1.324,1.62-2.054c0.396-0.448,0.808-0.903,1.172-1.245c0.514-0.497,1.393-1.312,2.13-1.923
					c0.378-0.302,0.897-0.704,1.343-0.997c0.605-0.415,1.502-0.98,2.208-1.393l0.214-0.113c0.758-0.395,1.701-0.885,2.494-1.21
					c1.175-0.495,1.727-0.663,2.826-0.997c0.485-0.149,1.06-0.291,1.494-0.389c0.352-0.083,0.849-0.18,1.228-0.244
					c0.658-0.125,1.457-0.227,2.416-0.307c0.345-0.031,0.832-0.063,1.19-0.074L29.021,0.5c0.258,0,0.591,0.012,0.89,0.022
					l0.249,0.009c0.771,0.03,1.754,0.161,2.282,0.231c0.561,0.074,1.615,0.253,2.533,0.482c0.973,0.245,1.6,0.434,2.583,0.779
					c0.416,0.148,0.95,0.365,1.376,0.539c0.016,0.006,0.123,0.051,0.139,0.058c0.2,0.089,0.426,0.196,0.652,0.304
					c0.204,0.098,0.408,0.194,0.588,0.275l0,0c0.049,0.022,0.096,0.047,0.142,0.073c0.56,0.272,1.212,0.629,1.684,0.92
					C42.88,4.652,43.89,5.346,44.71,5.96c0.548,0.405,1.22,0.971,1.706,1.435c0.597,0.576,1.451,1.417,2.062,2.129
					c0.703,0.829,1.519,1.94,2.004,2.642c0.526,0.759,1.082,1.785,1.367,2.329c0.387,0.729,0.813,1.712,1.032,2.233
					c0.713,1.765,0.908,3.548,0.588,5.321c0.096,0.502,0.145,1.027,0.15,1.596c0.75,0.844,1.563,1.987,1.198,3.345
					c-0.125,0.448-0.355,0.83-0.63,1.155l2.142,1.236c0.467,0.27,0.754,0.77,0.75,1.309l-0.01,1.5
					c-0.004,0.531-0.287,1.021-0.747,1.287l-2.717,1.578L53.6,36.756c-0.012,4.132-2.685,7.958-7.525,10.771
					c-0.869,0.505-1.777,0.963-2.699,1.36c-0.291,0.126-0.525,0.227-0.77,0.318c-0.357,0.146-0.754,0.295-1.16,0.434
					c-0.216,0.079-0.461,0.168-0.718,0.246c-0.232,0.077-0.445,0.147-0.658,0.208c-0.247,0.081-0.548,0.166-0.858,0.252l-0.77,0.201
					C35.34,51.323,32.078,51.701,28.845,51.701z M3.698,31.427l2.521,1.453c0.467,0.27,0.753,0.768,0.751,1.306l-0.01,2.44
					c-0.009,3.073,2.168,6.022,6.129,8.304c6.412,3.701,16.308,4.791,24.627,2.705l0.729-0.189c0.233-0.065,0.493-0.139,0.754-0.223
					c0.225-0.065,0.396-0.122,0.568-0.18c0.29-0.09,0.484-0.161,0.68-0.232c0.382-0.131,0.726-0.261,1.069-0.4
					c0.235-0.089,0.423-0.171,0.611-0.252c0.872-0.377,1.673-0.78,2.44-1.226c3.881-2.255,6.023-5.163,6.032-8.187l0.011-2.562
					c0.002-0.532,0.286-1.023,0.747-1.291l2.52-1.464l-2.527-1.46c-0.464-0.268-0.75-0.763-0.75-1.299v-0.72
					c0-0.512,0.261-0.987,0.691-1.264c0.312-0.199,0.479-0.345,0.565-0.434c-0.165-0.287-0.62-0.772-0.831-0.998
					c-0.261-0.277-0.405-0.645-0.405-1.025V23.74c0-0.494-0.046-0.928-0.14-1.326c-0.027-0.118-0.041-0.237-0.04-0.355
					c-0.001-0.107,0.011-0.217,0.033-0.324c0.275-1.281,0.153-2.581-0.364-3.863c-0.332-0.787-0.668-1.516-0.914-1.979
					c-0.434-0.829-0.861-1.562-1.179-2.019c-0.589-0.851-1.304-1.795-1.82-2.404c-0.392-0.456-1.002-1.083-1.858-1.911
					c-0.386-0.368-0.972-0.861-1.42-1.192c-0.75-0.562-1.694-1.211-2.356-1.62c-0.401-0.248-0.989-0.567-1.468-0.798
					c-0.042-0.02-0.083-0.04-0.122-0.062c-0.17-0.077-0.353-0.164-0.536-0.251c-0.204-0.098-0.408-0.194-0.588-0.275
					c-0.435-0.176-0.921-0.375-1.293-0.508c-0.888-0.312-1.43-0.475-2.311-0.696c-0.746-0.187-1.689-0.352-2.12-0.408
					C31.6,3.678,30.672,3.554,30.05,3.529l-0.248-0.009C29.539,3.511,29.247,3.5,29.021,3.5L27.92,3.51
					c-0.258,0.008-0.671,0.036-0.972,0.064c-0.868,0.072-1.567,0.16-2.15,0.27c-0.349,0.06-0.771,0.143-1.084,0.216
					c-0.382,0.086-0.866,0.204-1.224,0.313c-1.132,0.345-1.572,0.479-2.617,0.919c-0.682,0.279-1.558,0.734-2.262,1.101
					l-0.149,0.078c-0.586,0.345-1.41,0.864-1.985,1.258c-0.29,0.191-0.69,0.489-1.12,0.833c-0.532,0.441-1.307,1.142-1.953,1.767
					c-0.33,0.311-0.776,0.813-0.99,1.056c-0.384,0.438-0.926,1.127-1.443,1.833c-0.251,0.35-0.576,0.853-0.809,1.233
					c-0.36,0.573-0.782,1.366-1.061,1.922c-0.146,0.291-0.305,0.659-0.452,0.998L7.46,17.8c-0.379,0.919-0.547,1.887-0.482,2.84
					c0.036,0.547-0.228,1.069-0.689,1.364c-0.315,0.202-0.483,0.347-0.569,0.433c0.16,0.285,0.619,0.775,0.856,1.028
					c0.263,0.28,0.407,0.649,0.405,1.033L6.96,28.478c0.099,0.612-0.199,1.167-0.735,1.479L3.698,31.427z"/>
			</g>
		</g>
	</g>
	<g>
		<g>
			<g>
				<path fill="#FFB657" d="M52.113,29.822c0.068-3.522-2.226-7.061-6.881-9.748c-9.137-5.275-23.902-5.275-32.979,0
					c-4.524,2.629-6.78,6.072-6.776,9.518c0-0.011,0-0.021,0-0.033l-0.02,7.058c-0.011,3.479,2.286,6.963,6.884,9.617
					c9.137,5.275,23.902,5.275,32.979,0.001c4.509-2.621,6.767-6.051,6.776-9.485l0.02-7.058
					C52.116,29.735,52.114,29.778,52.113,29.822z"/>
			</g>
			<g>
				<path fill="#FFB657" d="M52.116,29.692l-0.02,7.057c-0.01,3.435-2.268,6.864-6.776,9.485c-9.078,5.274-23.844,5.274-32.979,0
					c-4.598-2.655-6.895-6.14-6.885-9.618l0.021-7.057c-0.01,3.479,2.286,6.963,6.884,9.617c9.137,5.275,23.902,5.275,32.979,0
					C49.85,36.557,52.106,33.127,52.116,29.692z"/>
			</g>
		</g>
		<g>
			<path fill="#FEDAAA" d="M45.232,20.074c9.137,5.274,9.185,13.828,0.107,19.103c-9.077,5.275-23.843,5.275-32.979,0
				c-9.137-5.274-9.185-13.827-0.107-19.103C21.33,14.8,36.096,14.799,45.232,20.074z"/>
		</g>
		<g>
			<path fill="#FFA834" d="M45.34,39.177c-2.15,1.25-4.621,2.203-7.26,2.86v7.053c2.632-0.657,5.095-1.609,7.24-2.855
				c4.509-2.621,6.767-6.051,6.776-9.485l0.02-7.057C52.106,33.127,49.85,36.557,45.34,39.177z"/>
		</g>
		<g>
			<g>
				<polygon fill="#FEDA44" points="28.701,15.162 2.002,30.679 1.997,32.181 28.871,47.697 55.571,32.181 55.575,30.678 				"/>
			</g>
			<g>
				<polygon fill="#FEDA44" points="55.575,30.678 55.571,32.181 28.871,47.697 28.876,46.194 				"/>
			</g>
		</g>
		<g>
			<polygon fill="#FFDE56" points="28.876,46.194 28.871,47.697 1.997,32.181 2.002,30.679 			"/>
		</g>
		<g>
			<polygon fill="#FFE577" points="55.575,30.678 28.876,46.194 2.002,30.679 28.701,15.162 			"/>
		</g>
		<g>
			<g>
				<path fill="#884D01" d="M52.113,23.836c0.068-3.522-2.227-7.061-6.881-9.748c-9.137-5.275-23.902-5.274-32.979,0.001
					c-4.524,2.629-6.78,6.071-6.776,9.518c0-0.012,0-0.022,0-0.033l-0.02,4.893c-0.011,3.479,2.286,6.963,6.884,9.618
					c9.136,5.274,23.901,5.275,32.979,0c4.509-2.621,6.767-6.051,6.776-9.485l0.02-4.893C52.116,23.749,52.114,23.793,52.113,23.836
					z"/>
			</g>
			<g>
				<path fill="#884D01" d="M52.116,23.706l-0.02,4.893c-0.01,3.435-2.268,6.864-6.776,9.485
					c-9.077,5.274-23.843,5.274-32.979-0.001c-4.598-2.654-6.895-6.139-6.884-9.617l0.02-4.893c-0.01,3.479,2.286,6.963,6.884,9.617
					c9.137,5.275,23.902,5.275,32.979,0.001C49.85,30.57,52.106,27.141,52.116,23.706z"/>
			</g>
		</g>
		<g>
			<path fill="#A66206" d="M45.232,14.088c9.137,5.274,9.185,13.828,0.107,19.104c-9.077,5.274-23.843,5.274-32.979-0.001
				c-9.137-5.274-9.185-13.827-0.107-19.103C21.33,8.813,36.096,8.812,45.232,14.088z"/>
		</g>
		<g>
			<path fill="#B3FA08" d="M50.286,17.314c-1.476-0.853-4.286-1.188-5.824-2.076c-1.538-0.888-2.127-2.515-3.604-3.367
				c-0.254-0.146-0.534-0.271-0.85-0.363c-2.229-0.657-5.396,0.336-7.812,0.115c-2.442-0.223-4.94-1.729-7.38-1.506
				c-2.415,0.221-3.972,2.092-6.194,2.748c-2.144,0.635-5.689,0.254-7.48,1.295s-1.122,3.094-2.21,4.337
				c-1.128,1.29-4.353,2.197-4.727,3.598c-0.375,1.413,2.231,2.855,2.625,4.27c0.388,1.4-1.316,3.237-0.174,4.526
				c0.161,0.183,0.376,0.345,0.63,0.491c1.476,0.852,4.287,1.188,5.824,2.075c1.539,0.889,2.127,2.516,3.604,3.367
				c0.254,0.147,0.534,0.271,0.85,0.364c2.23,0.657,5.396-0.336,7.813-0.116c2.442,0.224,4.941,1.729,7.38,1.507
				c2.416-0.222,3.971-2.092,6.194-2.75c2.145-0.634,5.689-0.253,7.48-1.294s1.123-3.093,2.211-4.338
				c1.126-1.289,4.353-2.196,4.725-3.596c0.377-1.414-2.231-2.856-2.624-4.271c-0.389-1.399,1.316-3.236,0.173-4.525
				C50.755,17.623,50.54,17.461,50.286,17.314z"/>
		</g>
		<g>
			<g>
				<path fill="#FE0B37" d="M51.375,25.1c0.033-1.698-1.073-3.404-3.318-4.7c-4.405-2.544-11.526-2.544-15.903,0
					c-2.182,1.268-3.27,2.928-3.268,4.59c0-0.006,0-0.011,0-0.017l-0.01,2.359c-0.005,1.678,1.103,3.358,3.319,4.639
					c4.406,2.544,11.526,2.544,15.903,0c2.175-1.264,3.264-2.918,3.269-4.574l0.01-2.359C51.377,25.059,51.375,25.079,51.375,25.1z"
					/>
			</g>
			<g>
				<path fill="#FE0B37" d="M51.377,25.037l-0.01,2.359c-0.005,1.656-1.094,3.311-3.269,4.574c-4.377,2.544-11.497,2.544-15.903,0
					c-2.217-1.28-3.324-2.96-3.319-4.639l0.01-2.359c-0.005,1.678,1.103,3.358,3.319,4.639c4.406,2.544,11.526,2.544,15.903,0
					C50.283,28.348,51.372,26.693,51.377,25.037z"/>
			</g>
		</g>
		<g>
			<path fill="#FF3E61" d="M48.057,20.399c4.406,2.543,4.43,6.668,0.052,9.212c-4.377,2.544-11.497,2.544-15.903,0
				s-4.429-6.668-0.052-9.212S43.651,17.855,48.057,20.399z"/>
		</g>
		<g>
			<g>
				<path fill="#FE0B37" d="M28.875,25.1c0.032-1.698-1.074-3.404-3.319-4.7c-4.405-2.544-11.526-2.544-15.903,0
					c-2.182,1.268-3.27,2.928-3.268,4.59c0-0.006,0-0.011,0-0.017l-0.01,2.359c-0.005,1.678,1.103,3.358,3.32,4.639
					c4.405,2.544,11.525,2.544,15.903,0c2.175-1.264,3.263-2.918,3.268-4.574l0.01-2.359C28.876,25.059,28.875,25.079,28.875,25.1z"
					/>
			</g>
			<g>
				<path fill="#FE0B37" d="M28.876,25.037l-0.01,2.359c-0.005,1.656-1.093,3.311-3.268,4.574c-4.378,2.544-11.498,2.544-15.903,0
					c-2.218-1.28-3.325-2.96-3.32-4.639l0.01-2.359c-0.005,1.678,1.103,3.358,3.319,4.639c4.406,2.544,11.526,2.544,15.904,0
					C27.782,28.348,28.871,26.693,28.876,25.037z"/>
			</g>
		</g>
		<g>
			<path fill="#FF3E61" d="M25.556,20.399c4.406,2.543,4.43,6.668,0.053,9.212c-4.378,2.544-11.498,2.544-15.904,0
				c-4.405-2.544-4.429-6.668-0.052-9.212C14.03,17.855,21.15,17.855,25.556,20.399z"/>
		</g>
		<g>
			<path fill="#FFB657" d="M6.09,17.187c0.201-0.446,0.447-1.051,0.669-1.486c0.316-0.621,0.756-1.442,1.122-2.035
				c0.253-0.408,0.599-0.948,0.884-1.335c0.439-0.597,1.037-1.385,1.528-1.938c0.312-0.352,0.728-0.819,1.066-1.145
				c0.602-0.575,1.417-1.329,2.063-1.853c0.351-0.285,0.829-0.652,1.204-0.905c0.631-0.426,1.491-0.967,2.147-1.354l0,0
				c0.743-0.391,1.739-0.907,2.515-1.23c1.143-0.477,1.637-0.628,2.762-0.971c0.392-0.119,0.923-0.245,1.322-0.337
				c0.342-0.079,0.802-0.168,1.146-0.23c0.688-0.124,1.458-0.222,2.291-0.291c0.334-0.028,0.779-0.06,1.113-0.063
				c0.328-0.004,0.765-0.017,1.093-0.014c0.327,0.004,0.764,0.024,1.092,0.035c0.729,0.024,1.767,0.162,2.209,0.221
				c0.448,0.061,1.456,0.238,2.295,0.448c0.95,0.237,1.542,0.421,2.444,0.737c0.427,0.149,0.986,0.376,1.401,0.554
				c0.38,0.163,0.876,0.404,1.249,0.581c0.507,0.24,1.16,0.607,1.64,0.897c0.767,0.464,1.748,1.148,2.467,1.685
				c0.493,0.368,1.124,0.897,1.568,1.324c0.607,0.584,1.409,1.375,1.956,2.017c0.615,0.724,1.369,1.744,1.91,2.524
				c0.428,0.619,0.921,1.496,1.271,2.163c0.326,0.622,0.708,1.48,0.98,2.129c1.806,4.47-0.361,9.353-6.453,12.771
				c-9.239,5.185-24.009,5.035-32.989-0.333C6.282,26.3,4.308,21.53,6.09,17.187z"/>
		</g>
		<g>
			<path fill="#FFA834" d="M51.501,17.314c-0.273-0.647-0.655-1.506-0.981-2.129c-0.35-0.666-0.843-1.544-1.271-2.163
				c-0.541-0.78-1.295-1.801-1.91-2.523c-0.547-0.643-1.349-1.434-1.956-2.017c-0.444-0.427-1.075-0.957-1.568-1.325
				c-0.719-0.535-1.7-1.22-2.467-1.684c-0.479-0.291-1.133-0.658-1.639-0.898C39.704,4.574,39.7,4.572,39.697,4.57
				c0.474,0.322,0.947,0.661,1.342,0.955c0.494,0.368,1.124,0.898,1.568,1.325c0.607,0.583,1.409,1.374,1.956,2.016
				c0.615,0.724,1.369,1.744,1.91,2.524c0.429,0.619,0.922,1.497,1.271,2.163c0.327,0.623,0.708,1.481,0.981,2.129
				c1.805,4.47-0.361,9.353-6.453,12.771c-8.719,4.892-22.36,5.032-31.416,0.521c0.381,0.266,0.779,0.525,1.2,0.776
				c8.98,5.369,23.751,5.519,32.99,0.334C51.139,26.667,53.306,21.784,51.501,17.314z"/>
		</g>
	</g>
</g>
</svg>
