<?xml version="1.0" encoding="utf-8"?>
<!-- Generator: Adobe Illustrator 16.0.0, SVG Export Plug-In . SVG Version: 6.00 Build 0)  -->
<!DOCTYPE svg PUBLIC "-//W3C//DTD SVG 1.1//EN" "http://www.w3.org/Graphics/SVG/1.1/DTD/svg11.dtd">
<svg version="1.1" id="Layer_1" xmlns="http://www.w3.org/2000/svg" xmlns:xlink="http://www.w3.org/1999/xlink" x="0px" y="0px"
	 width="61.566px" height="37.457px" viewBox="0 0 61.566 37.457" enable-background="new 0 0 61.566 37.457" xml:space="preserve">
<g>
	<g>
		<g>
			<path fill="#FFFFFF" d="M47.765,36.96c-1.864,0-3.141-0.363-3.233-0.391c-0.825-0.244-8.861-2.862-9.203-2.974
				c-1.145-0.369-2.476-0.48-3.885-0.598c-0.93-0.078-1.89-0.158-2.818-0.32c-0.261-0.046-0.556-0.092-0.879-0.142
				c-2.684-0.418-7.013-1.091-8.214-4.029l-0.183-0.058l-9.7-3.227c-0.514-0.104-0.984-0.221-1.435-0.358
				c-3.212-1.021-5.734-3.324-6.937-6.321c-1.249-3.114-0.983-6.698,0.729-9.832C5.483,2.351,13.87-1.03,20.703,1.172
				c0.297,0.095,0.585,0.21,0.873,0.327l16.576,5.306c1.262-0.312,2.816-0.069,4.637,0.718c0.711,0.312,1.34,0.695,1.949,1.065
				c0.608,0.37,1.183,0.72,1.758,0.947c0.366,0.147,0.793,0.265,1.245,0.388c0.329,0.09,0.655,0.18,0.965,0.28l3.888,1.249
				c0.139,0.045,0.267,0.108,0.381,0.187c0.861,0.365,2.045,0.982,3.256,1.968c1.698,1.397,2.981,3.125,3.817,5.139
				c0.038,0.079,1.428,3.165,0.899,6.829c-0.084,0.677-0.646,4.247-3.239,6.997c-0.022,0.029-0.047,0.058-0.072,0.085
				c-0.573,0.648-2.151,2.229-4.762,3.326C51.004,36.742,49.208,36.96,47.765,36.96z M22.242,27.138
				c0.304,1.553,4.122,2.147,5.966,2.434c0.345,0.054,0.661,0.104,0.936,0.151c0.794,0.139,1.646,0.21,2.549,0.286
				c1.517,0.126,3.085,0.257,4.562,0.733c2.885,0.94,8.5,2.764,9.125,2.949c0.025,0.008,3.09,0.841,6.35-0.481
				c1.952-0.821,3.138-1.963,3.6-2.473c0.039-0.053,0.082-0.104,0.128-0.151c2.056-2.121,2.476-5.072,2.518-5.401
				c0.403-2.807-0.664-5.218-0.675-5.241c-0.667-1.603-1.659-2.938-2.969-4.016c-1.11-0.904-2.204-1.404-2.756-1.622
				c-0.067-0.026-0.132-0.057-0.193-0.092l-3.599-1.156c-0.269-0.088-0.549-0.163-0.831-0.24c-0.516-0.142-1.048-0.287-1.568-0.496
				c-0.804-0.318-1.516-0.752-2.204-1.171c-0.549-0.333-1.067-0.648-1.588-0.877c-0.763-0.331-1.462-0.531-2.013-0.587
				c-0.393,0.324-0.939,0.438-1.452,0.259l-0.467-0.149L20.606,4.339c-0.037-0.012-0.073-0.025-0.109-0.04
				c-0.243-0.099-0.473-0.194-0.712-0.271C14.253,2.244,7.46,4.99,4.64,10.149c-1.281,2.345-1.491,4.997-0.577,7.276
				c0.88,2.195,2.672,3.819,5.046,4.574c0.362,0.111,0.764,0.21,1.212,0.297c0.063,0.013,0.126,0.029,0.187,0.05l10.699,3.544
				C21.771,26.069,22.171,26.561,22.242,27.138z"/>
		</g>
		<g>
			<path fill="#E8E8E8" d="M47.765,37.457c-1.944,0-3.277-0.38-3.374-0.408c-0.833-0.246-8.875-2.866-9.217-2.978
				c-1.089-0.351-2.393-0.46-3.772-0.575c-0.94-0.078-1.912-0.159-2.862-0.326c-0.259-0.045-0.551-0.091-0.869-0.14
				c-2.736-0.426-7.106-1.106-8.51-4.117l-9.64-3.206c-0.519-0.105-0.994-0.225-1.452-0.364c-3.36-1.069-5.997-3.478-7.255-6.614
				c-1.305-3.253-1.029-6.992,0.755-10.258c3.586-6.56,12.24-10.051,19.288-7.774c0.302,0.097,0.597,0.213,0.891,0.333l16.427,5.257
				c1.341-0.288,2.954-0.027,4.814,0.778c0.743,0.326,1.387,0.718,2.01,1.096c0.59,0.359,1.146,0.698,1.683,0.91
				c0.342,0.138,0.755,0.251,1.192,0.37c0.337,0.092,0.67,0.185,0.987,0.287l3.888,1.249c0.168,0.055,0.323,0.129,0.465,0.22
				c0.89,0.382,2.099,1.017,3.333,2.022c1.765,1.452,3.096,3.244,3.964,5.334c0.033,0.068,1.481,3.285,0.933,7.093
				c-0.086,0.694-0.668,4.393-3.355,7.253c-0.025,0.032-0.052,0.062-0.08,0.093c-0.596,0.673-2.236,2.315-4.938,3.452
				C51.129,37.23,49.265,37.457,47.765,37.457z M22.735,27.057c0.262,1.198,4.235,1.816,5.549,2.021
				c0.349,0.055,0.669,0.104,0.947,0.153c0.77,0.135,1.611,0.205,2.503,0.279c1.545,0.129,3.142,0.263,4.673,0.757
				c2.32,0.756,8.471,2.755,9.114,2.945c0.729,0.214,3.415,0.591,6.02-0.466c1.869-0.786,3.017-1.909,3.402-2.329
				c0.047-0.062,0.099-0.122,0.153-0.179c1.977-2.039,2.365-4.991,2.381-5.116c0.382-2.658-0.625-4.951-0.635-4.975
				c-0.642-1.539-1.585-2.809-2.83-3.834c-1.057-0.859-2.097-1.336-2.622-1.542c-0.072-0.028-0.142-0.061-0.209-0.097l-3.554-1.142
				c-0.262-0.085-0.534-0.159-0.809-0.234c-0.529-0.145-1.076-0.294-1.623-0.514c-0.841-0.333-1.571-0.777-2.277-1.207
				c-0.534-0.325-1.039-0.632-1.529-0.848c-0.744-0.322-1.29-0.466-1.676-0.523c-0.505,0.327-1.146,0.424-1.754,0.21l-0.445-0.142
				l-17.061-5.46c-0.05-0.017-0.099-0.034-0.146-0.054c-0.231-0.094-0.448-0.185-0.675-0.258C14.404,2.819,7.742,5.515,5.078,10.389
				c-1.209,2.214-1.41,4.711-0.552,6.852c0.823,2.053,2.505,3.574,4.733,4.283c0.34,0.104,0.726,0.199,1.157,0.283
				c0.084,0.017,0.166,0.038,0.247,0.065l10.692,3.541C22.103,25.649,22.635,26.296,22.735,27.057z"/>
		</g>
	</g>
	<g transform="matrix(1.25 0 0 -1.25 0 45)">
		<g>
			<g>
				<path fill="#FFCC4D" d="M32.6,28.61c-0.009,0.009-0.018,0.02-0.027,0.029l-1.837,0.592l-0.259,0.084l-13.624,4.353
					c4.416-1.806,6.046-6.561,3.605-10.947c-2.371-4.262-7.746-6.667-12.431-5.74l7.816-2.596l3.664-1.181
					c1.81-0.583,3.953-0.146,5.316,0.598c1.027,0.56,1.611,1.295,1.27,1.902c-0.198,0.349-0.143,0.736,0.073,1.132
					c0.697,1.27,3.125,2.629,4.753,3.09c0.534,0.151,0.981,0.402,1.366,0.716c1.165,0.952,1.67,2.534,1.671,4.084
					C33.957,26.295,33.447,27.82,32.6,28.61z"/>
			</g>
			<g>
				<g>
					<path fill="#FFAC33" d="M25.579,21.648c-0.578,0.187-1.344-0.083-1.712-0.604c-0.368-0.52-0.196-1.092,0.382-1.278
						c0.579-0.188,1.345,0.084,1.712,0.603C26.329,20.89,26.157,21.462,25.579,21.648"/>
				</g>
				<g>
					<path fill="#D99E82" d="M30.329,25.557c-0.578,0.187-1.022-0.188-0.992-0.836c0.031-0.648,0.523-1.325,1.103-1.511
						c0.578-0.186,1.022,0.188,0.991,0.836C31.4,24.695,30.907,25.371,30.329,25.557"/>
				</g>
				<g>
					<path fill="#FFAC33" d="M25.616,28.57c-0.006-0.637-0.478-1.001-1.058-0.815c-0.578,0.187-1.041,0.854-1.036,1.491
						c0.005,0.635,0.479,1.001,1.057,0.815C25.158,29.873,25.622,29.206,25.616,28.57"/>
				</g>
				<g>
					<path fill="#D99E82" d="M21.23,14.96c-0.476-0.485-1.33-0.727-1.908-0.541c-0.578,0.186-0.662,0.73-0.186,1.216
						c0.476,0.485,1.329,0.727,1.908,0.541C21.622,15.989,21.705,15.446,21.23,14.96"/>
				</g>
			</g>
		</g>
		<g>
			<g>
				<g>
					<path fill="#FFAC33" d="M18.214,29.758c-0.195,0.27-0.417,0.524-0.664,0.761c-0.084,0.082-0.173,0.162-0.266,0.238
						c-0.152,0.128-0.298,0.258-0.466,0.373c-0.003,0.001-0.005,0.002-0.006,0.004c-0.058,0.04-0.111,0.088-0.173,0.127
						c-0.005,0.005,0.005,0.018,0.002,0.024c0.001,0,0.001-0.001,0.001-0.001c-0.001,0.001-0.002,0.001-0.004,0.002
						c0.002,0,0.003,0,0.003-0.001c0,0,0,0,0,0.001c-0.001,0.001-0.016-0.006-0.02-0.006c-0.004,0-0.015-0.004-0.02-0.005
						c-0.002,0.001-0.007,0-0.007,0s-0.001-0.002-0.001-0.003c-0.002,0-0.005-0.001-0.005-0.001s-0.001-0.001-0.001-0.001
						c0.001,0.001,0.015,0.009,0.016,0.009c0.007,0.004,0.033,0.016,0.033,0.016v0.001l0.014-0.027c0,0-0.038-0.02-0.045-0.023
						l-0.005-0.002l0,0l0,0H16.6v-0.001l-0.002-0.001c0,0-0.005,0.014-0.005,0.014c-0.001,0,0.002-0.008,0.002-0.008
						c-0.002,0,0.002-0.007,0.002-0.007h-0.001h0.002c0-0.001-0.002,0-0.002,0h-0.001l0,0c-0.27,0.224-0.472,0.285-0.723,0.402
						l-0.004,0.007l-0.002,0.004c-0.113,0.001-0.226-0.016-0.332-0.048c-0.002,0-0.002,0.002-0.004,0.002
						c0.107,0.034,0.218,0.052,0.332,0.051c0.001,0,0.001,0,0.001,0c0.001,0,0.001,0.001,0.002,0.001
						c-0.013,0.005-0.025,0.011-0.037,0.016c-0.23,0.105-0.471,0.2-0.723,0.281c-0.045,0.014-0.09,0.027-0.135,0.04
						c-0.009,0.003-0.017,0.005-0.027,0.009c-0.355,0.105-0.718,0.186-1.085,0.238c-0.007,0.002-0.014,0.002-0.021,0.003
						c-0.027,0.005-0.057,0.009-0.089,0.011c-0.064,0.008-0.127,0.016-0.191,0.023c-0.177,0.018-0.354,0.031-0.531,0.038
						c-0.38,0.015-0.762,0.004-1.143-0.032l0,0c-2.88-0.271-5.708-1.955-7.127-4.506c-0.918-1.65-1.077-3.366-0.606-4.852
						c-0.001-0.001-0.002-0.001-0.002-0.002c0.001-0.002,0-0.003,0-0.003c0.001,0,0.002,0,0.003-0.001
						c0.001-0.002,0.002-0.005,0.002-0.007c0.001,0.001,0.002,0.004,0.003,0.006c0.005-0.002,0.01-0.003,0.015-0.004
						c0.001-0.009,0.002-0.021,0.003-0.027c0.001-0.002,0-0.009,0-0.009c0.001-0.001-0.002-0.005-0.002-0.006
						c0.019-0.058,0.037-0.117,0.059-0.174c0.003-0.008,0.005-0.017,0.008-0.025c0.02-0.052,0.04-0.104,0.061-0.155
						c0.005-0.014,0.011-0.029,0.016-0.043c0.02-0.047,0.041-0.093,0.062-0.139c0.009-0.02,0.017-0.04,0.026-0.059
						c0.02-0.041,0.039-0.082,0.059-0.123c0.013-0.025,0.025-0.05,0.038-0.075c0.018-0.035,0.037-0.07,0.056-0.105
						c0.016-0.03,0.033-0.06,0.05-0.091c0.017-0.03,0.035-0.06,0.053-0.09c-0.018,0.03-0.036,0.06-0.053,0.09
						c-0.017,0.03-0.034,0.061-0.05,0.091c-0.02,0.035-0.038,0.07-0.056,0.105c-0.013,0.025-0.026,0.05-0.038,0.075
						c-0.02,0.041-0.04,0.081-0.059,0.123c-0.009,0.019-0.017,0.039-0.027,0.058c-0.02,0.047-0.041,0.093-0.061,0.14
						c-0.006,0.014-0.011,0.028-0.017,0.042c-0.021,0.052-0.041,0.103-0.061,0.155c-0.003,0.008-0.005,0.016-0.009,0.024
						c-0.02,0.055-0.041,0.111-0.059,0.167c0.017-0.052,0.036-0.104,0.055-0.155c0.005-0.012,0.009-0.024,0.013-0.036
						c0-0.002,0.001-0.002,0.001-0.003c0.016-0.041,0.032-0.083,0.049-0.123c0.004-0.011,0.009-0.023,0.013-0.034
						c0.005-0.013,0.009-0.025,0.014-0.037c0.021-0.05,0.043-0.098,0.065-0.147c0.002-0.005,0.005-0.01,0.007-0.015
						c0.005-0.01,0.009-0.021,0.014-0.031c0-0.001,0.001-0.002,0.002-0.003c0.001-0.002,0.002-0.004,0.002-0.006
						c0.017-0.037,0.036-0.073,0.054-0.11c0.002-0.005-0.015-0.021-0.012-0.027c0.009-0.018-0.002-0.046,0.008-0.064
						c0.001-0.002,0.002-0.004,0.003-0.006c0.001-0.002,0.001-0.002,0.002-0.003c0.002-0.002,0.023,0.005,0.023,0.003
						c0.017-0.033,0.045-0.059,0.062-0.091c0.002-0.005,0.009-0.006,0.012-0.011c0.015-0.027,0.031-0.052,0.046-0.077
						c0.02-0.034,0.041-0.067,0.061-0.101c0.002-0.002,0.003-0.003,0.004-0.005c0.013-0.022,0.027-0.042,0.04-0.064
						c0.004-0.006,0.008-0.013,0.012-0.02c0.005-0.008,0.01-0.016,0.016-0.023c0.013-0.02,0.025-0.04,0.038-0.059
						c0.002-0.004,0.004-0.007,0.006-0.01c0.002-0.002,0.002-0.003,0.003-0.005c0.016-0.023,0.031-0.047,0.047-0.07
						c0.003-0.005,0.005-0.009,0.009-0.013c0.023-0.033,0.045-0.066,0.069-0.098c0.007-0.009,0.013-0.019,0.02-0.028h0.001
						c0.005-0.006,0.01-0.012,0.015-0.02c0.147-0.02,0.147-0.02,0.001,0c0.381-0.52,0.861-0.981,1.434-1.363
						c0.391-0.261,0.82-0.488,1.293-0.67c0.113-0.044,0.229-0.086,0.347-0.124c1.336-0.43,2.781-0.471,4.179-0.188c0,0,0,0-0.001,0
						c0.36,0.073,0.717,0.168,1.068,0.283c2.12,0.695,4.021,2.136,5.103,4.082c0.339,0.609,0.573,1.227,0.713,1.839
						c0.254,1.116,0.187,2.212-0.166,3.197c-0.059,0.164-0.127,0.326-0.201,0.484C18.572,29.209,18.406,29.491,18.214,29.758z
						 M4.176,22.916c0,0-0.001,0.001-0.002,0.002C4.175,22.918,4.176,22.917,4.176,22.916C4.176,22.917,4.176,22.916,4.176,22.916z"
						/>
				</g>
				<g>
					<path fill="#FFAC33" d="M16.6,31.259c-0.005,0.003-0.012,0.008-0.017,0.011l-0.004-0.002
						C16.587,31.266,16.592,31.262,16.6,31.259"/>
				</g>
			</g>
			<g>
				<path fill="#C1694F" d="M4.155,22.9c0.003-0.009,0.008-0.018,0.012-0.029c-0.004,0.011-0.007,0.022-0.01,0.032
					C4.156,22.902,4.155,22.902,4.155,22.9"/>
			</g>
			<g>
				<path fill="#FFE8B6" d="M16.852,33.668c-0.215,0.088-0.43,0.177-0.659,0.251c-4.914,1.584-11.009-0.841-13.533-5.462
					C0.205,23.963,2.17,18.766,6.924,17.26c0.362-0.115,0.731-0.205,1.103-0.279c4.685-0.927,10.059,1.478,12.43,5.74
					C22.898,27.107,21.27,31.862,16.852,33.668z M18.363,23.396c-1.956-3.518-6.591-5.388-10.348-4.176
					c-0.612,0.196-1.156,0.47-1.641,0.793c-1.078,0.719-1.831,1.716-2.207,2.858c-0.004,0.011-0.009,0.02-0.012,0.029
					c0,0.002,0.001,0.002,0.002,0.003c-0.48,1.492-0.327,3.219,0.598,4.879c1.957,3.518,6.591,5.388,10.348,4.176
					c0.544-0.174,1.033-0.41,1.477-0.686l0.002-0.002c0.006-0.003,0.012-0.008,0.017-0.011
					C19.21,29.623,20.034,26.398,18.363,23.396z"/>
			</g>
			<g>
				<path fill="#C1694F" d="M18.364,23.396c1.67,3.001,0.846,6.227-1.764,7.863c-0.008,0.002-0.013,0.007-0.021,0.009l0.004,0.002
					c-0.002,0.001-0.002,0.001-0.002,0.002L9.605,27.77c-1.245,0.087-2.109-0.222-2.798-0.596c-1.073-0.58-1.564-1.623-1.874-2.583
					c-0.11-0.342-0.092-0.706-0.007-1.04c-0.334-0.073-0.621-0.315-0.77-0.648c0.004-0.01,0.007-0.021,0.011-0.03
					c0.173-0.526,0.427-1.026,0.756-1.477c0.157-0.028,0.316-0.029,0.466,0.005c0.127-0.143,0.278-0.268,0.473-0.33
					c0.031-0.01,0.064-0.004,0.097-0.011c0.006-0.391,0.162-0.754,0.412-1.045c0,0,0.001-0.001,0.002-0.002
					c0.484-0.323,1.029-0.595,1.64-0.794C11.773,18.008,16.407,19.878,18.364,23.396"/>
			</g>
			<g>
				<path fill="#F4900C" d="M9.71,27.562l7.29,3.4c-0.261,0.209-0.555,0.402-0.895,0.576c-3.524,0.577-7.485-1.247-9.257-4.43
					l0.012-0.038C7.549,27.444,8.466,27.649,9.71,27.562"/>
			</g>
			<g>
				<g>
					<path fill="#D99E82" d="M8.97,23.534c-0.187-0.578-0.807-0.896-1.385-0.709c-0.578,0.187-0.895,0.805-0.709,1.384
						c0.188,0.579,0.806,0.896,1.384,0.71C8.838,24.733,9.156,24.112,8.97,23.534"/>
				</g>
				<g>
					<path fill="#D99E82" d="M11.942,21.999c-0.28-0.868-1.21-1.344-2.077-1.065c-0.866,0.28-1.345,1.209-1.064,2.077
						c0.28,0.868,1.209,1.344,2.076,1.064C11.745,23.796,12.222,22.867,11.942,21.999"/>
				</g>
				<g>
					<path fill="#D99E82" d="M14.542,22.895c-0.187-0.578-0.807-0.896-1.385-0.71c-0.578,0.187-0.895,0.805-0.709,1.385
						c0.188,0.578,0.806,0.895,1.384,0.709C14.41,24.092,14.728,23.473,14.542,22.895"/>
				</g>
				<g>
					<path fill="#D99E82" d="M6.707,23.686c-0.093-0.29-0.402-0.448-0.691-0.355c-0.29,0.094-0.448,0.403-0.355,0.692
						c0.093,0.289,0.402,0.448,0.692,0.355C6.642,24.285,6.801,23.976,6.707,23.686"/>
				</g>
				<g>
					<path fill="#D99E82" d="M13.53,19.754c-0.187-0.578-0.805-0.895-1.384-0.71c-0.578,0.187-0.896,0.805-0.71,1.385
						c0.188,0.578,0.807,0.896,1.385,0.709C13.398,20.951,13.716,20.332,13.53,19.754"/>
				</g>
				<g>
					<path fill="#D99E82" d="M15.252,21.51c-0.578,0.186-1.198-0.131-1.385-0.709c-0.134-0.417,0-0.85,0.298-1.132
						c0.636,0.283,1.243,0.631,1.801,1.044C15.879,21.073,15.63,21.387,15.252,21.51"/>
				</g>
			</g>
			<g>
				<g>
					<path fill="#FFD983" d="M7.702,28.566c-0.866,0.28-1.796-0.196-2.077-1.064c-0.28-0.868,0.198-1.797,1.065-2.077
						c0.866-0.279,1.796,0.196,2.076,1.064C9.046,27.357,8.569,28.287,7.702,28.566z"/>
				</g>
				<g>
					<path fill="#FFD983" d="M17.31,24.313c-0.578,0.187-1.197-0.13-1.384-0.709c-0.186-0.579,0.131-1.198,0.709-1.384
						c0.58-0.186,1.198,0.131,1.385,0.709C18.206,23.507,17.889,24.127,17.31,24.313z"/>
				</g>
				<g>
					<path fill="#FFD983" d="M15.03,26.204c-0.725,0.234-1.487-0.066-1.884-0.675c-0.158,0.131-0.341,0.236-0.547,0.302
						c-0.207,0.067-0.417,0.088-0.621,0.074c0.034,0.726-0.41,1.414-1.135,1.648c-0.868,0.28-1.797-0.196-2.077-1.064
						c-0.28-0.868,0.196-1.797,1.064-2.077c0.207-0.066,0.416-0.087,0.62-0.073c-0.034-0.727,0.41-1.415,1.136-1.649
						c0.725-0.234,1.487,0.066,1.884,0.675c0.158-0.13,0.341-0.236,0.548-0.302c0.868-0.28,1.796,0.196,2.076,1.064
						C16.374,24.995,15.898,25.924,15.03,26.204z"/>
				</g>
			</g>
			<g>
				<g>
					<path fill="#FFE8B6" d="M13.992,25.672c-0.722,0.233-1.498-0.165-1.73-0.887c-0.233-0.723,0.165-1.498,0.887-1.73
						c0.723-0.233,1.498,0.164,1.73,0.887C15.112,24.663,14.715,25.439,13.992,25.672z"/>
				</g>
				<g>
					<path fill="#FFE8B6" d="M11.375,26.516c-0.434,0.139-0.898-0.099-1.038-0.532c-0.139-0.434,0.099-0.898,0.532-1.039
						c0.434-0.14,0.898,0.098,1.038,0.533C12.047,25.911,11.809,26.376,11.375,26.516z"/>
				</g>
				<g>
					<path fill="#FFE8B6" d="M9.281,27.191c-0.434,0.139-0.898-0.099-1.039-0.533c-0.138-0.433,0.1-0.898,0.533-1.038
						c0.434-0.14,0.898,0.098,1.038,0.532C9.953,26.586,9.715,27.051,9.281,27.191z"/>
				</g>
			</g>
			<g>
				<path fill="#77B255" d="M17.951,29.885c-0.578,0.187-1.198-0.131-1.384-0.709c-0.062-0.192-0.064-0.387-0.023-0.57
					c-0.141-0.125-0.252-0.284-0.314-0.477c0.185,0.573-0.125,1.188-0.694,1.38c0.573-0.175,1.184,0.141,1.369,0.714
					c0.187,0.578-0.131,1.198-0.709,1.384c-0.578,0.187-1.198-0.131-1.385-0.709l-0.008,0.003c-0.188,0.06-0.381,0.066-0.562,0.026
					c-0.125,0.138-0.287,0.247-0.477,0.308c0.187,0.578-0.131,1.198-0.709,1.385c-0.578,0.186-1.198-0.132-1.384-0.71
					c-0.187-0.577,0.13-1.196,0.707-1.384c-0.344,0.11-0.701,0.039-0.973-0.156c-0.266,0.377-0.645,0.678-1.118,0.83
					c-1.156,0.373-2.395-0.262-2.768-1.42c-0.373-1.156,0.262-2.395,1.419-2.767c0.79-0.255,1.61-0.032,2.175,0.497
					c0.079-0.05,0.163-0.095,0.256-0.126c-0.187-0.578,0.131-1.197,0.709-1.384c0.334-0.109,0.682-0.044,0.953,0.14
					c0.159-0.149,0.348-0.27,0.57-0.343c0.59-0.189,1.207,0.002,1.594,0.436c0.104-0.086,0.224-0.154,0.36-0.198
					c-0.186-0.578,0.131-1.198,0.71-1.384c0.578-0.187,1.198,0.131,1.384,0.709c0.111-0.035,0.223-0.048,0.334-0.048
					c0.012,0,0.025-0.001,0.038-0.001c0.452,0.014,0.867,0.303,1.013,0.758c0.187,0.578-0.131,1.198-0.709,1.384
					c0.044,0.14,0.057,0.281,0.047,0.419c-0.019,0.039-0.041,0.077-0.061,0.116c0.159,0.13,0.283,0.303,0.351,0.512
					C18.847,29.079,18.529,29.699,17.951,29.885z"/>
			</g>
			<g>
				<g>
					<path fill="#A6D388" d="M9.087,29.275c-0.29,0.093-0.599-0.066-0.691-0.355c-0.094-0.289,0.065-0.598,0.355-0.691
						c0.288-0.095,0.598,0.064,0.691,0.354C9.535,28.873,9.377,29.183,9.087,29.275z"/>
				</g>
				<g>
					<path fill="#A6D388" d="M16.566,29.176c-0.578,0.187-1.197-0.13-1.384-0.709c-0.186-0.579,0.131-1.198,0.709-1.384
						c0.579-0.186,1.198,0.131,1.384,0.709C17.462,28.37,17.145,28.988,16.566,29.176z"/>
				</g>
				<g>
					<path fill="#A6D388" d="M13.949,30.02c-0.326,0.105-0.659,0.103-0.963,0.015c-0.132,0.223-0.341,0.405-0.608,0.491
						c-0.578,0.186-1.198-0.131-1.384-0.709c-0.579,0.186-1.198-0.131-1.384-0.709c-0.186-0.579,0.131-1.198,0.709-1.384
						c0.578-0.187,1.197,0.13,1.384,0.709c0.032-0.011,0.064-0.013,0.097-0.021c0.015-0.683,0.449-1.311,1.136-1.532
						c0.868-0.28,1.797,0.196,2.077,1.064C15.293,28.811,14.817,29.74,13.949,30.02z"/>
				</g>
				<g>
					<path fill="#A6D388" d="M17.445,28.315c-0.093-0.29-0.403-0.448-0.691-0.355c-0.29,0.093-0.448,0.403-0.355,0.691
						c0.092,0.29,0.402,0.448,0.691,0.355C17.38,28.914,17.538,28.605,17.445,28.315"/>
				</g>
			</g>
			<g>
				<g>
					<path fill="#DD2E44" d="M10.631,31.378c-0.434,0.139-0.898-0.099-1.039-0.533c-0.139-0.433,0.099-0.898,0.532-1.038
						c0.434-0.14,0.899,0.098,1.039,0.532C11.303,30.773,11.065,31.238,10.631,31.378z"/>
				</g>
				<g>
					<path fill="#DD2E44" d="M16.202,30.737c-0.433,0.139-0.898-0.099-1.038-0.532c-0.139-0.434,0.099-0.898,0.532-1.039
						c0.434-0.14,0.899,0.098,1.039,0.533C16.875,30.133,16.637,30.598,16.202,30.737z"/>
				</g>
				<g>
					<path fill="#DD2E44" d="M15.891,27.082c-0.186-0.579,0.131-1.198,0.709-1.384c0.579-0.186,1.198,0.131,1.384,0.709
						c0.187,0.578-0.13,1.198-0.709,1.384C16.698,27.978,16.079,27.661,15.891,27.082z"/>
				</g>
				<g>
					<path fill="#DD2E44" d="M12.041,29.479c-0.186-0.58,0.131-1.198,0.709-1.385c0.579-0.186,1.198,0.132,1.384,0.71
						c0.187,0.578-0.13,1.197-0.709,1.384C12.848,30.374,12.228,30.057,12.041,29.479z"/>
				</g>
				<g>
					<path fill="#DD2E44" d="M13.932,31.759c0.093,0.29-0.066,0.599-0.355,0.691c-0.29,0.094-0.599-0.065-0.692-0.355
						c-0.094-0.288,0.065-0.598,0.355-0.691C13.529,31.31,13.838,31.469,13.932,31.759z"/>
				</g>
			</g>
		</g>
		<g>
			<g>
				<path fill="#BDBDBD" d="M31.993,20.737c-0.383-0.313-0.831-0.565-1.364-0.716c-1.628-0.462-4.058-1.82-4.754-3.091l19.354-6.238
					c2.016,2.084,2.333,4.962,2.342,5.023L31.993,20.737z"/>
			</g>
			<g>
				<path fill="#808285" d="M24.531,13.896c-1.362-0.744-3.505-1.181-5.315-0.598l-2.617,0.844c0.37-2.416,4.653-2.776,6.506-3.099
					c1.781-0.311,3.817-0.228,5.532-0.78c0,0,6.674-2.17,7.329-2.363c0.655-0.193,3.232-0.655,5.864,0.421L24.531,13.896z"/>
			</g>
			<g>
				<path fill="#A6A6A6" d="M25.875,16.93c-0.216-0.395-0.271-0.783-0.074-1.131c0.342-0.608-0.243-1.341-1.27-1.902L41.83,8.321
					c2.209,0.926,3.341,2.308,3.399,2.371L25.875,16.93z"/>
			</g>
			<g>
				<path fill="#D8D8D8" d="M33.665,24.82c-0.001-1.55-0.506-3.131-1.672-4.084l15.578-5.021c0.366,2.548-0.595,4.727-0.637,4.828
					L33.665,24.82z"/>
			</g>
			<g>
				<g id="SVGCleanerId_0_2_">
					<path fill="#BDBDBD" d="M41.695,25.67l0.009,0.027c-1.035,0.334-2.07,0.668-3.106,1.002c-0.597,0.192-1.263,0.326-1.84,0.555
						c-1.048,0.416-1.962,1.173-3.003,1.627c-0.901,0.391-2.19,0.8-3.149,0.449c0.473-0.303,1.133-0.42,1.677-0.596
						c0.863-0.78,1.384-2.326,1.383-3.913l13.27-4.276C45.561,23.857,42.837,25.226,41.695,25.67"/>
				</g>
			</g>
		</g>
	</g>
</g>
</svg>
