<?xml version="1.0" encoding="utf-8"?>
<!-- Generator: Adobe Illustrator 16.0.0, SVG Export Plug-In . SVG Version: 6.00 Build 0)  -->
<!DOCTYPE svg PUBLIC "-//W3C//DTD SVG 1.1//EN" "http://www.w3.org/Graphics/SVG/1.1/DTD/svg11.dtd">
<svg version="1.1" id="Layer_1" xmlns="http://www.w3.org/2000/svg" xmlns:xlink="http://www.w3.org/1999/xlink" x="0px" y="0px"
	 width="59.58px" height="44.332px" viewBox="0 0 59.58 44.332" enable-background="new 0 0 59.58 44.332" xml:space="preserve">
<g>
	<g>
		<g>
			<g>
				<g>
					<path fill="#E8E8E8" d="M41.618,36.853c-0.923,0-1.753-0.643-1.954-1.582c-0.03-0.141-0.044-0.282-0.044-0.421
						c0-0.923,0.643-1.752,1.582-1.953c0.37-0.079,0.766-0.176,1.103-0.257c1.061-0.26,2.18,0.376,2.451,1.437
						c0.271,1.062-0.318,2.133-1.376,2.418c-0.4,0.107-0.887,0.217-1.342,0.314C41.897,36.839,41.757,36.853,41.618,36.853z"/>
				</g>
				<g>
					<path fill="#E8E8E8" d="M57.553,19.122c-0.085,0-0.172-0.005-0.259-0.017c-1.079-0.14-1.849-1.117-1.731-2.199
						c0.006-0.051,0.01-0.101,0.013-0.15l0.005-0.174c0-1.104,0.896-2,2-2s2,0.896,2,2v0.15c0,0.229-0.018,0.458-0.052,0.688
						C59.38,18.409,58.528,19.122,57.553,19.122z"/>
				</g>
				<g>
					<path fill="#E8E8E8" d="M56.641,24.123c-0.219,0-0.44-0.036-0.658-0.112c-1.032-0.359-1.585-1.481-1.24-2.52
						c0.077-0.23,0.154-0.481,0.221-0.698l0.046-0.149c0.08-0.265,0.162-0.583,0.229-0.903c0-0.001,0-0.001,0-0.001
						c0-0.002,0.001-0.003,0.001-0.005s0.001-0.004,0.001-0.004c0-0.001,0-0.002,0-0.002c0-0.002,0.001-0.005,0.001-0.004
						c0-0.002,0-0.003,0.001-0.004c0.221-1.083,1.28-1.784,2.36-1.558c0.947,0.193,1.6,1.027,1.599,1.958
						c0,0.133-0.013,0.268-0.041,0.402c-0.006,0.029-0.012,0.058-0.018,0.086c-0.086,0.405-0.188,0.806-0.281,1.148
						c-0.082,0.305-0.212,0.695-0.341,1.05C58.224,23.618,57.458,24.123,56.641,24.123z"/>
				</g>
			</g>
			<g>
				<path fill="#E8E8E8" d="M9.69,44.332c-0.901,0-1.795-0.227-2.589-0.657c-0.17-0.083-0.336-0.185-0.509-0.312
					c-0.136-0.09-0.268-0.191-0.386-0.293c-0.233-0.179-0.517-0.461-0.767-0.778c-0.105-0.128-0.203-0.26-0.291-0.396
					c-0.854-0.045-1.683-0.289-2.413-0.712C2.559,41.08,2.38,40.961,2.211,40.83c-0.194-0.132-0.378-0.288-0.55-0.467
					c-0.339-0.311-0.634-0.681-0.9-1.129c-0.111-0.183-0.21-0.383-0.304-0.599c-0.127-0.272-0.222-0.551-0.282-0.829
					c-0.028-0.104-0.062-0.247-0.085-0.4c-0.023-0.113-0.04-0.223-0.055-0.342C0.013,36.807,0,36.623,0,36.452
					c0-2.999,2.44-5.439,5.44-5.439c0.182,0,0.362,0.013,0.527,0.027c0.212,0.016,0.431,0.051,0.638,0.103
					c0.185,0.033,0.341,0.081,0.465,0.124c0.112,0.033,0.226,0.073,0.337,0.115c0.14,0.051,0.274,0.11,0.409,0.182
					c0.161,0.075,0.317,0.158,0.469,0.25l6.275-3.656c-0.01-0.147-0.017-0.311-0.021-0.494c-0.008-0.419,0.018-0.848,0.077-1.276
					l0.021-0.147c0.024-0.162,0.055-0.342,0.088-0.48l0.07-0.263c0.043-0.163,0.089-0.336,0.134-0.48
					c0.212-0.619,0.554-1.476,1.273-2.368c0.344-0.428,0.688-0.745,0.818-0.861c0.162-0.145,0.339-0.295,0.484-0.397
					c0.194-0.135,0.414-0.277,0.602-0.397c0.037-0.024,0.074-0.047,0.113-0.068c0.13-0.085,0.271-0.179,0.384-0.257l0.143-0.098
					c0.283-0.234,0.283-0.233,0.42-0.361c0.139-0.128,0.232-0.232,0.282-0.287c0.015-0.017,0.03-0.033,0.046-0.049
					c0.143-0.172,0.151-0.183,0.243-0.311c0.101-0.133,0.157-0.226,0.19-0.279c0.005-0.008,0.012-0.02,0.021-0.032
					c0.09-0.164,0.136-0.249,0.202-0.398c-0.001,0.001-0.001,0.002-0.001,0.002c-0.001,0,0.003-0.01,0.009-0.026l0.017-0.146
					c0.003-0.039,0.007-0.078,0.013-0.117l0.05-0.367c0.036-0.263,0.071-0.523,0.106-0.741c0.071-0.421,0.188-0.95,0.291-1.343
					c0.066-0.299,0.208-0.796,0.325-1.15c0.164-0.49,0.402-1.15,0.597-1.626c0.151-0.353,0.336-0.765,0.496-1.073
					c0.104-0.207,0.26-0.511,0.375-0.73l0.09-0.159c0.146-0.254,0.318-0.551,0.457-0.782c0.167-0.279,0.406-0.643,0.588-0.905
					c0.332-0.459,0.754-1.017,1.079-1.427c0.189-0.245,0.494-0.601,0.739-0.856c0.177-0.196,0.465-0.507,0.687-0.728
					c0.116-0.124,0.338-0.334,0.529-0.515l0.107-0.101c0.247-0.236,0.587-0.537,0.865-0.754c0.388-0.321,0.973-0.787,1.427-1.111
					c0.703-0.503,1.306-0.865,1.629-1.061c0.361-0.212,0.732-0.407,1.079-0.588l0.427-0.225c0.593-0.313,1.409-0.668,2.095-0.913
					c0.514-0.186,1.845-0.649,2.96-0.891c0.609-0.128,1.403-0.267,2.034-0.355c0.443-0.056,0.994-0.098,1.417-0.13
					C41.294-0.014,42.015,0,42.594,0.01l0.2,0.003c0.304,0.008,0.646,0.041,0.974,0.076c0.143,0.015,0.282,0.029,0.406,0.039
					c0.59,0.051,1.34,0.18,2.247,0.384c0.391,0.094,0.89,0.227,1.254,0.338c0.43,0.138,0.928,0.302,1.305,0.461
					c0.608,0.256,1.395,0.622,1.999,0.93c0.269,0.134,0.612,0.348,0.911,0.537l0.145,0.092c0.284,0.167,0.694,0.447,1.03,0.704
					c0.426,0.332,0.961,0.772,1.345,1.123c0.62,0.579,1.188,1.194,1.687,1.821c0.367,0.463,0.626,0.846,0.774,1.066l0.057,0.084
					c0.284,0.43,0.286,0.429,0.738,1.255c0.268,0.472,0.704,1.436,0.919,2.037c0.157,0.451,0.333,1.032,0.454,1.472
					c0.077,0.248,0.17,0.645,0.223,0.948c0.048,0.248,0.113,0.606,0.156,0.888c0.026,0.208,0.044,0.382,0.061,0.557l0.039,0.377
					c0.042,0.33,0.063,0.773,0.063,1.302v0.079c0,0.032,0,0.065-0.001,0.098c0.001,0.018,0.001,0.035,0.001,0.053
					c0,0.305-0.003,0.658-0.026,0.939c-0.03,0.454-0.096,1.118-0.161,1.607c-0.062,0.41-0.144,0.868-0.246,1.303
					c-0.08,0.396-0.196,0.85-0.313,1.233l-0.046,0.15c-0.075,0.245-0.162,0.526-0.248,0.787c-0.016,0.053-0.052,0.153-0.09,0.251
					c-0.176,0.478-0.395,0.981-0.558,1.354c-0.265,0.614-0.7,1.446-1.105,2.108c-0.434,0.712-1.09,1.654-1.67,2.397
					c-0.444,0.562-1.049,1.232-1.55,1.721c-0.525,0.526-1.104,1.086-1.643,1.498c-0.158,0.12-0.345,0.27-0.53,0.419
					c-0.253,0.203-0.504,0.39-0.728,0.538c-0.438,0.309-1.175,0.797-1.795,1.155c-0.225,0.138-0.57,0.332-0.833,0.47l-0.246,0.125
					c-0.244,0.125-0.514,0.261-0.74,0.361c-0.489,0.219-1.152,0.503-1.658,0.702c-0.324,0.121-0.711,0.251-1,0.348l-0.212,0.063
					c-0.266,0.079-0.574,0.171-0.816,0.234c-0.011,0.003-0.105,0.025-0.116,0.028c-0.369,0.09-0.804,0.195-1.211,0.282l-0.333,0.064
					c-0.337,0.075-0.711,0.131-1.022,0.175l-0.261,0.036c-0.047,0.007-0.173,0.021-0.22,0.024c-0.121,0.008-0.249,0.024-0.37,0.039
					c-0.085,0.014-0.233,0.029-0.378,0.034c-0.51,0.03-1.169,0.06-1.67,0.071c-0.26-0.024-0.562-0.012-0.82-0.021l-0.243-0.01
					c-0.483-0.013-1.5-0.116-2.033-0.209l-0.172-0.029c-0.304-0.051-0.652-0.111-0.927-0.178c-0.354-0.08-0.82-0.189-1.243-0.309
					l-0.159-0.047c-0.102-0.028-0.2-0.057-0.299-0.09c-0.296-0.089-0.762-0.252-1.111-0.392c-0.238-0.09-0.568-0.229-0.863-0.357
					c-0.356-0.062-1.501-0.093-2.813,0.663c-0.428,0.233-0.744,0.386-1.01,0.49c-0.045,0.018-0.09,0.033-0.136,0.048l-0.53,0.17
					c-0.034,0.011-0.069,0.021-0.104,0.029l-0.405,0.094c-0.053,0.013-0.105,0.023-0.159,0.032c-0.255,0.04-0.589,0.079-0.842,0.092
					c-0.1,0.009-0.296,0.012-0.458,0.013c-0.321,0.014-0.705-0.015-1.035-0.075c-0.259-0.036-0.56-0.101-0.812-0.157
					c-0.014-0.003-0.099-0.021-0.111-0.024c-0.17-0.042-0.39-0.117-0.561-0.18c-0.413-0.138-0.854-0.352-1.023-0.437
					c-0.168-0.083-0.37-0.202-0.555-0.313l-0.13-0.077c-0.062-0.038-0.129-0.081-0.194-0.124L15.08,38.16
					c0.033,0.242,0.05,0.487,0.05,0.732C15.13,41.892,12.689,44.332,9.69,44.332z M8.938,40.12c0.018,0.009,0.034,0.019,0.051,0.028
					c0.219,0.122,0.454,0.184,0.702,0.184c0.794,0,1.439-0.646,1.439-1.439c0-0.239-0.062-0.479-0.181-0.694
					c-0.524-0.95-0.194-2.146,0.743-2.693l6.5-3.79c0.768-0.445,1.729-0.335,2.374,0.267c0.157,0.147,0.354,0.297,0.46,0.38
					c0.024,0.02,0.056,0.043,0.09,0.072c0.058,0.04,0.116,0.082,0.164,0.111l0.143,0.085c0.092,0.055,0.191,0.118,0.278,0.161
					c0.151,0.076,0.354,0.171,0.512,0.224c0.018,0.006,0.078,0.028,0.096,0.034c0.049,0.018,0.107,0.041,0.16,0.057
					c0.169,0.036,0.362,0.083,0.521,0.103c0.048,0.006,0.095,0.014,0.143,0.023c0.039,0.007,0.135,0.014,0.173,0.014
					c0.053-0.002,0.142-0.003,0.203-0.003c0.048,0,0.099,0,0.142-0.003c0.155-0.009,0.299-0.026,0.416-0.043l0.611-0.176
					c0.151-0.063,0.328-0.159,0.467-0.235c2.343-1.352,4.701-1.38,5.998-0.985c0.072,0.021,0.144,0.048,0.213,0.078
					c0.272,0.117,0.607,0.264,0.871,0.363c0.288,0.115,0.623,0.231,0.874,0.308l0.379,0.112c0.312,0.088,0.706,0.178,1.026,0.251
					c0.216,0.053,0.458,0.091,0.669,0.126l0.194,0.033c0.367,0.063,1.189,0.145,1.473,0.152l0.288,0.011
					c0.203,0.009,0.427,0.019,0.61,0.019c0.423-0.01,1.04-0.038,1.507-0.066c0.041-0.003,0.082-0.004,0.123-0.004
					c0.152-0.026,0.331-0.048,0.506-0.061l0.244-0.034c0.215-0.031,0.475-0.065,0.671-0.108c0.046-0.013,0.166-0.037,0.291-0.06
					l0.114-0.022c0.376-0.08,0.771-0.177,1.108-0.258c0.254-0.065,0.513-0.143,0.736-0.209l0.152-0.046
					c0.185-0.062,0.519-0.173,0.768-0.267c0.421-0.166,1.018-0.423,1.463-0.622c0.173-0.076,0.371-0.179,0.553-0.271l0.239-0.121
					c0.163-0.085,0.419-0.23,0.614-0.35c0.459-0.265,1.064-0.656,1.582-1.02c0.179-0.119,0.328-0.233,0.479-0.354
					c0.209-0.168,0.423-0.339,0.604-0.478c0.403-0.308,1.004-0.908,1.261-1.165c0.395-0.386,0.888-0.933,1.217-1.348
					c0.477-0.61,1.043-1.423,1.399-2.008c0.307-0.502,0.656-1.167,0.852-1.622c0.142-0.32,0.323-0.736,0.441-1.053l0.048-0.131
					c0.106-0.316,0.184-0.567,0.25-0.784l0.046-0.149c0.082-0.271,0.165-0.597,0.232-0.923c0.09-0.384,0.148-0.725,0.191-1.007
					c0.051-0.379,0.104-0.936,0.133-1.346c0-0.001,0-0.001,0-0.002c-0.019-0.15-0.02-0.304-0.003-0.46
					c0.005-0.042,0.008-0.084,0.011-0.126c0.001-0.036,0.003-0.072,0.006-0.107c0.001-0.03,0.001-0.061,0.001-0.091v-0.079
					c0-0.246-0.004-0.576-0.034-0.822l-0.091-0.868c-0.028-0.174-0.084-0.476-0.129-0.713c-0.034-0.191-0.08-0.395-0.128-0.551
					c-0.115-0.416-0.26-0.896-0.386-1.256c-0.154-0.43-0.5-1.173-0.642-1.423c-0.362-0.662-0.36-0.663-0.561-0.967l-0.058-0.085
					c-0.113-0.169-0.31-0.46-0.588-0.812c-0.373-0.468-0.813-0.946-1.241-1.346c-0.017-0.016-0.062-0.058-0.077-0.074
					c-0.252-0.228-0.695-0.588-1.029-0.851c-0.185-0.141-0.457-0.329-0.668-0.454l-0.204-0.129
					c-0.184-0.116-0.392-0.254-0.566-0.341c-0.534-0.272-1.232-0.597-1.755-0.817c-0.279-0.117-0.646-0.232-0.934-0.324
					c-0.279-0.085-0.681-0.192-0.976-0.263c-0.674-0.152-1.29-0.261-1.666-0.294c-0.14-0.011-0.317-0.028-0.498-0.048
					c-0.221-0.022-0.449-0.05-0.642-0.055l-0.188-0.003c-0.501-0.011-1.124-0.021-1.541,0.009c-0.403,0.03-0.877,0.065-1.232,0.109
					c-0.498,0.07-1.194,0.191-1.725,0.303c-0.599,0.13-1.516,0.408-2.442,0.743c-0.515,0.184-1.156,0.462-1.568,0.679l-0.454,0.239
					c-0.289,0.151-0.598,0.312-0.847,0.457c-0.316,0.19-0.811,0.488-1.387,0.9c-0.388,0.277-0.883,0.673-1.249,0.977
					c-0.228,0.178-0.448,0.377-0.615,0.535l-0.124,0.117c-0.132,0.124-0.287,0.268-0.398,0.386
					c-0.225,0.226-0.456,0.476-0.626,0.663c-0.189,0.2-0.385,0.425-0.517,0.597c-0.312,0.394-0.691,0.896-0.967,1.274
					c-0.109,0.16-0.292,0.436-0.421,0.651c-0.131,0.217-0.288,0.489-0.422,0.723l-0.053,0.091c-0.067,0.132-0.21,0.408-0.315,0.618
					c-0.131,0.253-0.267,0.562-0.369,0.801c-0.151,0.372-0.353,0.933-0.491,1.346c-0.08,0.242-0.179,0.585-0.236,0.839
					c-0.093,0.355-0.178,0.746-0.229,1.043c-0.027,0.171-0.058,0.396-0.088,0.623l-0.047,0.337c-0.006,0.07-0.015,0.141-0.023,0.211
					l-0.011,0.089c-0.01,0.126-0.03,0.255-0.062,0.372c-0.061,0.227-0.165,0.517-0.226,0.668c-0.162,0.368-0.247,0.524-0.368,0.746
					c-0.042,0.075-0.133,0.229-0.184,0.299c-0.039,0.07-0.173,0.281-0.334,0.492c-0.127,0.178-0.127,0.179-0.42,0.532
					c-0.04,0.049-0.082,0.095-0.126,0.139c-0.12,0.132-0.295,0.32-0.512,0.52c-0.184,0.174-0.184,0.175-0.59,0.51
					c-0.094,0.083-0.3,0.229-0.457,0.334c-0.145,0.1-0.372,0.251-0.557,0.371c-0.042,0.027-0.086,0.053-0.13,0.077
					c-0.124,0.08-0.255,0.166-0.364,0.241c-0.002,0.005-0.047,0.046-0.085,0.08c-0.058,0.052-0.227,0.203-0.392,0.407
					c-0.318,0.396-0.47,0.765-0.587,1.104c-0.011,0.039-0.039,0.147-0.065,0.249l-0.071,0.267l0.001,0.047l-0.021,0.141
					c-0.025,0.19-0.039,0.41-0.034,0.619c0.005,0.263,0.026,0.486,0.041,0.596c0.007,0.033,0.013,0.066,0.018,0.101
					c0.026,0.178,0.043,0.29,0.076,0.414c0.229,0.869-0.151,1.784-0.928,2.237l-8.65,5.04c-0.83,0.481-1.887,0.307-2.517-0.416
					c-0.05-0.058-0.101-0.114-0.158-0.16l0,0c-0.029-0.023-0.059-0.049-0.087-0.073c-0.069-0.058-0.147-0.105-0.227-0.141
					c-0.037-0.017-0.073-0.034-0.109-0.053c-0.056-0.015-0.124-0.039-0.184-0.061c-0.072-0.015-0.144-0.032-0.214-0.054
					c-0.043,0.007-0.102,0-0.161-0.001c-0.794,0-1.44,0.646-1.44,1.439c0,0.065,0.008,0.136,0.014,0.201
					c0.026,0.104,0.029,0.114,0.039,0.222c0.014,0.03,0.027,0.061,0.04,0.093c0.01,0.021,0.019,0.04,0.027,0.06
					c0.021,0.049,0.038,0.096,0.066,0.142c0.106,0.18,0.169,0.239,0.186,0.254c0.049,0.042,0.096,0.087,0.141,0.135
					c0.051,0.034,0.1,0.07,0.147,0.109c0.438,0.264,0.856,0.273,1.108,0.195c0.607-0.189,1.268-0.076,1.778,0.3
					c0.348,0.257,0.599,0.615,0.724,1.018c0.016,0.045,0.029,0.092,0.042,0.138c0.022,0.086,0.054,0.165,0.093,0.24
					c0.045,0.063,0.086,0.129,0.12,0.193c0.104,0.125,0.161,0.183,0.214,0.224C8.789,40.005,8.879,40.075,8.938,40.12z
					 M8.817,40.062c0.001,0,0.001,0.001,0.002,0.001C8.818,40.063,8.818,40.062,8.817,40.062z M4.436,37.506
					C4.436,37.506,4.436,37.506,4.436,37.506S4.436,37.506,4.436,37.506z M5.993,35.093c0.001,0,0.002,0,0.002,0
					S5.994,35.093,5.993,35.093z M5.92,35.085c0,0,0.001,0,0.002,0.001C5.921,35.085,5.92,35.085,5.92,35.085z"/>
			</g>
		</g>
		<g>
			<g>
				<g>
					<path fill="#FFFFFF" d="M41.618,36.353c-0.691,0-1.314-0.481-1.465-1.187c-0.022-0.105-0.033-0.212-0.033-0.315
						c0-0.692,0.482-1.314,1.187-1.465c0.375-0.08,0.775-0.178,1.116-0.261c0.014-0.003,0.027-0.007,0.042-0.01
						c0.002,0,0.004-0.001,0.006-0.001l0,0c0.784-0.16,1.602,0.308,1.801,1.086c0.204,0.796-0.229,1.598-1.021,1.811
						c-0.393,0.105-0.87,0.213-1.316,0.309C41.828,36.342,41.723,36.353,41.618,36.353z"/>
				</g>
				<g>
					<path fill="#FFFFFF" d="M57.553,18.622c-0.064,0-0.129-0.004-0.194-0.013c-0.81-0.104-1.387-0.838-1.299-1.649
						c0.014-0.126,0.021-0.252,0.021-0.378c0-0.828,0.672-1.5,1.5-1.5s1.5,0.672,1.5,1.5v0.15c0,0.204-0.016,0.408-0.046,0.612
						C58.923,18.087,58.284,18.622,57.553,18.622z"/>
				</g>
				<g>
					<path fill="#FFFFFF" d="M56.641,23.622c-0.164,0-0.33-0.026-0.493-0.084c-0.774-0.27-1.188-1.111-0.931-1.889
						c0.078-0.235,0.156-0.489,0.224-0.71l0.046-0.148c0.084-0.275,0.168-0.604,0.237-0.934c0-0.001,0-0.001,0-0.002
						c0,0,0.001-0.003,0.001-0.005c0,0,0,0,0-0.001c0.002-0.01,0.004-0.02,0.006-0.028c0.166-0.812,0.964-1.333,1.771-1.169
						c0.711,0.146,1.2,0.771,1.199,1.469c0,0.1-0.01,0.201-0.03,0.302c-0.087,0.424-0.194,0.846-0.292,1.203
						c-0.079,0.294-0.204,0.669-0.328,1.01C57.828,23.244,57.254,23.622,56.641,23.622z"/>
				</g>
			</g>
			<g>
				<path fill="#FFFFFF" d="M9.69,43.832c-0.822,0-1.637-0.208-2.36-0.602c-0.149-0.072-0.295-0.162-0.45-0.277
					c-0.121-0.08-0.241-0.172-0.347-0.263c-0.221-0.17-0.476-0.424-0.7-0.709c-0.074-0.089-0.194-0.242-0.312-0.436
					c-0.021-0.029-0.042-0.059-0.06-0.088c-0.011-0.019-0.022-0.037-0.033-0.056C4.564,41.4,3.721,41.175,2.987,40.75
					c-0.163-0.095-0.328-0.204-0.482-0.325c-0.174-0.116-0.34-0.257-0.495-0.419c-0.307-0.279-0.575-0.616-0.818-1.026
					c-0.105-0.171-0.194-0.355-0.28-0.554l0,0l0,0C0.8,38.187,0.717,37.942,0.664,37.7c-0.029-0.104-0.062-0.241-0.082-0.384
					c-0.022-0.104-0.037-0.203-0.051-0.312C0.512,36.779,0.5,36.609,0.5,36.452c0-2.724,2.216-4.939,4.94-4.939
					c0.166,0,0.332,0.012,0.483,0.025c0.194,0.015,0.391,0.046,0.575,0.094c0.163,0.027,0.303,0.07,0.418,0.111
					c0.104,0.03,0.209,0.067,0.313,0.106c0.124,0.046,0.244,0.098,0.362,0.161c0.237,0.11,0.464,0.24,0.679,0.39l6.813-3.97
					c-0.021-0.204-0.038-0.459-0.045-0.777c-0.008-0.394,0.017-0.796,0.072-1.199l0.021-0.143c0.021-0.146,0.048-0.309,0.079-0.435
					l0.067-0.254c0.041-0.156,0.085-0.32,0.128-0.459c0.21-0.614,0.521-1.381,1.185-2.203c0.32-0.398,0.639-0.692,0.761-0.8
					c0.15-0.134,0.31-0.271,0.441-0.364c0.187-0.128,0.401-0.268,0.584-0.386c0.032-0.021,0.066-0.04,0.101-0.059
					c0.138-0.091,0.289-0.191,0.409-0.275c0.065-0.043,0.121-0.078,0.165-0.113c0.312-0.258,0.312-0.257,0.457-0.394
					c0.148-0.136,0.254-0.253,0.31-0.314c0.016-0.017,0.031-0.033,0.047-0.05c0.169-0.203,0.175-0.211,0.277-0.353
					c0.104-0.138,0.171-0.245,0.209-0.307c0.006-0.01,0.015-0.024,0.026-0.041c0.103-0.188,0.153-0.281,0.229-0.452
					c0.003-0.008,0.021-0.06,0.041-0.12l0.085-0.67c0.035-0.259,0.069-0.515,0.104-0.729c0.068-0.403,0.18-0.915,0.28-1.295
					c0.067-0.302,0.203-0.778,0.316-1.119c0.161-0.48,0.395-1.129,0.585-1.595c0.144-0.334,0.322-0.733,0.477-1.033
					c0.105-0.21,0.26-0.51,0.374-0.728l0.081-0.142c0.145-0.251,0.314-0.545,0.452-0.774c0.162-0.271,0.395-0.625,0.57-0.879
					c0.322-0.444,0.738-0.995,1.06-1.399c0.185-0.24,0.476-0.578,0.709-0.823c0.181-0.199,0.462-0.502,0.679-0.718
					c0.12-0.129,0.334-0.331,0.518-0.504l0.109-0.103c0.238-0.228,0.562-0.516,0.829-0.723c0.391-0.324,0.964-0.78,1.409-1.099
					c0.688-0.492,1.279-0.849,1.597-1.039c0.35-0.206,0.713-0.396,1.053-0.574l0.432-0.228c0.57-0.3,1.361-0.644,2.026-0.882
					c0.506-0.183,1.812-0.638,2.897-0.872c0.597-0.126,1.378-0.263,1.998-0.35c0.429-0.054,0.97-0.095,1.385-0.127
					c0.632-0.044,1.339-0.03,1.908-0.021l0.202,0.003c0.287,0.008,0.615,0.04,0.93,0.073c0.147,0.016,0.291,0.03,0.42,0.041
					c0.698,0.06,1.566,0.235,2.175,0.373c0.376,0.09,0.862,0.22,1.218,0.328c0.41,0.132,0.893,0.289,1.256,0.442
					c0.591,0.249,1.382,0.617,1.968,0.916c0.258,0.128,0.585,0.332,0.869,0.513l0.147,0.093c0.278,0.165,0.671,0.433,0.993,0.678
					c0.411,0.322,0.935,0.752,1.311,1.096c0.599,0.56,1.148,1.156,1.632,1.764c0.356,0.448,0.607,0.819,0.752,1.034l0.06,0.089
					c0.271,0.409,0.271,0.408,0.711,1.211c0.26,0.458,0.679,1.386,0.886,1.965c0.153,0.438,0.326,1.007,0.444,1.437
					c0.075,0.244,0.161,0.615,0.211,0.901c0.049,0.251,0.112,0.602,0.155,0.878c0.023,0.188,0.041,0.359,0.058,0.529l0.04,0.386
					c0.049,0.394,0.06,0.896,0.06,1.244v0.079c0,0.034,0,0.067-0.001,0.102c0.001,0.016,0.001,0.032,0.001,0.049
					c0,0.291-0.002,0.629-0.024,0.897c-0.031,0.452-0.095,1.103-0.159,1.583c-0.059,0.39-0.137,0.833-0.236,1.255
					c-0.08,0.394-0.192,0.831-0.306,1.202l-0.046,0.149c-0.074,0.241-0.159,0.52-0.244,0.775c-0.016,0.055-0.049,0.144-0.082,0.23
					c-0.005,0.015-0.03,0.084-0.036,0.099c-0.139,0.375-0.353,0.868-0.513,1.232c-0.257,0.598-0.681,1.405-1.073,2.049
					c-0.426,0.698-1.068,1.621-1.638,2.351c-0.431,0.543-1.019,1.195-1.505,1.67c-0.519,0.519-1.081,1.064-1.598,1.459
					c-0.16,0.123-0.351,0.274-0.54,0.427c-0.239,0.192-0.478,0.37-0.69,0.511c-0.44,0.31-1.162,0.789-1.769,1.14
					c-0.227,0.138-0.561,0.326-0.815,0.46l-0.24,0.122c-0.236,0.12-0.497,0.252-0.717,0.35c-0.484,0.217-1.139,0.497-1.639,0.694
					c-0.31,0.116-0.69,0.243-0.975,0.338l-0.196,0.06c-0.261,0.077-0.563,0.167-0.8,0.229c-0.009,0.002-0.101,0.024-0.108,0.026
					c-0.365,0.089-0.795,0.193-1.197,0.279l-0.344,0.067c-0.318,0.07-0.679,0.124-0.978,0.166l-0.256,0.036
					c-0.035,0.005-0.149,0.019-0.186,0.021c-0.13,0.008-0.269,0.025-0.399,0.042c-0.094,0.015-0.258,0.031-0.401,0.031
					c-0.416,0.028-1.089,0.059-1.597,0.07c-0.005,0-0.009,0-0.013,0c-0.256,0-0.528-0.011-0.775-0.021l-0.247-0.01
					c-0.461-0.012-1.459-0.114-1.965-0.202l-0.175-0.029c-0.293-0.049-0.628-0.106-0.892-0.17c-0.354-0.081-0.811-0.188-1.226-0.305
					l-0.159-0.047c-0.094-0.026-0.185-0.053-0.276-0.083c-0.297-0.089-0.746-0.246-1.083-0.381
					c-0.253-0.095-0.598-0.242-0.897-0.372c-0.388-0.085-1.714-0.157-3.216,0.709c-0.303,0.165-0.66,0.347-0.942,0.457
					c-0.033,0.014-0.067,0.025-0.102,0.036l-1.01,0.284c-0.04,0.01-0.08,0.018-0.12,0.024c-0.238,0.038-0.551,0.074-0.788,0.087
					c-0.112,0.01-0.321,0.012-0.478,0.012c-0.232,0.018-0.595-0.011-0.91-0.068c-0.248-0.035-0.54-0.098-0.783-0.151
					c-0.01-0.003-0.092-0.021-0.102-0.023c-0.153-0.037-0.353-0.106-0.508-0.162c-0.406-0.137-0.846-0.352-0.97-0.414
					c-0.158-0.079-0.349-0.191-0.521-0.295l-0.135-0.081c-0.138-0.083-0.302-0.197-0.425-0.284l-4.528,2.64
					c0.067,0.326,0.102,0.657,0.102,0.99C14.63,41.616,12.414,43.832,9.69,43.832z M7.98,39.822
					c0.039,0.054,0.074,0.109,0.104,0.164c0.023,0.041,0.056,0.077,0.085,0.113c0.094,0.118,0.178,0.203,0.263,0.27l0.101,0.08
					c0.04,0.025,0.087,0.057,0.124,0.086c0.044,0.02,0.046,0.025,0.088,0.049c0.294,0.165,0.612,0.248,0.946,0.248
					c1.069,0,1.939-0.87,1.939-1.939c0-0.324-0.084-0.647-0.243-0.936c-0.394-0.713-0.146-1.61,0.558-2.021l6.5-3.79
					c0.572-0.331,1.296-0.253,1.78,0.2c0.17,0.159,0.38,0.32,0.494,0.409c0.026,0.02,0.058,0.045,0.093,0.074
					c0.072,0.051,0.149,0.105,0.208,0.141l0.146,0.087c0.104,0.062,0.216,0.133,0.313,0.182c0.169,0.084,0.397,0.19,0.576,0.25
					c0.142,0.051,0.215,0.08,0.277,0.097c0.211,0.047,0.423,0.097,0.596,0.118c0.036,0.005,0.071,0.011,0.106,0.018
					c0.087,0.018,0.232,0.03,0.296,0.022c0.164-0.002,0.275,0,0.359-0.007c0.166-0.009,0.334-0.029,0.47-0.05l0.691-0.197
					c0.171-0.07,0.374-0.18,0.533-0.266c2.371-1.368,4.646-1.238,5.613-0.947c0.055,0.017,0.107,0.036,0.16,0.06
					c0.278,0.12,0.623,0.271,0.893,0.372c0.291,0.116,0.643,0.238,0.905,0.318l0.377,0.111c0.332,0.094,0.734,0.187,1.062,0.262
					c0.22,0.053,0.476,0.094,0.698,0.131l0.191,0.032c0.392,0.068,1.24,0.151,1.544,0.16l0.281,0.011
					c0.21,0.009,0.441,0.019,0.631,0.019c0.439-0.01,1.065-0.038,1.537-0.067c0.017-0.003,0.115-0.011,0.131-0.013
					c0.17-0.021,0.349-0.041,0.52-0.054l0.263-0.036c0.228-0.032,0.501-0.069,0.708-0.115c0.052-0.014,0.16-0.035,0.273-0.056
					l0.131-0.025c0.379-0.081,0.779-0.179,1.12-0.262c0.267-0.068,0.532-0.147,0.761-0.216l0.151-0.045
					c0.206-0.069,0.546-0.183,0.801-0.277c0.436-0.172,1.041-0.433,1.492-0.634c0.179-0.08,0.387-0.187,0.576-0.283l0.235-0.119
					c0.18-0.094,0.447-0.245,0.651-0.369c0.46-0.267,1.08-0.667,1.608-1.038c0.179-0.119,0.341-0.242,0.504-0.372
					c0.207-0.166,0.417-0.335,0.596-0.471c0.429-0.328,1.024-0.923,1.311-1.209c0.403-0.395,0.914-0.961,1.255-1.391
					c0.489-0.627,1.069-1.458,1.435-2.059c0.322-0.526,0.677-1.202,0.884-1.684c0.144-0.325,0.33-0.752,0.451-1.078l0.046-0.126
					c0.004-0.014,0.033-0.092,0.037-0.105c0.078-0.235,0.156-0.489,0.224-0.71l0.046-0.148c0.087-0.285,0.174-0.627,0.244-0.97
					c0.09-0.383,0.152-0.738,0.196-1.032c0.054-0.396,0.109-0.967,0.137-1.387c0.002-0.018,0.003-0.035,0.005-0.052
					c-0.02-0.127-0.023-0.258-0.009-0.391c0.014-0.126,0.021-0.252,0.021-0.378v-0.079c0-0.265-0.005-0.62-0.038-0.884l-0.091-0.866
					c-0.03-0.195-0.088-0.505-0.135-0.748c-0.034-0.2-0.087-0.429-0.141-0.603c-0.114-0.412-0.262-0.904-0.392-1.274
					c-0.156-0.437-0.511-1.209-0.679-1.505c-0.371-0.679-0.37-0.68-0.577-0.995l-0.062-0.089c-0.117-0.175-0.321-0.479-0.61-0.843
					c-0.274-0.345-0.721-0.867-1.292-1.4c-0.341-0.312-0.796-0.684-1.139-0.953c-0.204-0.155-0.496-0.356-0.722-0.491l-0.191-0.12
					c-0.197-0.126-0.423-0.272-0.611-0.366c-0.54-0.275-1.251-0.606-1.783-0.83c-0.291-0.123-0.675-0.244-0.975-0.341
					c-0.295-0.09-0.709-0.2-1.013-0.272c-0.712-0.161-1.336-0.271-1.739-0.306c-0.141-0.011-0.312-0.028-0.489-0.047
					c-0.233-0.024-0.477-0.052-0.68-0.058l-0.193-0.003c-0.51-0.01-1.146-0.021-1.584,0.01c-0.414,0.031-0.897,0.067-1.26,0.112
					C39.17,3.704,38.46,3.827,37.92,3.94c-0.622,0.135-1.563,0.42-2.51,0.763c-0.54,0.192-1.193,0.476-1.631,0.706l-0.453,0.238
					c-0.296,0.155-0.613,0.32-0.868,0.469c-0.327,0.198-0.833,0.502-1.425,0.926c-0.396,0.282-0.902,0.688-1.277,0.997
					c-0.228,0.179-0.464,0.391-0.641,0.56l-0.121,0.114c-0.14,0.131-0.303,0.282-0.421,0.407c-0.219,0.219-0.457,0.477-0.632,0.67
					c-0.192,0.202-0.401,0.444-0.543,0.628c-0.312,0.393-0.696,0.902-0.975,1.286c-0.122,0.178-0.312,0.463-0.446,0.688
					c-0.131,0.219-0.29,0.494-0.426,0.729L25.5,13.212c-0.078,0.151-0.223,0.432-0.329,0.644c-0.134,0.257-0.275,0.578-0.382,0.828
					c-0.159,0.39-0.365,0.962-0.506,1.385c-0.085,0.256-0.189,0.619-0.25,0.886c-0.092,0.353-0.182,0.761-0.234,1.07
					c-0.028,0.179-0.06,0.408-0.091,0.64l-0.053,0.388l0,0c0.003,0-0.008,0.083-0.018,0.165l-0.013,0.107
					c-0.007,0.098-0.022,0.198-0.046,0.287c-0.056,0.207-0.151,0.472-0.207,0.61c-0.147,0.335-0.228,0.482-0.343,0.691
					c-0.031,0.057-0.11,0.193-0.148,0.245c-0.055,0.092-0.178,0.287-0.328,0.484c-0.128,0.178-0.127,0.179-0.407,0.517
					c-0.032,0.039-0.066,0.076-0.102,0.111c-0.117,0.127-0.283,0.308-0.49,0.497c-0.18,0.17-0.179,0.171-0.569,0.492
					c-0.09,0.08-0.274,0.21-0.415,0.303c-0.148,0.103-0.371,0.251-0.552,0.368c-0.037,0.024-0.074,0.046-0.113,0.066
					c-0.133,0.086-0.274,0.179-0.394,0.261c-0.031,0.024-0.087,0.077-0.134,0.118c-0.136,0.121-0.303,0.287-0.447,0.467
					c-0.368,0.456-0.546,0.891-0.671,1.256c-0.018,0.059-0.048,0.175-0.076,0.285l-0.069,0.257c0-0.004,0,0.029-0.012,0.109
					l-0.021,0.134c-0.031,0.229-0.046,0.474-0.041,0.709c0.006,0.303,0.031,0.559,0.048,0.669c0.006,0.03,0.012,0.061,0.016,0.091
					c0.03,0.201,0.051,0.327,0.088,0.468c0.171,0.652-0.113,1.339-0.696,1.678l-8.65,5.04c-0.622,0.363-1.415,0.231-1.887-0.312
					c-0.07-0.081-0.144-0.158-0.225-0.223h0.001c-0.025-0.021-0.05-0.041-0.073-0.062c-0.107-0.09-0.225-0.163-0.35-0.219
					c-0.049-0.021-0.096-0.046-0.142-0.072c-0.054-0.013-0.159-0.046-0.222-0.068c-0.067-0.011-0.134-0.026-0.199-0.047
					c-0.16-0.016-0.234-0.023-0.309-0.023c-1.07,0-1.94,0.87-1.94,1.939c0,0.078,0.009,0.163,0.015,0.242
					c0.021,0.078,0.033,0.145,0.04,0.225l0.021,0.063c0.034,0.072,0.069,0.172,0.101,0.278c0.025,0.059,0.051,0.114,0.084,0.169
					c0.104,0.175,0.196,0.294,0.284,0.37c0.046,0.04,0.09,0.083,0.131,0.128c0.043,0.028,0.084,0.059,0.123,0.09
					c0.015,0.012,0.03,0.024,0.045,0.036c0.046,0.038,0.097,0.07,0.147,0.1c0.438,0.254,1.037,0.307,1.427,0.187
					c0.452-0.142,0.949-0.058,1.333,0.226c0.264,0.193,0.452,0.465,0.545,0.771c0.014,0.036,0.024,0.073,0.034,0.11
					C7.865,39.58,7.915,39.704,7.98,39.822z M6.043,34.596L6.043,34.596L6.043,34.596z"/>
			</g>
		</g>
	</g>
	<g>
		<g>
			<g>
				<path fill="#F18700" d="M57.532,15.434c-0.027-0.26-0.06-0.606-0.097-0.865c-0.035-0.254-0.099-0.59-0.145-0.842
					c-0.042-0.231-0.112-0.537-0.176-0.764c-0.114-0.401-0.278-0.934-0.416-1.327c-0.186-0.533-0.575-1.38-0.787-1.758
					c-0.406-0.726-0.406-0.726-0.635-1.075C55.17,8.64,54.92,8.258,54.528,7.762c-0.735-0.929-1.424-1.549-1.467-1.587
					c-0.353-0.318-0.84-0.723-1.216-1.013c-0.252-0.195-0.603-0.436-0.874-0.604c-0.267-0.165-0.62-0.392-0.9-0.534
					c-0.554-0.28-1.303-0.633-1.874-0.872c-0.324-0.136-0.77-0.281-1.104-0.385c-0.332-0.103-0.778-0.227-1.116-0.304
					c-0.581-0.132-1.361-0.293-1.955-0.344c-0.378-0.032-0.882-0.093-1.261-0.104c-0.576-0.018-1.346-0.035-1.92,0.008
					c-0.402,0.03-0.939,0.064-1.339,0.121c-0.569,0.08-1.325,0.211-1.888,0.331c-0.831,0.178-1.912,0.531-2.713,0.816
					c-0.56,0.2-1.292,0.509-1.816,0.788c-0.416,0.223-0.979,0.504-1.383,0.745c-0.306,0.182-0.875,0.521-1.546,1
					c-0.42,0.3-0.959,0.729-1.359,1.054c-0.222,0.18-0.504,0.436-0.713,0.63c-0.186,0.173-0.429,0.406-0.607,0.587
					c-0.199,0.202-0.456,0.48-0.65,0.687c-0.195,0.207-0.442,0.497-0.62,0.719c-0.309,0.388-0.705,0.918-0.993,1.321
					c-0.166,0.232-0.372,0.555-0.521,0.8c-0.151,0.249-0.347,0.585-0.487,0.84c-0.118,0.213-0.262,0.505-0.374,0.722
					c-0.138,0.267-0.301,0.634-0.416,0.911c-0.185,0.442-0.403,1.044-0.556,1.498c-0.102,0.304-0.216,0.715-0.293,1.026
					c-0.085,0.342-0.189,0.802-0.246,1.15c-0.053,0.317-0.104,0.71-0.146,1.075c-0.016,0.117-0.029,0.235-0.04,0.356
					c-0.032,0.148-0.112,0.363-0.156,0.466c-0.115,0.268-0.184,0.387-0.308,0.604c-0.024,0.043-0.148,0.249-0.305,0.462
					c-0.132,0.18-0.132,0.18-0.379,0.472c-0.002,0.002-0.188,0.219-0.445,0.461c-0.172,0.162-0.172,0.162-0.507,0.436
					c-0.084,0.069-0.2,0.155-0.29,0.216c-0.162,0.109-0.382,0.25-0.549,0.353l0,0c-0.164,0.1-0.377,0.241-0.531,0.354
					c-0.1,0.071-0.222,0.179-0.314,0.259c-0.012,0.01-0.3,0.259-0.588,0.619c-0.537,0.672-0.784,1.3-0.924,1.714
					c-0.062,0.183-0.122,0.434-0.166,0.621c-0.027,0.12-0.052,0.283-0.07,0.405c-0.011,0.076-0.066,0.481-0.061,0.979
					c0.007,0.521,0.073,0.93,0.076,0.947c0.08,0.487,0.11,0.646,0.275,1.196c0.034,0.115,0.086,0.268,0.13,0.38
					c0.086,0.219,0.204,0.511,0.305,0.724c0.051,0.106,0.119,0.247,0.177,0.35c0.057,0.103,0.132,0.24,0.191,0.341
					s0.144,0.232,0.206,0.331c0.109,0.176,0.136,0.211,0.46,0.641c0.071,0.095,0.176,0.213,0.251,0.304
					c0.182,0.217,0.46,0.485,0.565,0.587c0.301,0.29,0.719,0.596,0.723,0.599c0.102,0.072,0.237,0.17,0.344,0.235
					c0.167,0.103,0.391,0.237,0.565,0.325c0.225,0.111,0.528,0.256,0.767,0.332c0.119,0.038,0.274,0.096,0.396,0.126
					c0.228,0.056,0.533,0.121,0.765,0.158c0.2,0.033,0.471,0.055,0.674,0.051c0.121-0.003,0.282,0,0.403-0.011
					c0.188-0.016,0.438-0.041,0.623-0.076c0.119-0.023,0.277-0.057,0.394-0.089c0.16-0.046,0.372-0.114,0.528-0.172
					c0.23-0.085,0.521-0.239,0.738-0.354c1.962-1.134,3.769-1.046,4.464-0.838c0.301,0.136,0.671,0.294,0.96,0.407
					c0.296,0.114,0.695,0.256,0.999,0.348c0.458,0.138,1.075,0.295,1.541,0.402c0.289,0.066,0.681,0.127,0.974,0.177
					c0.455,0.078,1.372,0.168,1.757,0.181c0.283,0.009,0.661,0.03,0.944,0.026c0.49-0.008,1.145-0.034,1.634-0.067
					c0.28-0.02,0.652-0.064,0.931-0.102c0.278-0.036,0.648-0.09,0.924-0.146c0.493-0.099,1.146-0.247,1.635-0.369
					c0.273-0.069,0.634-0.181,0.902-0.267c0.271-0.087,0.63-0.206,0.895-0.311c0.48-0.189,1.115-0.457,1.588-0.667
					c0.264-0.118,0.605-0.296,0.861-0.43c0.233-0.122,0.54-0.294,0.768-0.425c0.521-0.301,1.191-0.745,1.686-1.09
					c0.357-0.248,0.805-0.619,1.149-0.885c0.472-0.363,1.04-0.922,1.467-1.338c0.439-0.43,0.99-1.041,1.369-1.526
					c0.496-0.636,1.121-1.513,1.539-2.202c0.33-0.542,0.727-1.291,0.982-1.872c0.149-0.342,0.344-0.801,0.473-1.151
					c0.129-0.347,0.288-0.814,0.388-1.171c0.185-0.657,0.394-1.547,0.487-2.223c0.062-0.449,0.119-1.052,0.15-1.505
					c0.016-0.229,0.016-0.518,0.018-0.775l0,0l0,0l0,0c0.002-0.075,0.003-0.151,0.002-0.227
					C57.577,16.181,57.566,15.752,57.532,15.434z"/>
			</g>
			<g>
				<path fill="#F18700" d="M51.186,24.951c-3.986,2.316-8.998,3.608-13.762,3.794c-3.733,0.146-7.271,1.045-9.906,2.576
					c0.02,1.586-0.526,2.704-1.421,3.224c1.963-1.133,3.77-1.045,4.464-0.838c0.302,0.136,0.672,0.295,0.961,0.407
					c0.296,0.115,0.695,0.256,0.999,0.348c0.457,0.139,1.075,0.295,1.54,0.402c0.29,0.067,0.682,0.128,0.975,0.178
					c0.454,0.077,1.371,0.168,1.757,0.181c0.282,0.009,0.66,0.03,0.943,0.026c0.491-0.008,1.146-0.034,1.635-0.067
					c0.28-0.02,0.652-0.064,0.931-0.102s0.648-0.091,0.923-0.146c0.493-0.1,1.147-0.247,1.635-0.369
					c0.274-0.069,0.634-0.182,0.903-0.268c0.271-0.086,0.63-0.206,0.895-0.31c0.48-0.189,1.115-0.457,1.587-0.668
					c0.265-0.117,0.606-0.295,0.862-0.429c0.232-0.123,0.539-0.294,0.768-0.426c0.521-0.3,1.191-0.745,1.686-1.089
					c0.356-0.249,0.804-0.62,1.148-0.885c0.472-0.364,1.041-0.922,1.467-1.339c0.44-0.43,0.991-1.041,1.369-1.525
					c0.496-0.636,1.121-1.514,1.54-2.202c0.329-0.542,0.727-1.292,0.981-1.872c0.15-0.342,0.344-0.802,0.474-1.151
					c0.129-0.348,0.288-0.815,0.388-1.172c0.184-0.657,0.393-1.546,0.487-2.222c0.062-0.449,0.119-1.052,0.149-1.505
					c0.016-0.229,0.016-0.518,0.018-0.775C57.501,19.533,55.327,22.545,51.186,24.951z M30.453,33.658
					c0.023,0.012,0.049,0.022,0.073,0.034C30.512,33.686,30.49,33.676,30.453,33.658z"/>
			</g>
			<g>
				<path fill="#F18700" d="M57.58,16.729c0.002-0.076,0.004-0.151,0.003-0.228C57.581,16.572,57.581,16.649,57.58,16.729z"/>
			</g>
		</g>
		<g>
			<g>
				<path fill="#FF9911" d="M22.577,22.96c-1.323-0.737-2.516-0.795-3.382-0.292c-0.163,0.101-0.376,0.242-0.531,0.354
					c-0.099,0.072-0.222,0.18-0.314,0.259c-0.012,0.011-0.3,0.26-0.588,0.62c-0.537,0.672-0.784,1.3-0.924,1.714
					c-0.061,0.183-0.122,0.433-0.165,0.621c-0.028,0.12-0.053,0.283-0.07,0.405c-0.012,0.076-0.067,0.481-0.061,0.979
					c0.007,0.521,0.072,0.93,0.075,0.947c0.08,0.486,0.11,0.646,0.275,1.196c0.035,0.115,0.086,0.268,0.13,0.38
					c0.087,0.219,0.204,0.511,0.306,0.724c0.05,0.106,0.118,0.247,0.176,0.35c0.058,0.102,0.132,0.239,0.191,0.341
					c0.06,0.101,0.144,0.231,0.206,0.331c0.109,0.176,0.136,0.211,0.46,0.641c0.071,0.094,0.176,0.212,0.252,0.303
					c0.181,0.218,0.459,0.486,0.564,0.587c0.301,0.291,0.72,0.597,0.723,0.6c0.103,0.072,0.238,0.169,0.345,0.235
					c0.166,0.103,0.39,0.237,0.564,0.325c0.225,0.111,0.528,0.256,0.768,0.332c0.118,0.038,0.273,0.096,0.395,0.126
					c0.228,0.056,0.533,0.121,0.765,0.158c0.2,0.032,0.472,0.055,0.674,0.05c0.121-0.002,0.283,0,0.403-0.01
					c0.188-0.016,0.438-0.041,0.623-0.077c0.119-0.022,0.277-0.056,0.395-0.088c0.16-0.046,0.371-0.114,0.527-0.172
					c0.23-0.085,0.521-0.239,0.738-0.354c0.895-0.52,1.44-1.638,1.421-3.223C27.479,28.203,25.268,24.459,22.577,22.96z
					 M19.683,32.503c-1.029-0.573-1.875-2.004-1.89-3.196s0.808-1.694,1.837-1.121c1.028,0.573,1.874,2.005,1.889,3.197
					C21.533,32.574,20.711,33.076,19.683,32.503z"/>
			</g>
			<g>
				<path fill="#FF9911" d="M57.532,15.434c-0.027-0.26-0.06-0.606-0.097-0.865c-0.035-0.254-0.099-0.59-0.145-0.842
					c-0.042-0.231-0.112-0.537-0.176-0.764c-0.114-0.401-0.278-0.934-0.416-1.327c-0.186-0.533-0.575-1.38-0.787-1.758
					c-0.406-0.726-0.406-0.726-0.635-1.075C55.17,8.64,54.92,8.258,54.528,7.762c-0.735-0.929-1.424-1.549-1.467-1.587
					c-0.353-0.318-0.84-0.723-1.216-1.013c-0.252-0.195-0.603-0.436-0.874-0.604c-0.267-0.165-0.62-0.392-0.9-0.534
					c-0.554-0.28-1.303-0.633-1.874-0.872c-0.324-0.136-0.77-0.281-1.104-0.385c-0.332-0.103-0.778-0.227-1.116-0.304
					c-0.581-0.132-1.361-0.293-1.955-0.344c-0.378-0.032-0.882-0.093-1.261-0.104c-0.576-0.018-1.346-0.035-1.92,0.008
					c-0.402,0.03-0.939,0.064-1.339,0.121c-0.569,0.08-1.325,0.211-1.888,0.331c-0.831,0.178-1.912,0.531-2.713,0.816
					c-0.56,0.2-1.292,0.509-1.816,0.788c-0.416,0.223-0.979,0.504-1.383,0.745c-0.306,0.182-0.875,0.521-1.546,1
					c-0.42,0.3-0.959,0.729-1.359,1.054c-0.222,0.18-0.504,0.436-0.713,0.63c-0.186,0.173-0.429,0.406-0.607,0.587
					c-0.199,0.202-0.456,0.48-0.65,0.687c-0.195,0.207-0.442,0.497-0.62,0.719c-0.309,0.388-0.705,0.918-0.993,1.321
					c-0.166,0.232-0.372,0.555-0.521,0.8c-0.151,0.249-0.347,0.585-0.487,0.84c-0.118,0.213-0.262,0.505-0.374,0.722
					c-0.138,0.267-0.301,0.634-0.416,0.911c-0.185,0.442-0.403,1.044-0.556,1.498c-0.102,0.304-0.216,0.715-0.293,1.026
					c-0.085,0.342-0.189,0.802-0.246,1.15c-0.053,0.317-0.104,0.71-0.146,1.075c-0.016,0.117-0.029,0.235-0.04,0.356
					c-0.032,0.148-0.112,0.363-0.156,0.466c-0.115,0.268-0.184,0.387-0.308,0.604c-0.024,0.043-0.148,0.249-0.305,0.462
					c-0.132,0.18-0.132,0.18-0.379,0.472c-0.002,0.002-0.188,0.219-0.445,0.461c-0.172,0.162-0.172,0.162-0.507,0.436
					c-0.084,0.069-0.2,0.155-0.29,0.216c-0.162,0.109-0.382,0.25-0.549,0.353c0.865-0.503,2.058-0.446,3.381,0.291
					c2.69,1.5,4.903,5.243,4.941,8.362c2.635-1.531,6.173-2.432,9.906-2.577c4.764-0.186,9.774-1.477,13.762-3.794
					c4.253-2.472,6.432-5.581,6.396-8.45C57.577,16.181,57.566,15.752,57.532,15.434z M22.132,19.221
					c-0.003,0.034-0.008,0.067-0.011,0.102C22.126,19.269,22.129,19.243,22.132,19.221z"/>
			</g>
		</g>
		<g>
			<path fill="#FEC377" d="M19.791,28.264c-0.484-0.279-0.922-0.306-1.238-0.121L6.476,35.184c0.001-0.001,0.002-0.001,0.003-0.002
				C6.164,35.363,5.97,35.749,5.968,36.3c-0.003,1.104,0.773,2.448,1.734,3.003c0.514,0.297,0.975,0.306,1.294,0.082
				c-0.019,0.014-0.037,0.028-0.057,0.039l12.077-7.041c0.312-0.182,0.507-0.567,0.508-1.116
				C21.527,30.163,20.751,28.818,19.791,28.264z"/>
		</g>
		<g>
			<path fill="#FEDAAA" d="M6.476,35.184l12.077-7.041c0.316-0.185,0.754-0.158,1.238,0.121L7.713,35.305
				C7.229,35.025,6.792,35,6.476,35.184z"/>
		</g>
		<g>
			<path fill="#FEC377" d="M21.017,32.383L8.939,39.424c0.312-0.181,0.506-0.567,0.508-1.115c0.003-1.104-0.773-2.449-1.734-3.004
				l12.077-7.041c0.961,0.555,1.737,1.899,1.734,3.003C21.523,31.815,21.329,32.201,21.017,32.383z"/>
		</g>
		<g>
			<path fill="#FEDAAA" d="M7.713,35.305c0.961,0.555,1.737,1.899,1.734,3.004c-0.003,1.104-0.784,1.549-1.745,0.994
				S5.965,37.403,5.968,36.3C5.971,35.195,6.752,34.75,7.713,35.305z"/>
		</g>
		<g>
			<circle fill="#FEC377" cx="5.442" cy="36.456" r="3.444"/>
		</g>
		<g>
			<path fill="#FEDAAA" d="M2.523,36.824c0-1.902,1.542-3.444,3.444-3.444c0.619,0,1.199,0.164,1.701,0.45
				c-0.601-0.51-1.377-0.817-2.227-0.817c-1.901,0-3.443,1.542-3.443,3.444c0,1.282,0.702,2.4,1.742,2.993
				C2.997,38.818,2.523,37.877,2.523,36.824z"/>
		</g>
		<g>
			<circle fill="#FEC377" cx="9.689" cy="38.89" r="3.444"/>
		</g>
		<g>
			<path fill="#FEDAAA" d="M6.649,39.147c0-1.902,1.542-3.444,3.444-3.444c0.593,0,1.15,0.15,1.637,0.414
				c-0.571-0.422-1.277-0.671-2.041-0.671c-1.902,0-3.444,1.542-3.444,3.443c0,1.31,0.731,2.448,1.807,3.03
				C7.201,41.293,6.649,40.285,6.649,39.147z"/>
		</g>
		<g>
			
				<ellipse transform="matrix(-0.2053 -0.9787 0.9787 -0.2053 39.4214 47.9926)" fill="#FFA834" cx="39.196" cy="7.991" rx="4.439" ry="7.46"/>
		</g>
	</g>
</g>
</svg>
