<?xml version="1.0" encoding="utf-8"?>
<!-- Generator: Adobe Illustrator 16.0.0, SVG Export Plug-In . SVG Version: 6.00 Build 0)  -->
<!DOCTYPE svg PUBLIC "-//W3C//DTD SVG 1.1//EN" "http://www.w3.org/Graphics/SVG/1.1/DTD/svg11.dtd">
<svg version="1.1" id="Layer_1" xmlns="http://www.w3.org/2000/svg" xmlns:xlink="http://www.w3.org/1999/xlink" x="0px" y="0px"
	 width="68.796px" height="50.527px" viewBox="0 0 68.796 50.527" enable-background="new 0 0 68.796 50.527" xml:space="preserve">
<g>
	<g>
		<g>
			<g>
				<path fill="#E8E8E8" d="M32.714,50.527c-6.943,0-13.143-1.207-17.178-3.534c-1.668-0.964-2.934-2.098-3.765-3.369
					c-0.801-1.178-1.216-2.498-1.216-3.894l0.019-6.158c-1.396-0.189-3.257-1.101-5.242-3.905c-1.777-2.51-3.288-6.019-4.257-9.88
					c-0.354-1.417-0.617-2.786-0.783-4.07C-0.685,8.524,0.826,3.479,4.238,2.491c0.188-0.075,0.375-0.154,0.563-0.233
					c0.734-0.307,1.565-0.654,2.474-0.879c6.727-1.695,13.63-0.384,18.314,3.418l2.619-0.657c2.863-0.712,5.824,0.107,7.884,2.114
					l6.788-1.696l0.516-1.067c0.112-0.288,0.257-0.581,0.43-0.872c0.783-1.26,1.966-2.118,3.35-2.452
					c1.38-0.353,2.839-0.141,4.086,0.6c1.253,0.745,2.142,1.936,2.502,3.353c0.21,0.849,0.218,1.711,0.031,2.533
					c0.553,0.643,0.957,1.409,1.162,2.237c0.289,1.174,0.184,2.363-0.254,3.413c1.323,0.583,2.598,1.228,3.811,1.926
					c5.377,3.105,8.895,6.946,9.918,10.826c0.254,0.75,0.376,1.506,0.363,2.248l-0.02,6.404c0,0.755-0.124,1.51-0.37,2.238
					c-0.308,1.079-0.86,2.086-1.643,2.995c-3.359,4.312-10.58,7.956-19.824,10.004C42.146,50.008,37.27,50.527,32.714,50.527z
					 M12.726,29.501h0.18c0.651,0,1.262,0.317,1.637,0.851c0.374,0.533,0.466,1.215,0.245,1.828
					c-0.143,0.395-0.212,0.768-0.212,1.141l-0.02,6.416c0,0.582,0.178,1.131,0.545,1.671c0.504,0.771,1.317,1.476,2.436,2.122
					c5.782,3.334,17.519,3.955,28.536,1.509c8.133-1.802,14.861-5.093,17.561-8.59c0.024-0.031,0.05-0.062,0.075-0.092
					c0.422-0.483,0.711-1.001,0.859-1.539c0.012-0.041,0.024-0.081,0.038-0.121c0.114-0.331,0.17-0.656,0.17-0.996l0.02-6.426
					c0-0.011,0-0.022,0-0.033c0.006-0.297-0.05-0.616-0.167-0.948c-0.019-0.056-0.036-0.111-0.051-0.169
					c-0.716-2.812-3.654-5.886-8.062-8.432c-1.778-1.024-3.712-1.921-5.746-2.663c-0.724-0.265-1.231-0.92-1.306-1.687
					c-0.073-0.767,0.299-1.508,0.959-1.905c0.534-0.322,0.803-0.976,0.651-1.588c-0.091-0.367-0.335-0.691-0.668-0.889
					c-0.459-0.272-0.791-0.717-0.92-1.234c-0.13-0.518-0.048-1.065,0.229-1.522c0.204-0.336,0.264-0.731,0.169-1.112
					c-0.094-0.37-0.331-0.688-0.666-0.888c-0.327-0.195-0.712-0.247-1.077-0.156c-0.384,0.093-0.693,0.321-0.897,0.65
					c-0.036,0.06-0.091,0.163-0.129,0.267c-0.022,0.062-0.049,0.124-0.077,0.185l-0.96,1.99c-0.259,0.534-0.74,0.927-1.316,1.071
					l-8.88,2.22c-0.788,0.196-1.616-0.103-2.098-0.757c-1.057-1.439-2.86-2.09-4.602-1.654l-3.63,0.911
					c-0.658,0.164-1.354-0.015-1.851-0.478C20.01,5.01,14.087,3.785,8.245,5.26C7.627,5.412,7.004,5.673,6.346,5.948
					C6.101,6.051,5.856,6.152,5.614,6.249C5.531,6.282,5.446,6.31,5.36,6.331c-0.635,0.158-1.895,3.027-1.104,8.861
					c0.148,1.143,0.383,2.357,0.699,3.623c0.838,3.343,2.165,6.456,3.641,8.541c1.308,1.849,2.335,2.331,2.603,2.254
					c0.096-0.023,0.192-0.04,0.291-0.05c0.104-0.011,0.213-0.02,0.321-0.024c0.082-0.011,0.163-0.016,0.244-0.016
					c0.142-0.006,0.224-0.009,0.3-0.01C12.479,29.503,12.597,29.501,12.726,29.501z"/>
			</g>
		</g>
		<g>
			<g>
				<path fill="#FFFFFF" d="M32.695,50.031c-6.845,0-12.945-1.186-16.909-3.471c-1.6-0.925-2.809-2.004-3.597-3.21
					c-0.747-1.101-1.134-2.326-1.134-3.62l0.02-6.415c0-0.066,0.001-0.133,0.003-0.2c-1.771-0.036-3.634-1.329-5.338-3.736
					c-1.742-2.461-3.227-5.911-4.18-9.714c-0.35-1.397-0.609-2.747-0.772-4.012C-0.155,8.705,1.228,3.859,4.4,2.965
					C4.599,2.886,4.796,2.803,4.995,2.72c0.752-0.314,1.53-0.641,2.4-0.855c6.664-1.682,13.504-0.348,18.071,3.479l2.863-0.719
					c2.783-0.693,5.667,0.154,7.608,2.184l7.291-1.823l0.626-1.296c0.103-0.269,0.237-0.542,0.4-0.816
					c0.709-1.138,1.782-1.918,3.038-2.221c1.253-0.321,2.578-0.131,3.712,0.543c1.139,0.677,1.946,1.759,2.273,3.046
					c0.212,0.854,0.196,1.727-0.035,2.547c0.591,0.619,1.021,1.386,1.228,2.221c0.305,1.236,0.127,2.491-0.443,3.546
					c1.477,0.629,2.896,1.334,4.236,2.106c5.268,3.042,8.704,6.781,9.688,10.536c0.238,0.702,0.354,1.408,0.342,2.099l-0.02,6.409
					c0,0.721-0.122,1.441-0.363,2.137c-0.261,0.956-0.797,1.934-1.565,2.815c-3.218,4.171-10.352,7.768-19.517,9.798
					C42.062,49.514,37.216,50.031,32.695,50.031z M12.726,30.001h2.315l-0.725,2.009c-0.162,0.45-0.241,0.879-0.241,1.311
					l-0.02,6.415c0,0.687,0.206,1.327,0.631,1.952c0.543,0.831,1.412,1.589,2.6,2.274c5.883,3.393,17.767,4.033,28.895,1.564
					c8.366-1.854,15.038-5.133,17.848-8.772c0.527-0.608,0.853-1.192,1.021-1.803c0.161-0.476,0.226-0.854,0.226-1.251l0.02-6.449
					c0.007-0.356-0.059-0.734-0.194-1.124l-0.038-0.126c-0.75-2.943-3.774-6.129-8.297-8.741c-1.804-1.039-3.764-1.948-5.825-2.7
					l-2.945-1.075l2.686-1.619c0.721-0.434,1.082-1.312,0.879-2.136c-0.123-0.496-0.451-0.934-0.898-1.199l-1.303-0.771l0.784-1.295
					c0.273-0.451,0.354-0.981,0.227-1.492c-0.127-0.502-0.446-0.93-0.896-1.197c-0.442-0.262-0.96-0.337-1.457-0.211
					c-0.505,0.122-0.924,0.43-1.198,0.87c-0.057,0.096-0.125,0.228-0.174,0.36l-0.059,0.138l-1.265,2.624l-10.539,2.634
					l-0.596-0.812c-1.179-1.604-3.188-2.33-5.126-1.843l-4.422,1.108l-0.597-0.557C20.229,4.53,14.128,3.261,8.123,4.774
					C7.47,4.937,6.83,5.204,6.152,5.487C5.91,5.588,5.67,5.688,5.43,5.784L5.238,5.846c-1.116,0.279-2.251,3.706-1.477,9.413
					c0.149,1.159,0.388,2.394,0.709,3.678c0.865,3.451,2.186,6.544,3.718,8.709c1.345,1.899,2.543,2.598,3.133,2.45l0.218-0.038
					c0.035-0.003,0.071-0.007,0.108-0.01l0.046-0.022l0.362-0.005c0.175-0.007,0.253-0.01,0.33-0.01
					C12.439,30.003,12.574,30.001,12.726,30.001z"/>
			</g>
		</g>
	</g>
	<g>
		<g>
			<g>
				<path fill="#FFF1CE" d="M47.642,2.105c-0.908,0.229-1.64,0.798-2.095,1.537l0,0c-0.123,0.201-0.227,0.414-0.307,0.636
					l-0.962,1.99L32.663,9.177c0.477,0.648,2.831,1.138,3.039,1.966l0,0c0.208,0.828-2.679,2.598-2.793,3.394l6.39-1.493
					l6.271-1.574l2.05,1.5c0.801,0.596,1.852,0.84,2.895,0.578c1.846-0.464,2.966-2.335,2.503-4.18
					c-0.234-0.932-0.827-1.678-1.594-2.13c0.463-0.76,0.633-1.697,0.399-2.629C51.358,2.763,49.487,1.643,47.642,2.105z"/>
			</g>
			<g>
				<path fill="#E95353" d="M4.87,4.394c2.909-0.73,6.793,4.758,8.675,12.259c1.883,7.5,1.052,14.172-1.856,14.902
					c-2.909,0.729-6.792-4.759-8.675-12.259C1.131,11.795,1.962,5.123,4.87,4.394z"/>
			</g>
			<g opacity="0.15" enable-background="new    ">
				<path fill="#202020" d="M11.428,29.935c-2.908,0.73-6.792-4.759-8.675-12.259c-0.188-0.748-0.347-1.486-0.48-2.212
					c0.167,1.233,0.411,2.52,0.741,3.832c1.883,7.5,5.766,12.988,8.675,12.259c2.51-0.63,3.473-5.688,2.479-11.883
					c0.067,0.733,0.103,1.442,0.111,2.122C14.424,26.186,13.408,29.438,11.428,29.935z"/>
			</g>
			<g>
				
					<ellipse transform="matrix(-0.9699 0.2435 -0.2435 -0.9699 19.1681 33.9792)" fill="#FFF1CE" cx="7.484" cy="18.174" rx="1.538" ry="3.966"/>
			</g>
			<g>
				<path fill="#8C5549" d="M4.87,4.394L4.87,4.394c2.909-0.73,6.793,4.758,8.675,12.259c1.883,7.5,1.052,14.172-1.856,14.902l0,0
					c0.999-0.108,2.084,0.015,3.097-0.24c6.703-1.682,11.749-6.204,13.518-11.414l3.633-0.912c3.421-0.858,5.498-4.328,4.64-7.75
					l-0.13-0.516c-0.858-3.421-4.328-5.499-7.749-4.64l-3.634,0.912C21.044,3.237,14.46,1.634,7.758,3.316
					C6.745,3.57,5.803,4.017,4.87,4.394z"/>
			</g>
			<g opacity="0.15" enable-background="new    ">
				<path fill="#202020" d="M35.654,9.272l0.13,0.517c0.858,3.421-1.22,6.891-4.64,7.749l-3.573,0.906
					c-0.327,0.083-0.412,0.401-0.412,0.401l-0.002-0.001c-1.64,4.48-5.536,8.357-10.953,10.337c-0.649,0.21-0.462-0.415-0.462-0.415
					l-0.002,0.001c0.656-2.799,0.494-6.946-0.62-11.388c-1.683-6.703-4.963-11.799-7.719-12.285
					c2.344,1.706,4.773,6.098,6.144,11.558c1.41,5.618,1.298,10.772-0.07,13.312c0,0-0.001,0-0.002,0
					c-0.013,0.025-0.026,0.051-0.04,0.075c-0.001,0.002-0.003,0.005-0.004,0.007c-0.028,0.051-0.059,0.102-0.088,0.15
					c-0.001,0.002-0.003,0.005-0.004,0.007c-0.03,0.048-0.06,0.095-0.091,0.142c-0.002,0.002-0.003,0.005-0.005,0.007
					c0,0.001-0.001,0.002-0.002,0.003c-0.029,0.044-0.06,0.088-0.09,0.129c-0.001,0.002-0.002,0.003-0.003,0.005
					c-0.002,0.003-0.005,0.006-0.007,0.009c-0.03,0.041-0.061,0.081-0.091,0.12c-0.005,0.005-0.009,0.01-0.013,0.016
					c-0.03,0.037-0.061,0.073-0.091,0.108c-0.001,0-0.001,0.001-0.002,0.001c-0.005,0.006-0.01,0.013-0.016,0.019
					c-0.029,0.033-0.059,0.065-0.09,0.097c0,0.001-0.001,0.001-0.001,0.002c-0.007,0.007-0.013,0.013-0.019,0.02
					c-0.03,0.03-0.06,0.06-0.09,0.088c-0.001,0-0.002,0.001-0.002,0.002c-0.008,0.007-0.015,0.014-0.021,0.021
					c-0.029,0.026-0.06,0.053-0.089,0.077c-0.006,0.005-0.011,0.01-0.017,0.014c-0.004,0.004-0.007,0.007-0.012,0.011
					c-0.027,0.022-0.056,0.045-0.085,0.066c-0.012,0.009-0.022,0.018-0.034,0.025c-0.028,0.021-0.058,0.041-0.088,0.061
					c-0.012,0.009-0.022,0.017-0.034,0.024c-0.029,0.019-0.059,0.035-0.088,0.052c-0.008,0.006-0.017,0.011-0.024,0.016
					c-0.005,0.002-0.01,0.005-0.015,0.008c-0.028,0.016-0.057,0.03-0.086,0.045c-0.014,0.007-0.028,0.015-0.042,0.021
					c-0.028,0.014-0.058,0.025-0.087,0.038c-0.015,0.006-0.03,0.014-0.045,0.02c-0.029,0.012-0.059,0.021-0.089,0.032
					c-0.016,0.005-0.03,0.011-0.046,0.017c-0.045,0.015-0.091,0.027-0.138,0.039c0.113-0.012,0.227-0.021,0.341-0.028
					c0.009-0.001,0.018-0.001,0.026-0.002c0.108-0.006,0.217-0.011,0.326-0.015c0.018,0,0.035-0.001,0.053-0.002
					c0.098-0.003,0.195-0.005,0.294-0.007c0.26-0.006,0.521-0.01,0.781-0.021c0.004,0,0.008,0,0.011-0.001
					c0.12-0.005,0.239-0.013,0.358-0.022c0.005,0,0.01-0.001,0.015-0.001c0.119-0.01,0.238-0.022,0.356-0.038
					c0.003-0.001,0.007-0.002,0.01-0.002c0.177-0.024,0.353-0.057,0.526-0.1c0.061-0.016,0.121-0.033,0.182-0.049
					c6.611-1.718,11.583-6.203,13.335-11.366l3.634-0.912c3.42-0.858,5.498-4.328,4.64-7.749l-0.13-0.517
					c-0.206-0.82-0.562-1.562-1.031-2.206C35.509,8.76,35.589,9.013,35.654,9.272z"/>
			</g>
		</g>
		<g>
			<g>
				<path fill="#FE0B37" d="M24.434,19.117l-0.018,6.443c0-0.088-0.002-0.176-0.008-0.264c-0.008-0.131-0.012-0.262-0.011-0.391
					l0.019-6.443c-0.001,0.13,0.003,0.26,0.011,0.392C24.432,18.941,24.435,19.029,24.434,19.117z"/>
			</g>
			<g>
				<g>
					<path fill="#FFB657" d="M66.514,25.635c-0.819-3.223-3.912-6.731-9.001-9.67c-9.647-5.569-22.812-6.979-29.405-3.146
						c-2.635,1.53-3.821,3.667-3.681,6.036c0.124,2.085-1.299,4.098-3.941,5.512c-4.995,2.673-7.921,5.896-7.909,8.951
						c0-0.011-0.001-0.021-0.001-0.031l-0.018,6.443c-0.003,0.958,0.282,1.9,0.884,2.803c0.688,1.034,1.743,1.946,3.095,2.727
						c6.068,3.504,18.127,4.36,29.974,1.732c9.027-2.002,15.799-5.555,18.706-9.321l0,0c0.623-0.713,1.049-1.492,1.282-2.318
						c0.184-0.553,0.279-1.104,0.28-1.649l0.019-6.443c0,0.036-0.002,0.071-0.002,0.107C66.81,26.781,66.718,26.202,66.514,25.635z"
						/>
				</g>
				<g>
					<path fill="#FFB657" d="M66.517,28.908c-0.234,0.827-0.659,1.605-1.282,2.318l-0.019,6.443
						c0.623-0.713,1.049-1.492,1.282-2.318c0.185-0.553,0.279-1.104,0.281-1.649l0.018-6.443
						C66.796,27.805,66.7,28.355,66.517,28.908z"/>
				</g>
			</g>
			<g>
				<path fill="#FEC377" d="M12.558,39.729l0.018-6.443c-0.002,0.959,0.283,1.9,0.885,2.804c0.688,1.033,1.743,1.945,3.095,2.726
					c6.068,3.504,18.127,4.36,29.974,1.732c9.026-2.002,15.799-5.555,18.706-9.321l-0.019,6.443
					c-2.907,3.767-9.679,7.319-18.706,9.321c-11.847,2.627-23.905,1.771-29.974-1.732c-1.352-0.78-2.406-1.692-3.095-2.727
					C12.84,41.63,12.555,40.688,12.558,39.729z"/>
			</g>
			<g>
				<path fill="#FEDAAA" d="M57.513,15.965c5.089,2.938,8.182,6.447,9.001,9.67c0.383,1.063,0.371,2.166,0.003,3.273
					c-0.234,0.827-0.659,1.606-1.282,2.318c-2.907,3.767-9.68,7.319-18.706,9.321c-11.847,2.628-23.905,1.771-29.974-1.732
					c-1.352-0.78-2.406-1.692-3.095-2.727c-2.512-3.772,0.481-8.221,7.025-11.723c2.643-1.414,4.065-3.427,3.941-5.512
					c-0.141-2.369,1.046-4.506,3.681-6.036C34.7,8.986,47.865,10.396,57.513,15.965z"/>
			</g>
			<g>
				<path fill="#FF5023" d="M32.743,40.106c-6.355,0-11.896-1.095-15.2-3.002c-1.114-0.644-1.934-1.354-2.438-2.11
					c-0.53-0.797-0.675-1.577-0.455-2.455c0.518-2.062,2.984-4.406,6.769-6.431c3.337-1.786,5.153-4.473,4.981-7.371
					c-0.101-1.694,0.808-3.11,2.701-4.211c2.127-1.236,5.181-1.89,8.831-1.89c6.177,0,13.128,1.884,18.593,5.039
					c4.415,2.549,7.357,5.627,8.074,8.445l0.023,0.093l0.032,0.091c0.227,0.627,0.222,1.274-0.013,1.979l-0.015,0.043l-0.012,0.044
					c-0.156,0.552-0.448,1.075-0.868,1.556l-0.04,0.045l-0.037,0.048c-1.274,1.651-3.482,3.3-6.385,4.767
					c-3.122,1.577-6.99,2.903-11.186,3.833C41.713,39.592,37.094,40.106,32.743,40.106z"/>
			</g>
			<g>
				<path fill="#FEC377" d="M40.317,17.567l-0.008,2.927c-0.259,0.094-0.527,0.176-0.801,0.247
					c-0.087-0.064-0.182-0.126-0.284-0.185c-1.433-0.827-3.75-0.827-5.175,0c-0.093,0.054-0.179,0.109-0.26,0.168
					c-0.273-0.072-0.54-0.155-0.798-0.249L33,17.546c0-0.078,0.008-0.157,0.023-0.235c0.089-0.458,0.436-0.901,1.039-1.253
					c1.425-0.827,3.742-0.827,5.176,0c0.613,0.355,0.966,0.803,1.056,1.265C40.311,17.404,40.317,17.486,40.317,17.567z"/>
			</g>
			<g>
				<path fill="#E0E0E2" d="M41.324,14.989c2.593,1.498,2.606,3.925,0.03,5.423c-2.576,1.497-6.768,1.497-9.361-0.001
					c-2.593-1.497-2.606-3.924-0.03-5.421C34.54,13.492,38.73,13.492,41.324,14.989z M34.196,19.132c1.369,0.79,3.581,0.79,4.94,0
					c1.36-0.791,1.354-2.072-0.016-2.862s-3.581-0.79-4.941,0C32.82,17.06,32.828,18.342,34.196,19.132"/>
			</g>
			<g>
				<path fill="#FEDAAA" d="M41.324,14.989c2.593,1.498,2.606,3.925,0.03,5.423c-2.576,1.497-6.768,1.497-9.361-0.001
					c-2.593-1.497-2.606-3.924-0.03-5.421C34.54,13.492,38.73,13.492,41.324,14.989z M34.196,19.132c1.369,0.79,3.581,0.79,4.94,0
					c1.36-0.791,1.354-2.072-0.016-2.862s-3.581-0.79-4.941,0C32.82,17.06,32.828,18.342,34.196,19.132"/>
			</g>
		</g>
	</g>
</g>
</svg>
