<?xml version="1.0" encoding="utf-8"?>
<!-- Generator: Adobe Illustrator 16.0.0, SVG Export Plug-In . SVG Version: 6.00 Build 0)  -->
<!DOCTYPE svg PUBLIC "-//W3C//DTD SVG 1.1//EN" "http://www.w3.org/Graphics/SVG/1.1/DTD/svg11.dtd">
<svg version="1.1" id="Layer_1" xmlns="http://www.w3.org/2000/svg" xmlns:xlink="http://www.w3.org/1999/xlink" x="0px" y="0px"
	 width="57.53px" height="51.584px" viewBox="0 0 57.53 51.584" enable-background="new 0 0 57.53 51.584" xml:space="preserve">
<g>
	<g>
		<g>
			<g>
				<path fill="#E8E8E8" d="M28.771,51.584C12.638,51.584,0,44.174,0,34.714c0-0.519,0.035-1.011,0.106-1.494
					C0.035,32.701,0,32.216,0,31.744c0-6.31,5.654-11.892,14.876-14.812c-0.117-1.857-0.004-3.637,0.339-5.32
					c-0.23-0.126-0.47-0.251-0.719-0.373l-0.29-0.142c-0.733-0.349-1.842-0.876-2.244-2.054c-0.222-0.65-0.167-1.358,0.154-1.993
					c0.19-0.38,0.463-0.752,0.852-1.024c-0.12-0.374-0.136-0.748-0.078-1.08c0.097-0.563,0.391-1.042,0.824-1.386
					c-0.062-0.224-0.09-0.457-0.082-0.695c0.061-1.862,1.922-2.86,3.226-2.86c0.021,0,0.044,0,0.065,0.001
					c0.438,0.016,0.898,0.009,1.396,0.002c3.634-0.041,9.66-0.13,14.522,7.037l22.211,6.561l0.234,0.147
					c1.918,1.207,1.409,5.141,0.804,6.232c-0.448,0.826-1.665,2.134-2.932,2.695c2.778,2.603,4.372,5.704,4.372,9.064
					c0,0.475-0.034,0.961-0.105,1.477c0.071,0.484,0.105,0.977,0.105,1.493C57.53,44.174,44.897,51.584,28.771,51.584z
					 M19.691,10.36l-0.256,0.849c-0.622,2.072-0.765,4.396-0.424,6.905l0.236,1.741l-1.695,0.459C9.32,22.544,4,27.03,4,31.744
					c0,0.354,0.034,0.736,0.104,1.168l0.057,0.344l-0.063,0.343C4.032,33.952,4,34.317,4,34.714c0,6.977,11.344,12.87,24.771,12.87
					c13.421,0,24.76-5.894,24.76-12.87c0-0.396-0.032-0.763-0.097-1.119l-0.062-0.341l0.056-0.342
					c0.069-0.428,0.104-0.81,0.104-1.168c0-6.977-11.339-12.87-24.76-12.87c-1.287,0-2.531,0.052-3.697,0.152l-1.646,0.144
					l-0.45-1.59c-0.375-1.321-0.729-2.784-1.054-4.35l-0.446-2.151l2.184-0.242c1.526-0.17,2.707-0.671,3.749-1.113l0.286-0.116
					c0.462-0.187,0.886-0.354,1.269-0.469l0.383-0.115c-0.653-0.927-1.32-1.683-1.997-2.301l-1.492,2.312
					c-1.015-0.352-2.237-0.694-3.534-0.992l-1.188-0.272l-0.041-0.158l-0.365,0.613c-0.303,0.511-0.571,1.039-0.799,1.572
					L19.691,10.36z M38.557,12.903l13.291,5.917c0.261-0.209,0.568-0.521,0.707-0.718c0.059-0.23,0.086-0.665,0.077-1.042
					L38.557,12.903z M28.771,14.874c1.677,0,3.314,0.08,4.905,0.234l-4.242-1.889c-0.078,0.031-0.158,0.063-0.24,0.097l-0.26,0.104
					c-0.7,0.298-1.582,0.672-2.655,0.969c0.044,0.183,0.088,0.362,0.132,0.54C27.179,14.893,27.968,14.874,28.771,14.874z"/>
			</g>
		</g>
		<g>
			<g>
				<path fill="#FFFFFF" d="M28.771,51.084c-15.853,0-28.271-7.19-28.271-16.37c0-0.519,0.036-1.01,0.111-1.491
					C0.536,32.7,0.5,32.215,0.5,31.744c0-6.168,5.675-11.634,14.903-14.453c-0.168-2.088-0.041-4.076,0.378-5.937
					c-0.336-0.189-0.692-0.382-1.063-0.564l-0.297-0.145c-0.697-0.332-1.651-0.785-1.985-1.764
					c-0.179-0.522-0.134-1.093,0.127-1.605c0.252-0.505,0.602-0.847,1.046-1.026c-0.301-0.52-0.262-1.017-0.227-1.22
					c0.077-0.447,0.369-0.966,0.942-1.275c-0.137-0.268-0.203-0.565-0.192-0.873c0.049-1.491,1.6-2.378,2.723-2.378
					c0.019,0,0.037,0,0.056,0.001c0.439,0.016,0.91,0.009,1.414,0.002c3.568-0.042,9.469-0.128,14.202,6.966l22.318,6.592
					l0.175,0.11c1.614,1.016,1.146,4.641,0.633,5.566c-0.449,0.83-1.812,2.254-3.082,2.624c-0.139,0.041-0.271,0.068-0.397,0.084
					c3.075,2.624,4.857,5.816,4.857,9.295c0,0.474-0.036,0.96-0.11,1.479c0.074,0.482,0.11,0.973,0.11,1.49
					C57.03,43.894,44.617,51.084,28.771,51.084z M19.221,10.189l-0.264,0.876c-0.643,2.141-0.791,4.535-0.44,7.116l0.178,1.306
					l-1.271,0.345C8.965,22.122,3.5,26.798,3.5,31.744c0,0.382,0.036,0.79,0.111,1.248l0.042,0.259l-0.048,0.257
					C3.534,33.892,3.5,34.286,3.5,34.714c0,7.247,11.572,13.37,25.271,13.37c13.692,0,25.26-6.123,25.26-13.37
					c0-0.427-0.034-0.822-0.105-1.209l-0.047-0.256l0.042-0.257c0.074-0.454,0.11-0.862,0.11-1.248
					c0-7.247-11.567-13.37-25.26-13.37c-1.302,0-2.56,0.052-3.74,0.154l-1.234,0.107l-0.339-1.192
					c-0.371-1.31-0.723-2.761-1.045-4.314l-0.335-1.613l1.638-0.183c1.6-0.178,2.816-0.693,3.89-1.149l0.278-0.112
					c0.446-0.181,0.855-0.343,1.226-0.454l0.858-0.258l0.531,0.506l-0.196-0.311c-0.892-1.413-1.823-2.498-2.771-3.331l-1.51,2.339
					c-1.031-0.356-2.271-0.705-3.586-1.007l-0.891-0.204l-0.216-0.843l-0.126,0.17l-0.221,0.146L20.3,7.971
					c-0.314,0.529-0.594,1.078-0.829,1.631L19.221,10.189z M31.405,10.27l20.502,9.125c0.375-0.237,0.965-0.819,1.115-1.096
					c0.106-0.273,0.144-1.088,0.09-1.618L31.405,10.27z M28.771,15.374c2.889,0,5.665,0.239,8.271,0.686l-7.597-3.383
					c-0.141,0.056-0.287,0.115-0.439,0.177l-0.258,0.104c-0.791,0.336-1.811,0.769-3.068,1.071c0.113,0.488,0.229,0.963,0.347,1.422
					C26.914,15.399,27.833,15.374,28.771,15.374z"/>
			</g>
		</g>
	</g>
	<g>
		<g>
			<path fill="#939598" d="M55.526,34.714c0,8.211-11.981,14.867-26.761,14.867S2.005,42.925,2.005,34.714
				s11.981-14.867,26.761-14.867S55.526,26.503,55.526,34.714"/>
		</g>
		<g>
			<path fill="#F1F2F2" d="M55.526,31.74c0,8.211-11.981,14.867-26.761,14.867S2.005,39.951,2.005,31.74
				s11.981-14.867,26.761-14.867S55.526,23.529,55.526,31.74"/>
		</g>
		<g>
			<path fill="#FFCC4D" d="M50.769,31.162c0,6.247-9.851,11.315-22.004,11.315c-12.151,0-22.003-5.068-22.003-11.315
				c0-6.249,9.852-11.315,22.003-11.315C40.918,19.847,50.769,24.913,50.769,31.162"/>
		</g>
		<g>
			<g>
				<path fill="#FFE8B6" d="M18.358,39.174c-0.82,0-1.486-0.664-1.486-1.486s0.666-1.487,1.486-1.487
					c2.822,0,4.582-1.613,4.719-2.728c0.136-1.095-1.427-1.607-2.106-1.777c-1.347-0.334-2.349,0.05-3.506,0.498
					c-1.588,0.616-3.763,1.454-6.104-0.889c-1.024-1.023-1.29-2.386-0.731-3.736c1.09-2.63,5.12-4.748,7.729-4.748
					c0.82,0,1.486,0.666,1.486,1.486s-0.666,1.486-1.486,1.486c-1.658,0-4.453,1.635-4.982,2.914
					c-0.109,0.265-0.066,0.343,0.087,0.495c0.935,0.934,1.38,0.815,2.93,0.218c1.282-0.497,3.036-1.175,5.299-0.608
					c3.544,0.886,4.564,3.176,4.337,5.023C25.706,36.459,22.749,39.174,18.358,39.174"/>
			</g>
			<g>
				<path fill="#FFE8B6" d="M27.278,40.66c-0.82,0-1.486-0.664-1.486-1.486s0.666-1.486,1.486-1.486
					c8.471,0,14.619-1.854,18.276-5.512c0.582-0.581,1.521-0.581,2.103,0s0.581,1.521,0,2.103
					C43.422,38.514,36.566,40.66,27.278,40.66"/>
			</g>
			<g>
				<path fill="#FFE8B6" d="M33.744,34.952c-0.799,0-1.59-0.09-2.365-0.284c-0.808-0.199-3.263-0.813-3.338-2.798
					c-0.057-1.487,0.982-3.229,8.828-5.883c-0.856-0.7-2.911-1.681-5.131-1.681c-3.736,0-5.646,0.314-6.383,1.052
					c-0.579,0.581-1.521,0.581-2.102,0c-0.58-0.582-0.58-1.522,0-2.103c1.419-1.42,3.64-1.922,8.484-1.922
					c3.562,0,8.023,1.981,8.438,4.538c0.161,0.984-0.287,2.239-2.021,2.817c-3.84,1.28-5.829,2.303-6.691,2.91
					c0.166,0.058,0.376,0.12,0.635,0.186c4.804,1.195,10.886-3.518,11.549-4.728c0.106-0.716,0.726-1.264,1.47-1.264
					c0.822,0,1.487,0.666,1.487,1.486c0,1.05-0.942,2.317-2.804,3.771C41.209,33.075,37.425,34.95,33.744,34.952"/>
			</g>
		</g>
		<g>
			<path fill="#DD2E44" d="M42.146,29.51c0,3.695-3.017,8.178-10.406,8.178c-7.391,0-5.947-2.974-17.841-7.434
				c-5.02-1.883,7.477-7.434,14.867-7.434S42.146,25.815,42.146,29.51"/>
		</g>
		<g>
			<g>
				<path fill="#EA596E" d="M25.792,34.714c-0.381,0-0.761-0.146-1.051-0.436c-0.582-0.582-0.582-1.521,0-2.103
					c0.418-0.453,0.166-0.704,0-0.871c-0.83-0.83-3.327-0.916-5.718,0.279c-0.736,0.367-1.628,0.068-1.995-0.666
					s-0.068-1.628,0.666-1.995c2.938-1.469,7.024-1.847,9.148,0.279c1.863,1.861,1.021,4.055,0,5.076
					C26.554,34.568,26.173,34.714,25.792,34.714"/>
			</g>
			<g>
				<path fill="#EA596E" d="M31.739,28.767c-3.589,0-5.48-1.89-6.998-3.409c-0.582-0.581-0.582-1.521,0-2.102
					c0.581-0.581,1.521-0.581,2.102,0c1.419,1.418,2.538,2.537,4.896,2.537c1.148,0,3.845,0,4.896-1.051
					c0.581-0.581,1.521-0.581,2.103,0c0.581,0.582,0.581,1.521,0,2.103C36.814,28.767,33.386,28.767,31.739,28.767"/>
			</g>
			<g>
				<path fill="#EA596E" d="M31.739,34.714c-0.822,0-1.487-0.665-1.487-1.487c0-0.821,0.665-1.486,1.487-1.486
					c2.746,0,6.762-1.43,7.869-2.538c0.581-0.581,1.521-0.581,2.102,0c0.582,0.582,0.582,1.521,0,2.103
					C39.791,33.224,34.773,34.714,31.739,34.714"/>
			</g>
		</g>
		<g>
			<path fill="#FFAC33" d="M27.28,28.767c-0.546,0-1.07-0.3-1.332-0.822c-1.484-2.969-4.573-9.147-6.091-21.294
				c-0.103-0.814,0.476-1.558,1.29-1.659c0.809-0.104,1.559,0.476,1.659,1.29c1.456,11.642,4.391,17.513,5.802,20.334
				c0.368,0.734,0.069,1.627-0.665,1.995C27.73,28.717,27.503,28.767,27.28,28.767"/>
		</g>
		<g>
			<path fill="#99AAB5" d="M54.226,15.449L31.568,8.754c-4.982-7.893-11.249-6.623-14.696-6.748
				c-0.372-0.013-1.218,0.327-1.239,0.93c-0.021,0.582,1.524,0.501,1.764,0.51c2.535,0.092,5.865,0.262,9.116,3.697
				C22.562,5.765,16.491,4.88,15.385,4.979c-0.681,0.062-0.743,0.558,0.062,0.929c0.66,0.307,6.798,2.449,10.168,3.479
				c-2.109,0.729-4.884,1.062-9.565-1.278c-0.737-0.369-1.784-0.891-2.151-0.156s0.752,1.119,1.486,1.486
				c3.212,1.605,5.1,3.467,7.171,3.467c2.463,0,4.243-0.75,5.638-1.338c0.495-0.208,0.942-0.391,1.342-0.51
				c0.024,0.015,0.042,0.035,0.067,0.049l22.01,9.801c0.722,0.394,2.337-1.176,2.73-1.897C54.737,18.291,54.759,15.78,54.226,15.449
				"/>
		</g>
		<g>
			<path fill="#FFAC33" d="M21.332,27.28c-0.381,0-0.761-0.146-1.051-0.436c-1.955-1.955-6.61-13.183-0.11-21.308
				c0.513-0.641,1.451-0.743,2.089-0.232c0.643,0.514,0.746,1.448,0.233,2.091c-5.425,6.781-1.158,16.299-0.11,17.347
				c0.582,0.582,0.582,1.521,0,2.103C22.093,27.135,21.713,27.28,21.332,27.28"/>
		</g>
	</g>
</g>
</svg>
