<?xml version="1.0" encoding="utf-8"?>
<!-- Generator: Adobe Illustrator 16.0.0, SVG Export Plug-In . SVG Version: 6.00 Build 0)  -->
<!DOCTYPE svg PUBLIC "-//W3C//DTD SVG 1.1//EN" "http://www.w3.org/Graphics/SVG/1.1/DTD/svg11.dtd">
<svg version="1.1" id="Layer_1" xmlns="http://www.w3.org/2000/svg" xmlns:xlink="http://www.w3.org/1999/xlink" x="0px" y="0px"
	 width="68.381px" height="45.821px" viewBox="0 0 68.381 45.821" enable-background="new 0 0 68.381 45.821" xml:space="preserve">
<g>
	<g>
		<g>
			<path fill="#FFFFFF" d="M34.315,45.321c-0.088,0-0.175-0.001-0.262-0.001c-4.252-0.021-8.384-0.503-12.281-1.432
				c-0.048-0.011-0.095-0.024-0.141-0.04c-0.06-0.008-0.118-0.018-0.174-0.031c-3.987-0.966-7.585-2.36-10.694-4.146
				c-3.17-1.837-5.666-3.984-7.423-6.386c-0.034-0.046-0.065-0.095-0.094-0.145c-0.041-0.053-0.078-0.107-0.112-0.165
				c-1.771-2.526-2.656-5.196-2.634-7.938V20.51c0.022-2.709,0.907-5.323,2.631-7.781c0.021-0.03,0.044-0.06,0.066-0.088
				c0.021-0.033,0.042-0.065,0.065-0.098c1.776-2.465,4.304-4.646,7.511-6.485c3.037-1.736,6.57-3.101,10.503-4.056
				c0.039-0.009,0.078-0.018,0.118-0.023c0.062-0.023,0.124-0.043,0.189-0.059c4.067-0.963,8.337-1.44,12.742-1.42
				c4.19,0.01,8.322,0.487,12.277,1.42c0.066,0.016,0.13,0.035,0.191,0.059c0.039,0.006,0.078,0.014,0.117,0.023
				c4.026,0.975,7.629,2.371,10.707,4.149c3.154,1.826,5.646,3.973,7.41,6.383c0.034,0.046,0.065,0.095,0.094,0.145
				c0.013,0.016,0.025,0.033,0.038,0.05c1.826,2.562,2.741,5.271,2.719,8.053l-0.011,4.533c-0.022,2.704-0.907,5.318-2.631,7.776
				c-0.021,0.03-0.044,0.06-0.066,0.088c-0.02,0.032-0.041,0.063-0.062,0.094c-1.764,2.464-4.289,4.646-7.504,6.489
				c-3.07,1.745-6.602,3.108-10.502,4.056l-0.007-0.029c-0.099,0.048-0.204,0.086-0.314,0.111
				C42.77,44.843,38.576,45.321,34.315,45.321z M23.424,41.188c3.394,0.733,6.969,1.114,10.645,1.133
				c3.803-0.007,7.514-0.363,11.095-1.131c0.186-0.309,0.479-0.548,0.838-0.661c0.428-0.133,0.88-0.068,1.243,0.159
				c3.292-0.866,6.273-2.053,8.875-3.531c2.688-1.541,4.812-3.325,6.312-5.306c0.078-0.325,0.264-0.619,0.532-0.83
				c0.033-0.026,0.068-0.051,0.104-0.074c1.181-1.822,1.787-3.721,1.803-5.649l0.011-4.527c0.016-2-0.614-3.973-1.873-5.879
				c-0.037-0.024-0.074-0.05-0.109-0.077c-0.272-0.213-0.46-0.51-0.538-0.839c-1.503-1.94-3.601-3.697-6.242-5.227
				c-2.607-1.506-5.646-2.72-9.04-3.61c-0.37,0.239-0.837,0.309-1.275,0.171c-0.365-0.117-0.662-0.366-0.845-0.685
				C41.519,3.887,37.943,3.509,34.316,3.5c-3.783-0.015-7.536,0.359-11.089,1.125c-0.182,0.311-0.473,0.554-0.831,0.671
				c-0.436,0.142-0.9,0.075-1.272-0.161c-3.312,0.872-6.288,2.057-8.858,3.526c-2.688,1.54-4.813,3.325-6.327,5.311
				c-0.078,0.326-0.266,0.621-0.536,0.832c-0.032,0.024-0.065,0.049-0.1,0.071c-1.18,1.821-1.786,3.72-1.802,5.647v4.527
				c-0.017,2.005,0.613,3.98,1.875,5.887c0.033,0.021,0.065,0.045,0.097,0.069c0.272,0.213,0.46,0.51,0.538,0.839
				c1.498,1.934,3.6,3.69,6.252,5.228c2.632,1.512,5.666,2.725,9.026,3.608c0.373-0.247,0.843-0.32,1.289-0.18
				C22.944,40.619,23.242,40.868,23.424,41.188z"/>
		</g>
		<g>
			<path fill="#E8E8E8" d="M34.315,45.821c-0.089,0-0.176-0.001-0.264-0.001c-4.291-0.021-8.46-0.508-12.396-1.445
				c-0.046-0.011-0.091-0.023-0.136-0.037c-0.062-0.009-0.122-0.021-0.181-0.035c-4.032-0.976-7.675-2.389-10.825-4.198
				c-3.231-1.872-5.779-4.066-7.578-6.523c-0.038-0.053-0.073-0.106-0.106-0.161c-0.041-0.056-0.08-0.113-0.115-0.173
				c-1.824-2.608-2.737-5.371-2.714-8.214V20.51c0.023-2.816,0.938-5.525,2.722-8.068c0.021-0.03,0.044-0.061,0.067-0.09
				c0.021-0.034,0.044-0.068,0.068-0.101c1.817-2.523,4.397-4.753,7.668-6.627c3.078-1.761,6.655-3.143,10.633-4.107
				c0.035-0.009,0.071-0.017,0.106-0.023c0.066-0.022,0.135-0.043,0.204-0.06C25.575,0.461,29.919,0.012,34.33,0
				c4.227,0.01,8.397,0.492,12.39,1.434c0.07,0.017,0.139,0.036,0.206,0.06c0.035,0.007,0.07,0.015,0.105,0.023
				c4.072,0.985,7.72,2.399,10.839,4.202c3.215,1.86,5.759,4.054,7.564,6.52c0.038,0.053,0.073,0.106,0.106,0.162
				c0.009,0.013,0.019,0.025,0.028,0.038c1.889,2.649,2.834,5.458,2.812,8.347l-0.011,4.531c-0.023,2.81-0.938,5.519-2.722,8.062
				c-0.021,0.03-0.044,0.061-0.066,0.09c-0.021,0.032-0.043,0.064-0.065,0.096c-1.806,2.522-4.384,4.754-7.662,6.632
				c-3.111,1.77-6.687,3.15-10.632,4.107l-0.005-0.021c-0.103,0.043-0.209,0.078-0.319,0.104
				C42.847,45.339,38.614,45.821,34.315,45.821z M23.729,40.741c3.3,0.698,6.772,1.062,10.341,1.079
				c3.686-0.014,7.307-0.347,10.794-1.079c0.245-0.318,0.585-0.563,0.987-0.689c0.492-0.156,1.011-0.11,1.456,0.102
				c3.175-0.851,6.051-2.003,8.564-3.432c2.594-1.486,4.646-3.2,6.103-5.097c0.117-0.391,0.353-0.74,0.681-0.998
				c0.015-0.011,0.029-0.022,0.044-0.033c1.095-1.717,1.656-3.498,1.671-5.301l0.011-4.523c0.015-1.875-0.569-3.726-1.737-5.522
				c-0.018-0.013-0.035-0.026-0.053-0.04c-0.331-0.258-0.569-0.61-0.687-1.005c-1.459-1.858-3.487-3.545-6.036-5.021
				c-2.519-1.455-5.449-2.633-8.722-3.508c-0.454,0.225-0.99,0.273-1.496,0.111c-0.409-0.131-0.753-0.385-0.996-0.714
				C41.31,4.368,37.838,4.009,34.315,4c-3.688-0.017-7.329,0.343-10.786,1.071c-0.24,0.32-0.577,0.569-0.978,0.7
				c-0.505,0.164-1.038,0.119-1.493-0.102c-3.192,0.855-6.062,2.006-8.545,3.426c-2.594,1.486-4.65,3.201-6.118,5.102
				c-0.118,0.393-0.355,0.743-0.686,1c-0.014,0.011-0.026,0.021-0.04,0.03c-1.093,1.717-1.654,3.496-1.669,5.299v4.523
				c-0.016,1.88,0.569,3.734,1.74,5.532c0.013,0.01,0.026,0.02,0.039,0.03c0.331,0.258,0.569,0.61,0.687,1.005
				c1.455,1.851,3.486,3.539,6.047,5.022c2.54,1.459,5.466,2.637,8.704,3.505c0.458-0.231,1-0.284,1.513-0.119
				C23.141,40.156,23.485,40.412,23.729,40.741z"/>
		</g>
	</g>
	<g>
		<g>
			<path fill="#FF9911" d="M66.379,21.991c0.001-0.096,0-0.19-0.002-0.286l0.002-0.933c0.019-2.464-0.801-4.877-2.435-7.177
				l-0.126,0.031v-0.205c-1.64-2.246-3.979-4.255-6.95-5.971c-2.958-1.708-6.425-3.052-10.306-3.994L46.26,3.884l0.002-0.499
				c-3.821-0.903-7.84-1.37-11.946-1.389c-4.253-0.019-8.419,0.448-12.382,1.387L21.933,3.87l-0.3-0.415
				C17.838,4.38,14.436,5.694,11.52,7.363c-3.021,1.729-5.387,3.766-7.034,6.055l-0.001,0.204l-0.123-0.029
				c-1.546,2.21-2.34,4.536-2.357,6.915L2,25.046c-0.018,2.461,0.799,4.872,2.429,7.169v0.008l0.005-0.001c0,0,0,0,0.001,0.001
				v-0.001l0.12-0.029l-0.001,0.204c1.641,2.246,3.985,4.255,6.958,5.971c2.956,1.707,6.421,3.05,10.299,3.993v0.002l0.001-0.001
				c0.001,0,0.003,0,0.005,0.001v-0.008l0.302-0.426l-0.001,0.506c3.822,0.902,7.84,1.369,11.946,1.388
				c4.253,0.019,8.419-0.448,12.382-1.387v-0.48l0.295,0.409l0.008-3.049l-0.002,3.048c3.795-0.925,7.198-2.239,10.114-3.908
				c3.02-1.729,5.387-3.766,7.033-6.055v-0.202l0.117,0.028c1.548-2.211,2.34-4.537,2.357-6.915l0.008-3.209
				C66.376,22.065,66.379,22.028,66.379,21.991z"/>
		</g>
		<g>
			<path fill="#FFEB9A" d="M46.261,4.604L34.189,21.612L21.934,4.603c3.963-0.939,8.128-1.405,12.382-1.388
				C38.422,3.233,42.439,3.7,46.261,4.604z"/>
		</g>
		<g>
			<g>
				<polygon fill="#F18700" points="46.261,4.604 46.252,7.923 34.18,24.932 34.189,21.612 				"/>
			</g>
			<g>
				<polygon fill="#F18700" points="34.189,21.612 34.18,24.932 21.924,7.922 21.934,4.603 				"/>
			</g>
			<g>
				<polygon fill="#F18700" points="63.819,14.641 63.81,17.96 34.481,25.005 34.491,21.685 				"/>
			</g>
		</g>
		<g>
			<path fill="#FFEB9A" d="M56.867,8.671c2.973,1.716,5.311,3.724,6.952,5.97l-29.328,7.044l12.07-17.009
				C50.442,5.618,53.909,6.962,56.867,8.671z"/>
		</g>
		<g>
			<polygon fill="#F18700" points="33.89,21.685 33.88,25.004 4.476,17.957 4.484,14.638 			"/>
		</g>
		<g>
			<g>
				<path fill="#FFEB9A" d="M21.633,4.674L33.89,21.685L4.484,14.638c1.648-2.29,4.014-4.326,7.034-6.056
					C14.435,6.913,17.837,5.599,21.633,4.674z"/>
			</g>
			<g>
				<path fill="#FFEB9A" d="M63.943,14.815c1.635,2.299,2.453,4.712,2.436,7.176c-0.018,2.379-0.811,4.705-2.358,6.915
					l-29.404-7.047L63.943,14.815z"/>
			</g>
		</g>
		<g>
			<polygon fill="#F18700" points="64.021,28.906 64.012,32.227 34.607,25.179 34.616,21.859 			"/>
		</g>
		<g>
			<path fill="#FFEB9A" d="M33.766,21.859L4.438,28.903c-1.634-2.299-2.453-4.713-2.435-7.177c0.018-2.379,0.811-4.704,2.357-6.915
				L33.766,21.859z"/>
		</g>
		<g>
			<polygon fill="#F18700" points="33.766,21.859 33.756,25.179 4.429,32.223 4.438,28.903 			"/>
		</g>
		<g>
			<path fill="#FFEB9A" d="M63.897,29.081c-1.647,2.289-4.014,4.326-7.034,6.055c-2.916,1.67-6.318,2.983-10.114,3.908
				L34.493,22.033L63.897,29.081z"/>
		</g>
		<g>
			<g>
				<polygon fill="#F18700" points="46.749,39.044 46.74,42.364 34.483,25.353 34.493,22.033 				"/>
			</g>
			<g>
				<polygon fill="#F18700" points="33.891,22.033 33.882,25.353 21.811,42.362 21.82,39.043 				"/>
			</g>
		</g>
		<g>
			<g>
				<path fill="#FFEB9A" d="M33.891,22.033l-12.07,17.01c-3.881-0.943-7.348-2.287-10.306-3.994
					c-2.973-1.717-5.311-3.725-6.951-5.972L33.891,22.033z"/>
			</g>
			<g>
				<path fill="#FFEB9A" d="M34.192,22.105l12.256,17.011c-3.963,0.938-8.128,1.405-12.381,1.387
					c-4.106-0.018-8.125-0.485-11.946-1.388L34.192,22.105z"/>
			</g>
		</g>
		<g>
			<polygon fill="#F18700" points="46.262,3.385 46.258,4.712 44.751,6.836 44.754,5.509 			"/>
		</g>
		<g>
			<path fill="#FF9911" d="M44.754,5.509l-0.003,1.327c-6.817-1.605-14.49-1.605-21.29-0.001l0.004-1.327
				C30.265,3.902,37.937,3.903,44.754,5.509z"/>
		</g>
		<g>
			<polygon fill="#F18700" points="23.465,5.507 23.461,6.835 21.93,4.711 21.934,3.383 			"/>
		</g>
		<g>
			<path fill="#FEC377" d="M46.262,3.385l-1.508,2.124c-6.817-1.606-14.489-1.606-21.289-0.002l-1.531-2.124
				c3.964-0.938,8.129-1.405,12.382-1.387C38.422,2.015,42.44,2.481,46.262,3.385z"/>
		</g>
		<g>
			<path fill="#FF9911" d="M60.154,14.302l-0.003,1.328c-1.386-1.896-3.416-3.671-6.089-5.214c-2.671-1.542-5.738-2.711-9.011-3.508
				l0.004-1.327c3.272,0.796,6.34,1.965,9.011,3.507C56.739,10.631,58.77,12.406,60.154,14.302z"/>
		</g>
		<g>
			<polygon fill="#F18700" points="63.819,13.422 63.815,14.75 60.151,15.63 60.154,14.302 			"/>
		</g>
		<g>
			<g>
				<path fill="#FEC377" d="M56.869,7.451c2.971,1.716,5.31,3.725,6.95,5.971l-3.664,0.88c-1.386-1.896-3.416-3.671-6.089-5.214
					c-2.671-1.542-5.738-2.711-9.011-3.507l1.508-2.124C50.443,4.399,53.91,5.743,56.869,7.451z"/>
			</g>
			<g>
				<path fill="#FEC377" d="M21.633,3.455l1.531,2.124c-3.266,0.797-6.322,1.966-8.977,3.509c-2.654,1.542-4.663,3.317-6.027,5.211
					l-3.675-0.881c1.647-2.289,4.014-4.326,7.034-6.055C14.436,5.694,17.838,4.38,21.633,3.455z"/>
			</g>
		</g>
		<g>
			<path fill="#FF9911" d="M23.164,5.579L23.16,6.907c-3.266,0.797-6.322,1.966-8.977,3.509c-2.654,1.542-4.663,3.316-6.027,5.211
				l0.004-1.328c1.364-1.894,3.373-3.669,6.027-5.211C16.842,7.545,19.898,6.376,23.164,5.579z"/>
		</g>
		<g>
			<g>
				<path fill="#FF9911" d="M5.989,21.885l0.004-1.328c0.006-2.069,0.687-4.137,2.043-6.083l-0.004,1.328
					C6.676,17.747,5.995,19.815,5.989,21.885z"/>
			</g>
			<g>
				<path fill="#FF9911" d="M62.39,20.718l-0.003,1.328c0.006-2.122-0.698-4.246-2.11-6.241l0.004-1.328
					C61.692,16.473,62.396,18.596,62.39,20.718z"/>
			</g>
		</g>
		<g>
			<path fill="#FEC377" d="M63.945,13.597c1.633,2.299,2.452,4.712,2.434,7.176c-0.018,2.379-0.811,4.705-2.357,6.915l-3.678-0.881
				c2.75-3.943,2.727-8.387-0.063-12.33L63.945,13.597z"/>
		</g>
		<g>
			<polygon fill="#F18700" points="64.021,27.688 64.018,29.016 60.34,28.134 60.344,26.807 			"/>
		</g>
		<g>
			<polygon fill="#F18700" points="46.75,37.825 46.746,39.153 45.212,37.024 45.216,35.696 			"/>
		</g>
		<g>
			<path fill="#FF9911" d="M63.897,27.862L63.894,32.4c-1.646,2.289-4.014,4.326-7.033,6.055c-2.916,1.669-6.319,2.983-10.114,3.908
				l0.004-4.538c3.795-0.925,7.197-2.239,10.114-3.908C59.884,32.188,62.25,30.151,63.897,27.862z"/>
		</g>
		<g>
			<path fill="#FEC377" d="M63.897,27.862c-1.647,2.289-4.014,4.326-7.033,6.055c-2.917,1.669-6.319,2.983-10.114,3.908
				l-1.534-2.129c3.267-0.797,6.325-1.967,8.98-3.51c2.652-1.541,4.66-3.314,6.023-5.206L63.897,27.862z"/>
		</g>
		<g>
			<polygon fill="#F18700" points="23.331,35.695 23.327,37.022 21.816,39.151 21.82,37.823 			"/>
		</g>
		<g>
			<path fill="#FEC377" d="M23.331,35.695l-1.511,2.128c-3.881-0.943-7.348-2.286-10.305-3.994
				c-2.973-1.716-5.311-3.725-6.952-5.971l3.668-0.881c1.386,1.894,3.415,3.668,6.086,5.21S20.058,34.898,23.331,35.695z"/>
		</g>
		<g>
			<path fill="#FEC377" d="M44.915,35.769l1.534,2.129c-3.963,0.938-8.129,1.405-12.382,1.387
				c-4.106-0.019-8.124-0.485-11.946-1.388l1.512-2.129C30.447,37.372,38.117,37.372,44.915,35.769z"/>
		</g>
		<g>
			<path fill="#FF9911" d="M46.449,37.897l-0.004,4.538c-3.963,0.938-8.129,1.405-12.382,1.387
				c-4.106-0.019-8.124-0.485-11.946-1.388l0.004-4.538c3.822,0.902,7.84,1.369,11.946,1.388
				C38.32,39.303,42.486,38.836,46.449,37.897z"/>
		</g>
		<g>
			<g>
				<path fill="#CD2A01" d="M31.67,11.667c1.345,0.777,3.519,0.777,4.854,0.001c0.664-0.386,0.996-0.891,0.997-1.396l0.002-0.664
					c0,0.015-0.001,0.029-0.002,0.045c0.021-0.527-0.315-1.059-1.012-1.461c-1.345-0.776-3.519-0.776-4.854,0
					c-0.666,0.388-0.998,0.895-0.997,1.401c0-0.002,0-0.004,0-0.005l-0.002,0.664C30.654,10.764,30.993,11.276,31.67,11.667z
					 M43.561,12.341c1.345,0.776,3.519,0.776,4.854,0c0.664-0.386,0.996-0.891,0.998-1.396l0.002-0.664
					c0,0.015-0.002,0.029-0.002,0.044c0.021-0.527-0.315-1.059-1.012-1.46c-1.345-0.776-3.519-0.776-4.855,0
					c-0.665,0.387-0.997,0.894-0.997,1.401c0-0.002,0-0.004,0-0.005l-0.002,0.664C42.546,11.438,42.884,11.95,43.561,12.341z
					 M59.686,20.688c0.021-0.526-0.315-1.058-1.012-1.46c-1.345-0.776-3.518-0.776-4.854,0c-0.666,0.387-0.998,0.894-0.998,1.401
					c0-0.002,0-0.004,0-0.005l-0.002,0.664c-0.001,0.512,0.337,1.024,1.014,1.415c1.345,0.776,3.519,0.776,4.854,0
					c0.664-0.386,0.996-0.891,0.997-1.396l0.002-0.664C59.688,20.659,59.687,20.674,59.686,20.688z M44.721,23.457l0.002-0.664
					c0,0.015-0.001,0.029-0.002,0.044c0.021-0.526-0.315-1.058-1.012-1.46c-1.345-0.776-3.518-0.776-4.854,0
					c-0.667,0.387-0.999,0.895-0.998,1.401c0-0.002,0-0.003,0-0.005l-0.002,0.664c-0.002,0.512,0.336,1.024,1.013,1.415
					c1.346,0.777,3.519,0.776,4.855,0C44.387,24.467,44.72,23.962,44.721,23.457z M52.028,24.648c-1.346-0.776-3.519-0.776-4.854,0
					c-0.666,0.387-0.998,0.895-0.998,1.401c0-0.002,0-0.003,0-0.005l-0.002,0.664c-0.001,0.512,0.337,1.024,1.014,1.415
					c1.345,0.776,3.519,0.776,4.854,0c0.664-0.386,0.996-0.89,0.997-1.396l0.002-0.664c0,0.015-0.001,0.029-0.002,0.044
					C53.061,25.582,52.725,25.051,52.028,24.648z M48.353,30.097c-1.345-0.776-3.519-0.776-4.854,0
					c-0.666,0.387-0.998,0.894-0.997,1.4c0-0.002,0-0.003,0-0.005l-0.002,0.664c-0.002,0.512,0.336,1.025,1.014,1.416
					c1.345,0.776,3.519,0.776,4.854,0c0.663-0.386,0.995-0.891,0.997-1.396l0.002-0.663c0,0.015-0.002,0.029-0.002,0.044
					C49.386,31.03,49.049,30.498,48.353,30.097z M38.869,18.778c1.345,0.776,3.518,0.776,4.854,0
					c0.663-0.386,0.996-0.891,0.997-1.396l0.002-0.664c0,0.015-0.001,0.03-0.002,0.045c0.021-0.527-0.315-1.059-1.012-1.46
					c-1.345-0.777-3.518-0.776-4.854,0c-0.667,0.387-0.999,0.894-0.998,1.4c0-0.001,0-0.003,0-0.005l-0.002,0.664
					C37.854,17.874,38.192,18.387,38.869,18.778z M20.736,17.724l0.002-0.663c0,0.015-0.001,0.029-0.002,0.044
					c0.021-0.527-0.315-1.059-1.012-1.46c-1.345-0.776-3.519-0.777-4.854,0c-0.666,0.387-0.998,0.894-0.997,1.4
					c0-0.002-0.001-0.003-0.001-0.005l-0.001,0.664c-0.002,0.512,0.336,1.025,1.014,1.416c1.345,0.776,3.518,0.776,4.854,0
					C20.402,18.734,20.735,18.229,20.736,17.724z M15.071,21.74c-1.345-0.776-3.518-0.776-4.854,0
					c-0.666,0.388-0.997,0.895-0.997,1.401c0-0.001,0-0.003,0-0.005l-0.002,0.664c-0.001,0.512,0.337,1.025,1.014,1.416
					c1.345,0.776,3.518,0.776,4.854,0c0.663-0.386,0.996-0.891,0.997-1.396l0.002-0.664c0,0.015-0.001,0.03-0.002,0.045
					C16.104,22.674,15.768,22.143,15.071,21.74z M29.712,24.364l0.002-0.664c0,0.015-0.001,0.029-0.002,0.044
					c0.021-0.526-0.315-1.058-1.013-1.46c-1.344-0.776-3.518-0.776-4.854,0c-0.666,0.387-0.998,0.894-0.998,1.4
					c0-0.001,0-0.003,0-0.005l-0.002,0.664c-0.001,0.513,0.337,1.025,1.014,1.416c1.346,0.776,3.519,0.776,4.854,0
					C29.378,25.374,29.71,24.869,29.712,24.364z M34.395,29.87l0.002-0.663c0,0.015-0.001,0.029-0.002,0.044
					c0.022-0.526-0.314-1.058-1.011-1.46c-1.346-0.776-3.519-0.776-4.854,0c-0.666,0.387-0.998,0.894-0.997,1.401
					c0-0.002-0.001-0.004-0.001-0.005l-0.001,0.663c-0.002,0.513,0.336,1.025,1.013,1.416c1.345,0.776,3.519,0.776,4.854,0
					C34.062,30.881,34.394,30.376,34.395,29.87z M39.466,32.439c-1.345-0.776-3.519-0.776-4.854,0
					c-0.666,0.387-0.998,0.894-0.997,1.401c0-0.002-0.001-0.004-0.001-0.005L33.612,34.5c-0.002,0.512,0.336,1.024,1.013,1.415
					c1.346,0.776,3.519,0.776,4.855,0c0.663-0.386,0.996-0.891,0.997-1.396l0.002-0.664c0,0.015-0.001,0.029-0.002,0.043
					C40.499,33.372,40.162,32.841,39.466,32.439z M23.378,29.339c-1.345-0.776-3.519-0.776-4.854,0
					c-0.666,0.387-0.998,0.894-0.997,1.401c0-0.002-0.001-0.004-0.001-0.005l-0.002,0.663c-0.001,0.513,0.337,1.025,1.014,1.416
					c1.346,0.777,3.518,0.777,4.854,0c0.664-0.386,0.996-0.891,0.997-1.396l0.002-0.664c0,0.015-0.001,0.029-0.002,0.044
					C24.411,30.272,24.074,29.741,23.378,29.339z M18.51,11.843c1.345,0.776,3.519,0.776,4.854,0
					c0.664-0.386,0.996-0.891,0.998-1.396l0.002-0.663c0,0.015-0.002,0.029-0.002,0.044c0.021-0.527-0.315-1.059-1.012-1.46
					c-1.345-0.776-3.519-0.776-4.855,0c-0.665,0.387-0.998,0.894-0.997,1.401c0-0.002,0-0.004,0-0.006l-0.002,0.664
					C17.495,10.939,17.833,11.452,18.51,11.843z M26.857,18.375c1.346,0.777,3.519,0.777,4.854,0
					c0.664-0.386,0.996-0.891,0.998-1.396l0.001-0.664c0,0.015-0.001,0.029-0.002,0.044c0.022-0.526-0.314-1.058-1.011-1.46
					c-1.345-0.776-3.519-0.776-4.854,0c-0.666,0.387-0.998,0.894-0.997,1.401c0-0.002-0.001-0.004-0.001-0.005l-0.001,0.664
					C25.843,17.472,26.181,17.984,26.857,18.375z"/>
			</g>
			<g>
				<path fill="#CD2A01" d="M37.523,9.607l-0.002,0.664c-0.001,0.506-0.333,1.011-0.997,1.396c-1.336,0.776-3.51,0.776-4.854-0.001
					c-0.677-0.391-1.015-0.903-1.014-1.415l0.002-0.664c-0.001,0.512,0.337,1.024,1.014,1.415c1.345,0.777,3.519,0.777,4.854,0.001
					C37.19,10.618,37.522,10.113,37.523,9.607z"/>
			</g>
		</g>
		<g>
			<path fill="#FF5023" d="M36.51,8.191c1.346,0.776,1.353,2.036,0.017,2.812c-1.337,0.776-3.51,0.776-4.854,0
				c-1.346-0.776-1.353-2.035-0.017-2.812C32.992,7.415,35.165,7.415,36.51,8.191z"/>
		</g>
		<g>
			<path fill="#CD2A01" d="M49.415,10.281l-0.002,0.664c-0.002,0.505-0.334,1.01-0.998,1.396c-1.336,0.776-3.51,0.776-4.854,0
				c-0.677-0.391-1.015-0.903-1.014-1.415l0.002-0.664c-0.001,0.512,0.337,1.024,1.014,1.415c1.345,0.777,3.519,0.777,4.854,0.001
				C49.081,11.292,49.413,10.787,49.415,10.281z"/>
		</g>
		<g>
			<path fill="#FF5023" d="M48.401,8.865c1.345,0.776,1.353,2.035,0.016,2.812c-1.336,0.776-3.51,0.776-4.854-0.001
				c-1.345-0.776-1.353-2.035-0.016-2.812C44.883,8.089,47.057,8.089,48.401,8.865z"/>
		</g>
		<g>
			<g>
				<path fill="#CD2A01" d="M51.511,15.904c1.346,0.777,3.52,0.777,4.855,0.001c0.663-0.386,0.996-0.891,0.997-1.396l0.002-0.664
					c0,0.015-0.001,0.029-0.002,0.044c0.021-0.526-0.315-1.058-1.012-1.46c-1.345-0.776-3.519-0.776-4.854,0
					c-0.666,0.388-0.998,0.895-0.997,1.401c0-0.002,0-0.003,0-0.005l-0.002,0.664C50.496,15.001,50.834,15.514,51.511,15.904z"/>
			</g>
			<g>
				<path fill="#CD2A01" d="M57.365,13.845l-0.002,0.664c-0.001,0.506-0.333,1.011-0.997,1.396c-1.336,0.776-3.51,0.776-4.855-0.001
					c-0.677-0.391-1.015-0.903-1.013-1.415l0.002-0.664c-0.002,0.512,0.336,1.025,1.013,1.416c1.346,0.776,3.52,0.776,4.855,0
					C57.032,14.855,57.364,14.351,57.365,13.845z"/>
			</g>
		</g>
		<g>
			<path fill="#FF5023" d="M56.352,12.429c1.346,0.776,1.353,2.036,0.016,2.812c-1.335,0.776-3.509,0.776-4.854,0
				c-1.345-0.776-1.352-2.036-0.016-2.812C52.834,11.652,55.007,11.652,56.352,12.429z"/>
		</g>
		<g>
			<path fill="#CD2A01" d="M59.688,20.645l-0.002,0.664c-0.001,0.505-0.333,1.01-0.997,1.396c-1.336,0.776-3.51,0.776-4.854,0
				c-0.677-0.391-1.015-0.903-1.014-1.415l0.002-0.664c-0.001,0.512,0.337,1.024,1.014,1.415c1.345,0.776,3.519,0.776,4.854,0
				C59.354,21.654,59.687,21.149,59.688,20.645z"/>
		</g>
		<g>
			<path fill="#FF5023" d="M58.674,19.229c1.345,0.776,1.353,2.035,0.017,2.812s-3.511,0.776-4.854,0
				c-1.346-0.776-1.353-2.035-0.016-2.812C55.156,18.452,57.329,18.452,58.674,19.229z"/>
		</g>
		<g>
			<path fill="#CD2A01" d="M44.723,22.793l-0.002,0.664c-0.001,0.505-0.333,1.01-0.997,1.396c-1.337,0.776-3.51,0.777-4.855,0
				c-0.676-0.391-1.015-0.903-1.013-1.415l0.002-0.664c-0.002,0.512,0.336,1.025,1.013,1.416c1.346,0.776,3.519,0.775,4.855-0.001
				C44.389,23.803,44.722,23.299,44.723,22.793z"/>
		</g>
		<g>
			<path fill="#FF5023" d="M43.709,21.377c1.346,0.776,1.353,2.035,0.017,2.812c-1.337,0.776-3.51,0.777-4.855,0.001
				c-1.345-0.776-1.352-2.036-0.015-2.812C40.191,20.601,42.364,20.601,43.709,21.377z"/>
		</g>
		<g>
			<path fill="#CD2A01" d="M53.041,26.064l-0.002,0.664c-0.001,0.506-0.333,1.01-0.997,1.396c-1.336,0.776-3.51,0.776-4.854,0
				c-0.677-0.392-1.015-0.904-1.014-1.416l0.002-0.664c-0.001,0.512,0.337,1.025,1.014,1.416c1.345,0.776,3.519,0.776,4.854,0
				C52.708,27.075,53.04,26.57,53.041,26.064z"/>
		</g>
		<g>
			<path fill="#FF5023" d="M52.028,24.648c1.345,0.776,1.352,2.035,0.016,2.812c-1.336,0.776-3.51,0.776-4.854,0
				c-1.346-0.777-1.352-2.036-0.016-2.812S50.683,23.872,52.028,24.648z"/>
		</g>
		<g>
			<path fill="#CD2A01" d="M49.366,31.513l-0.002,0.663c-0.002,0.506-0.334,1.011-0.997,1.396c-1.336,0.776-3.51,0.776-4.854,0
				c-0.678-0.391-1.016-0.904-1.014-1.416l0.002-0.664c-0.002,0.513,0.336,1.025,1.013,1.416c1.346,0.776,3.519,0.776,4.854,0
				C49.032,32.522,49.364,32.018,49.366,31.513z"/>
		</g>
		<g>
			<path fill="#FF5023" d="M48.353,30.097c1.345,0.776,1.352,2.035,0.016,2.812s-3.51,0.776-4.854,0s-1.352-2.036-0.016-2.812
				C44.834,29.32,47.008,29.32,48.353,30.097z"/>
		</g>
		<g>
			<path fill="#CD2A01" d="M44.723,16.718l-0.002,0.664c-0.001,0.506-0.334,1.011-0.997,1.396c-1.337,0.776-3.51,0.776-4.854,0
				c-0.677-0.392-1.015-0.904-1.014-1.416l0.002-0.664c-0.002,0.512,0.337,1.025,1.014,1.416c1.345,0.776,3.518,0.776,4.854,0
				C44.389,17.729,44.722,17.224,44.723,16.718z"/>
		</g>
		<g>
			<path fill="#FF5023" d="M43.709,15.303c1.346,0.775,1.353,2.035,0.017,2.812c-1.337,0.776-3.51,0.776-4.854,0
				c-1.346-0.776-1.353-2.035-0.016-2.812C40.191,14.525,42.364,14.525,43.709,15.303z"/>
		</g>
		<g>
			<path fill="#CD2A01" d="M29.714,23.7l-0.002,0.664c-0.002,0.505-0.334,1.01-0.998,1.396c-1.336,0.776-3.509,0.776-4.854,0
				c-0.677-0.391-1.015-0.903-1.013-1.416l0.001-0.663c-0.001,0.512,0.337,1.024,1.014,1.415c1.345,0.777,3.519,0.777,4.854,0.001
				C29.38,24.71,29.712,24.206,29.714,23.7z"/>
		</g>
		<g>
			<path fill="#FF5023" d="M28.7,22.284c1.345,0.776,1.353,2.035,0.016,2.812c-1.336,0.776-3.51,0.776-4.854-0.001
				c-1.345-0.776-1.352-2.035-0.016-2.812S27.355,21.508,28.7,22.284z"/>
		</g>
		<g>
			<path fill="#CD2A01" d="M34.396,29.207l-0.002,0.663c-0.001,0.506-0.333,1.011-0.997,1.396c-1.336,0.776-3.51,0.776-4.854,0
				c-0.677-0.391-1.015-0.903-1.013-1.416l0.001-0.663c-0.001,0.512,0.337,1.024,1.014,1.415c1.345,0.776,3.519,0.776,4.854,0
				C34.063,30.217,34.396,29.712,34.396,29.207z"/>
		</g>
		<g>
			<path fill="#FF5023" d="M33.384,27.791c1.345,0.776,1.352,2.035,0.016,2.812s-3.51,0.776-4.854,0s-1.352-2.035-0.016-2.812
				S32.038,27.015,33.384,27.791z"/>
		</g>
		<g>
			<path fill="#CD2A01" d="M40.479,33.855l-0.002,0.664c-0.001,0.505-0.333,1.01-0.997,1.396c-1.336,0.776-3.51,0.776-4.855,0
				c-0.677-0.391-1.015-0.903-1.013-1.415l0.002-0.664c-0.002,0.512,0.336,1.024,1.013,1.415c1.346,0.777,3.52,0.777,4.855,0.001
				C40.146,34.866,40.479,34.361,40.479,33.855z"/>
		</g>
		<g>
			<path fill="#FF5023" d="M39.466,32.439c1.346,0.776,1.353,2.035,0.017,2.812c-1.336,0.776-3.51,0.776-4.855-0.001
				c-1.345-0.776-1.352-2.035-0.016-2.812S38.121,31.663,39.466,32.439z"/>
		</g>
		<g>
			<path fill="#CD2A01" d="M24.391,30.755l-0.002,0.663c-0.001,0.506-0.333,1.011-0.997,1.396c-1.337,0.776-3.509,0.776-4.854,0
				c-0.677-0.391-1.015-0.903-1.014-1.416l0.002-0.664c-0.001,0.513,0.337,1.025,1.014,1.416c1.346,0.776,3.518,0.776,4.854,0
				C24.058,31.765,24.39,31.26,24.391,30.755z"/>
		</g>
		<g>
			<path fill="#FF5023" d="M23.378,29.339c1.345,0.776,1.352,2.035,0.016,2.812c-1.337,0.777-3.509,0.777-4.854,0
				c-1.345-0.776-1.353-2.035-0.016-2.812C19.859,28.562,22.033,28.562,23.378,29.339z"/>
		</g>
		<g>
			<path fill="#CD2A01" d="M24.364,9.782l-0.002,0.664c-0.002,0.506-0.334,1.011-0.998,1.396c-1.336,0.776-3.51,0.776-4.854,0
				c-0.677-0.391-1.015-0.903-1.014-1.416l0.002-0.664c-0.001,0.513,0.337,1.025,1.014,1.416c1.345,0.776,3.519,0.776,4.854,0
				C24.03,10.793,24.362,10.288,24.364,9.782z"/>
		</g>
		<g>
			<path fill="#FF5023" d="M23.351,8.367c1.345,0.776,1.353,2.035,0.016,2.812c-1.336,0.776-3.51,0.776-4.854,0
				c-1.345-0.777-1.353-2.036-0.016-2.812C19.832,7.591,22.006,7.591,23.351,8.367z"/>
		</g>
		<g>
			<path fill="#CD2A01" d="M32.712,16.315l-0.002,0.664c-0.002,0.505-0.334,1.01-0.998,1.396c-1.336,0.777-3.509,0.777-4.854,0
				c-0.677-0.391-1.015-0.903-1.013-1.415l0.002-0.664c-0.002,0.512,0.336,1.024,1.013,1.415c1.346,0.777,3.519,0.777,4.854,0
				C32.378,17.325,32.71,16.82,32.712,16.315z"/>
		</g>
		<g>
			<path fill="#FF5023" d="M31.698,14.899c1.345,0.776,1.352,2.035,0.016,2.812c-1.336,0.777-3.509,0.777-4.854,0
				c-1.345-0.776-1.352-2.035-0.016-2.812S30.354,14.123,31.698,14.899z"/>
		</g>
	</g>
</g>
</svg>
