<?xml version="1.0" encoding="utf-8"?>
<!-- Generator: Adobe Illustrator 16.0.0, SVG Export Plug-In . SVG Version: 6.00 Build 0)  -->
<!DOCTYPE svg PUBLIC "-//W3C//DTD SVG 1.1//EN" "http://www.w3.org/Graphics/SVG/1.1/DTD/svg11.dtd">
<svg version="1.1" id="Layer_1" xmlns="http://www.w3.org/2000/svg" xmlns:xlink="http://www.w3.org/1999/xlink" x="0px" y="0px"
	 width="63.407px" height="48.93px" viewBox="0 0 63.407 48.93" enable-background="new 0 0 63.407 48.93" xml:space="preserve">
<g>
	<g>
		<path fill="none" stroke="#E8E8E8" stroke-width="4" stroke-linejoin="round" stroke-miterlimit="10" d="M60.569,22.573
			c1.668-2.137,0.332-3.789,0.332-3.789c-1.751-2.632-4.322-3.317-6.915-3.11c0.768-0.541,1.509-1.111,2.161-1.733
			c4.409-4.199,0.397-7.187,0.397-7.187c-2.918-1.892-6.621,0.965-6.621,0.965c-0.463,0.558-0.887,1.15-1.292,1.756
			c0.268-2.465-0.316-4.863-2.747-6.424c0,0-2.223-1.899-4.797-0.59c-0.44,0.222-0.823,0.515-1.144,0.844
			C39.15,3.012,38.239,2.87,37.362,3.18c-2.142,0.757-2.2,3.742-0.231,4.871c1.406,0.806,3.148,2.408,4.656,5.548
			c-0.957-0.283-1.983-0.363-3.023,0.01c-0.784,0.282-2.146,1.58-3.828,3.518c-0.695-0.934-1.724-1.52-2.954-1.521
			c0.102-0.405,0.176-0.832,0.205-1.275c0.21-3.038-1.47-5.62-3.825-5.747c-0.001-0.011,0-0.018,0-0.024
			c0.043-2.851-1.607-5.225-3.688-5.115c-0.972,0.051-1.816,0.657-2.43,1.577c-0.758-0.983-1.803-1.513-2.88-1.263
			c-1.305,0.305-2.254,1.805-2.393,3.628c-0.029,0.365-0.021,0.716,0.012,1.055c0.045,0,0.088,0.008,0.132,0.01
			c-0.46-0.014-0.927,0.04-1.385,0.19c-0.002-0.007-0.005-0.013-0.006-0.016c-0.665-1.612-2.507-2.378-4.116-1.714
			c-0.751,0.31-1.307,0.881-1.631,1.559c-0.765-0.313-1.665-0.295-2.47,0.153c-0.979,0.548-1.538,1.673-1.42,2.79
			c0.042,0.396,0.161,0.742,0.333,1.049c-0.006,0.002-0.014,0.002-0.021,0.005c-2.156,0.89-3.228,3.292-2.497,5.474
			c-1.776,1.584-2.438,4.188-1.425,6.504c0.9,2.066,3.028,3.346,5.286,3.364c1.312,0.01,2.36-0.419,3.227-1.041
			c0.007,0.001,0.018,0,0.026-0.004c0.041,0.093,0.084,0.188,0.129,0.279c-3.296,1.564-1.374,5.172-1.374,5.172
			s9.465-5.516,12.402,2.664c-2.738,4.363-4.981,8.392-5.925,10.922c-0.281,0.75,0.309,1.339,1.063,1.058
			c3.068-1.144,8.358-4.182,13.783-7.693c0.154-0.1,0.309-0.199,0.462-0.299c0.001,0,0.001-0.001,0.001-0.002
			c3.068-1.998,6.155-4.131,8.895-6.15c0.001,0,0.002,0.001,0.003,0.001l0.312-0.232c0.121-0.089,0.24-0.178,0.359-0.267
			l0.552-0.411c0-0.001,0-0.002-0.001-0.003c4.286-3.23,7.485-6.047,7.946-7.33c0.303-0.833,0.309-1.658,0.16-2.445
			c2.945,1.268,4.511,2.574,5.321,3.685c1.366,1.879,4.108,2.254,5.34,0.483c0.933-1.344,0.265-2.729-0.135-3.348
			C60.396,22.755,60.489,22.677,60.569,22.573z"/>
		<path fill="#FFFFFF" d="M16.936,48.43c-0.604,0-1.179-0.226-1.607-0.655c-0.638-0.639-0.823-1.597-0.484-2.5
			c1.094-2.936,3.598-7.233,5.652-10.542c-0.597-1.299-1.437-2.133-2.553-2.539c-2.604-0.947-6.236,0.63-7.418,1.317
			c-0.353,0.205-0.772,0.26-1.165,0.147c-0.392-0.112-0.722-0.378-0.914-0.738c-0.107-0.202-0.923-1.807-0.692-3.611
			c-0.001,0-0.002,0-0.002,0c-2.922-0.024-5.532-1.698-6.65-4.265c-1.119-2.561-0.647-5.49,1.147-7.561
			c-0.354-2.203,0.58-4.431,2.369-5.729c-0.009-0.06-0.017-0.119-0.023-0.18c-0.181-1.72,0.695-3.431,2.18-4.261
			c0.787-0.439,1.665-0.62,2.532-0.539c0.47-0.545,1.06-0.975,1.729-1.251c1.147-0.475,2.414-0.472,3.56,0.005
			c0.382,0.159,0.735,0.364,1.055,0.609c0.47-1.973,1.74-3.461,3.372-3.842c1.077-0.25,2.176-0.027,3.134,0.605
			c0.724-0.58,1.556-0.911,2.438-0.957c1.169-0.068,2.336,0.393,3.259,1.28c1.036,0.999,1.725,2.488,1.938,4.132
			c0.811,0.289,1.555,0.797,2.168,1.491c1.235,1.396,1.863,3.415,1.726,5.543c0.41,0.144,0.799,0.34,1.16,0.587
			c1.896-2.041,2.814-2.567,3.41-2.781c0.278-0.1,0.562-0.178,0.851-0.233c-1.001-1.412-1.981-2.188-2.722-2.611
			c-1.468-0.842-2.317-2.476-2.164-4.162c0.145-1.588,1.156-2.9,2.642-3.425c0.846-0.3,1.756-0.342,2.717-0.13
			c0.265-0.195,0.543-0.368,0.834-0.515c3.115-1.585,5.803,0.286,6.35,0.711c1.563,1.024,2.606,2.424,3.099,4.134
			c1.493-0.884,4.674-2.302,7.5-0.471c0.295,0.217,2.193,1.699,2.346,4.205c0.101,1.661-0.588,3.288-2.046,4.845
			c1.821,0.559,3.331,1.689,4.457,3.36c0.663,0.875,1.387,2.921-0.034,5.124c0.545,1.395,0.412,2.84-0.407,4.021
			c-0.781,1.123-2.039,1.775-3.451,1.79c-0.016,0-0.032,0-0.049,0c-1.637,0-3.275-0.857-4.285-2.247
			c-0.41-0.561-1.192-1.337-2.683-2.19c-0.048,0.197-0.106,0.391-0.176,0.582c-0.22,0.61-0.806,2.243-8.379,7.959
			c-0.026,0.022-0.053,0.044-0.08,0.064l-1.222,0.909c-2.758,2.029-5.858,4.174-8.977,6.204l-0.468,0.304
			c-6.001,3.886-11.131,6.743-14.073,7.839C17.537,48.375,17.232,48.43,16.936,48.43z M17.654,46.324
			C17.653,46.324,17.653,46.324,17.654,46.324C17.653,46.324,17.653,46.324,17.654,46.324z M16.118,28.9
			c0.951,0,1.92,0.135,2.852,0.474c2.152,0.784,3.705,2.465,4.615,4.998c0.155,0.434,0.104,0.914-0.142,1.304
			c-2.323,3.702-4.107,6.872-5.156,9.146c2.864-1.311,7.108-3.755,11.992-6.916l0.465-0.3c3.073-2.004,6.124-4.114,8.818-6.1
			l1.145-0.85c0.021-0.019,0.044-0.036,0.066-0.054c6.788-5.115,7.415-6.581,7.438-6.641c0.182-0.5,0.213-1.041,0.097-1.658
			c-0.104-0.545,0.104-1.103,0.536-1.449s1.023-0.426,1.53-0.207c2.797,1.204,4.796,2.609,5.941,4.178
			c0.449,0.618,1.177,1.014,1.859,1.014c0.007,0,0.013,0,0.019,0c0.447-0.005,0.79-0.174,1.019-0.502
			c0.316-0.456,0.262-1.021-0.163-1.676c-0.376-0.581-0.306-1.344,0.171-1.847l0.129-0.13c0.001-0.002,0.036-0.033,0.037-0.035
			c0.924-1.184,0.354-1.916,0.349-1.923c-0.029-0.036-0.057-0.074-0.083-0.112c-1.229-1.847-3.041-2.643-5.547-2.446
			c-0.676,0.049-1.299-0.35-1.53-0.985c-0.229-0.636-0.006-1.347,0.547-1.735c0.836-0.59,1.469-1.096,1.99-1.594
			c1.117-1.063,1.655-2.063,1.6-2.974c-0.068-1.135-1.053-1.916-1.062-1.924c-1.676-1.081-4.114,0.466-4.689,0.864
			c-0.335,0.415-0.683,0.893-1.083,1.489c-0.384,0.573-1.112,0.811-1.759,0.573c-0.648-0.236-1.052-0.885-0.978-1.571
			c0.251-2.311-0.425-3.945-2.066-4.999c-0.058-0.037-0.112-0.078-0.164-0.122c-0.05-0.041-1.516-1.221-3.143-0.394
			c-0.275,0.139-0.525,0.324-0.748,0.553c-0.415,0.427-1.039,0.566-1.595,0.361c-0.615-0.229-1.141-0.267-1.563-0.118
			c-0.49,0.174-0.626,0.568-0.652,0.868c-0.036,0.396,0.117,0.972,0.668,1.288c2.092,1.197,3.862,3.284,5.263,6.199
			c0.257,0.534,0.174,1.17-0.211,1.622c-0.384,0.451-0.996,0.632-1.567,0.466c-0.789-0.232-1.474-0.238-2.091-0.017
			c-0.078,0.03-0.853,0.382-3.202,3.089c-0.298,0.343-0.736,0.538-1.188,0.516c-0.454-0.017-0.876-0.238-1.147-0.604
			c-0.311-0.417-0.867-0.915-1.752-0.916c-0.462,0-0.898-0.214-1.182-0.578c-0.284-0.364-0.385-0.839-0.272-1.286
			c0.087-0.348,0.143-0.688,0.163-1.01c0.093-1.332-0.273-2.6-0.978-3.396c-0.286-0.324-0.768-0.719-1.432-0.754
			c-0.743-0.04-1.346-0.62-1.413-1.362c-0.006-0.067-0.008-0.153-0.005-0.221c0.019-1.238-0.399-2.445-1.091-3.111
			c-0.325-0.314-0.692-0.46-1.02-0.445c-0.589,0.03-1.043,0.584-1.261,0.911c-0.269,0.402-0.714,0.65-1.196,0.667
			c-0.498,0.041-0.945-0.2-1.24-0.583c-0.202-0.264-0.728-0.859-1.353-0.718c-0.53,0.124-1.14,1.012-1.235,2.28
			c-0.007,0.081-0.011,0.16-0.013,0.24c0.12,0.228,0.185,0.49,0.174,0.768c-0.03,0.824-0.713,1.505-1.559,1.442
			c-0.31-0.011-0.61,0.03-0.875,0.116c-0.757,0.248-1.572-0.142-1.86-0.876c-0.17-0.405-0.485-0.722-0.891-0.891
			c-0.406-0.168-0.855-0.169-1.264-0.001c-0.472,0.194-0.723,0.553-0.85,0.819c-0.344,0.717-1.185,1.041-1.923,0.74
			c-0.223-0.091-0.67-0.202-1.171,0.076c-0.442,0.248-0.714,0.792-0.658,1.323c0.018,0.168,0.067,0.323,0.15,0.472
			c0.219,0.39,0.252,0.857,0.091,1.274c-0.162,0.417-0.501,0.74-0.925,0.882c-0.003,0.001-0.005,0.002-0.007,0.003
			c-1.338,0.575-2.043,2.146-1.563,3.576c0.19,0.569,0.023,1.197-0.425,1.597c-1.352,1.204-1.772,3.126-1.049,4.783
			c0.646,1.483,2.187,2.45,3.925,2.465c0.896,0.009,1.609-0.234,2.339-0.76c0.194-0.139,0.417-0.229,0.649-0.265
			c0.662-0.107,1.332,0.228,1.618,0.861l0.11,0.238c0.176,0.36,0.2,0.775,0.068,1.154c-0.132,0.378-0.41,0.688-0.772,0.86
			c-0.707,0.335-0.903,0.721-0.989,0.98c-0.075,0.227-0.095,0.474-0.082,0.719C12.062,29.538,14.049,28.9,16.118,28.9z"/>
	</g>
	<g>
		<g>
			<g>
				<path fill="#88C057" d="M10.989,26.768c0.007,0.001,0.018,0,0.026-0.004c0.041,0.093,0.085,0.188,0.129,0.279
					c-3.296,1.564-1.374,5.172-1.374,5.172s12.323-7.184,13.213,6.994c0.166,2.655,4.435,2.54,5.313,0.03l0.024-0.07
					c0.039-0.111,0.077-0.223,0.113-0.333c2.065-6.149,2.713-10.352,0.2-15.983c1.065-0.951,1.471-2.506,0.896-3.901
					c-0.411-0.996-1.235-1.701-2.194-1.995c0.106-0.796,0.018-1.628-0.311-2.425c-0.97-2.352-3.62-3.498-5.986-2.635
					c-0.051-0.312-0.134-0.623-0.26-0.928c-0.821-1.993-3.033-2.987-5.05-2.328c-0.002-0.007-0.005-0.013-0.006-0.016
					c-0.665-1.612-2.507-2.378-4.116-1.714c-0.751,0.31-1.307,0.881-1.631,1.559c-0.765-0.313-1.665-0.295-2.47,0.153
					c-0.979,0.548-1.538,1.673-1.42,2.79c0.042,0.396,0.161,0.742,0.333,1.049c-0.006,0.002-0.014,0.002-0.021,0.006
					c-2.156,0.889-3.228,3.291-2.497,5.473c-1.776,1.584-2.438,4.188-1.425,6.504c0.9,2.066,3.028,3.346,5.286,3.365
					C9.074,27.818,10.123,27.39,10.989,26.768L10.989,26.768z M10.989,26.768"/>
				<path fill="#436B1C" d="M28.297,39.239c-0.083,0.235-0.205,0.444-0.341,0.639c0.032-0.035,0.065-0.065,0.097-0.101
					c3.111-3.154,4.963-5.728,5.352-10.549c1.155-0.47,2.116-1.644,2.309-3.036c0.146-1.039-0.161-1.973-0.772-2.582
					c0.454-0.741,0.78-1.611,0.903-2.555c0.385-2.953-1.315-5.448-3.862-5.45c0.102-0.405,0.176-0.832,0.205-1.275
					c0.21-3.038-1.47-5.62-3.825-5.747c-0.001-0.011,0-0.018,0-0.024c0.043-2.851-1.607-5.225-3.688-5.115
					c-0.972,0.051-1.816,0.657-2.43,1.577c-0.758-0.983-1.803-1.513-2.88-1.263c-1.305,0.305-2.254,1.805-2.393,3.628
					c-0.029,0.366-0.021,0.716,0.012,1.055c1.612-0.004,3.145,0.946,3.797,2.528c0.126,0.305,0.209,0.616,0.26,0.928
					c2.366-0.863,5.017,0.283,5.986,2.635c0.328,0.797,0.417,1.629,0.311,2.425c0.955,0.296,1.782,0.996,2.194,1.995
					c0.575,1.396,0.17,2.95-0.896,3.901c2.513,5.632,1.865,9.834-0.2,15.983c-0.038,0.111-0.074,0.222-0.113,0.333L28.297,39.239
					L28.297,39.239z M28.297,39.239"/>
			</g>
			<path fill="#659C35" d="M19.223,21.434c0.047,0.044,0.096,0.077,0.148,0.104c0.75,0.818,1.481,1.784,2.155,2.94
				c-1.759-0.303-3.537,0.389-3.638,0.427l-0.009,0.004c-0.336,0.138-0.501,0.524-0.365,0.863c0.135,0.344,0.522,0.513,0.869,0.377
				c0.024-0.01,2.594-0.999,4.068,0.119c0.683,1.481,1.271,3.209,1.724,5.213c0.003,0.017,0.006,0.032,0.009,0.05
				c0.598,2.674,0.948,5.835,0.926,9.599c-0.001,0.007,0.001,0.01,0.003,0.017c0.44,0.031,0.896-0.027,1.331-0.171
				c0.016-3.612-0.323-6.688-0.886-9.316c1.494-1.233,1.668-2.909,1.677-2.983c0.032-0.367-0.236-0.693-0.604-0.729
				c-0.367-0.033-0.69,0.234-0.73,0.601c-0.003,0.052-0.103,0.83-0.709,1.586c-0.453-1.714-1.003-3.218-1.617-4.528
				c-0.02-0.063-0.046-0.119-0.083-0.175c-0.895-1.86-1.91-3.331-2.927-4.494c1.57-2.103,0.873-4.52,0.232-5.566
				c-0.193-0.315-0.604-0.415-0.921-0.22c-0.313,0.188-0.412,0.6-0.222,0.918c0.056,0.09,1.18,2.027-0.029,3.875
				c-0.165-0.161-0.329-0.319-0.492-0.464c-3.01-2.683-6.022-3.394-7.15-3.575c-0.507-1.239-1.764-1.981-1.823-2.014
				c-0.316-0.187-0.728-0.078-0.913,0.243c-0.187,0.317-0.078,0.728,0.241,0.91c0.212,0.128,0.672,0.472,0.999,0.924
				c-1.488,0.427-2.548,1.803-2.6,1.873c-0.226,0.295-0.165,0.715,0.128,0.937c0.195,0.149,0.449,0.172,0.66,0.085
				c0.105-0.044,0.202-0.116,0.275-0.213c0.327-0.432,1.411-1.529,2.489-1.468c0.188,0.014,1.474,0.147,3.188,0.902
				c-2.528,0.832-3.933,2.266-4.003,2.337c-0.255,0.264-0.249,0.688,0.02,0.946c0.194,0.188,0.48,0.231,0.717,0.135
				c0.084-0.035,0.16-0.084,0.226-0.153c0.041-0.039,1.772-1.767,4.783-2.337c0.878,0.553,1.795,1.27,2.699,2.203
				C19.105,21.295,19.153,21.369,19.223,21.434L19.223,21.434z M19.223,21.434"/>
		</g>
		<g>
			<path fill="#88C057" d="M43.924,20.097c0,0,9.875-5.851,16.146,2.418c0,0,1.625,1.879,0.375,3.68
				c-1.231,1.771-3.974,1.396-5.34-0.483C53.869,24.019,50.901,21.871,43.924,20.097L43.924,20.097z M43.924,20.097"/>
			<g>
				<path fill="#88C057" d="M43.924,20.097c0,0,6.008-9.722-1.715-15.441c0,0-2.547-2.289-4.847-1.476
					c-2.142,0.757-2.2,3.742-0.231,4.871C39.291,9.289,42.248,12.383,43.924,20.097L43.924,20.097z M43.924,20.097"/>
				<path fill="#88C057" d="M59.862,23.022c0,0,0.054,0.071,0.125,0.164c0.203-0.183,0.401-0.382,0.582-0.613
					c1.668-2.137,0.332-3.789,0.332-3.789c-4.95-7.444-16.465,0.646-16.465,0.646c0.554,0.039,1.069,0.089,1.573,0.14
					C49.303,18.366,55.467,17.226,59.862,23.022L59.862,23.022z M59.862,23.022"/>
				<path fill="#A4E869" d="M42.209,4.655c5.957,4.41,3.746,11.203,2.422,14.078c0.004,0.063,0.008,0.121,0.013,0.188
					c0,0,8.219-11.392,1.241-15.871c0,0-2.223-1.899-4.797-0.59c-0.44,0.222-0.824,0.515-1.144,0.844
					C41.233,3.78,42.209,4.655,42.209,4.655L42.209,4.655z M42.209,4.655"/>
			</g>
			<path fill="#659C35" d="M56.545,6.754c-2.918-1.892-6.621,0.965-6.621,0.965c-0.612,0.738-1.172,1.527-1.687,2.343
				c-0.508,3.719-2.935,7.739-4.138,9.547c-0.069,0.25-0.133,0.47-0.172,0.629c1.396-0.937,5.461-3.476,9.457-4.133
				c0.992-0.656,1.938-1.379,2.763-2.164C60.557,9.741,56.545,6.754,56.545,6.754L56.545,6.754z M56.545,6.754"/>
			<path fill="#A4E869" d="M43.924,20.097c0,0,9.875-5.851,16.146,2.418c0,0,1.625,1.879,0.375,3.68
				c-1.231,1.771-3.974,1.396-5.34-0.483C53.869,24.019,50.901,21.871,43.924,20.097L43.924,20.097z M43.924,20.097"/>
			<g>
				<path fill="#F2681C" d="M44.479,19.211c-0.228,0.437-0.38,0.687-0.38,0.687s0.375-0.222,1.02-0.515
					C44.908,19.323,44.698,19.269,44.479,19.211L44.479,19.211z M44.479,19.211"/>
				<path fill="#ED8F20" d="M49.623,24.472c0.34-0.938,0.317-1.867,0.106-2.742c-1.5-0.633-3.349-1.254-5.63-1.832
					c-0.551-2.543-1.241-4.574-2-6.211c-1.043-0.363-2.184-0.492-3.336-0.078c-3.62,1.301-19.538,24.207-22.516,32.192
					c-0.281,0.75,0.309,1.339,1.063,1.058C25.295,43.883,48.323,28.09,49.623,24.472L49.623,24.472z M49.623,24.472"/>
			</g>
			<path fill="#DD7017" d="M22.769,39.336c-0.539-0.258-1.067-0.571-1.56-0.935c-0.354-0.262-0.854-0.183-1.117,0.172
				c-0.262,0.356-0.184,0.856,0.172,1.117c0.574,0.422,1.185,0.789,1.812,1.09c0.114,0.052,0.23,0.078,0.344,0.078
				c0.301,0,0.586-0.168,0.724-0.457C23.334,40.004,23.166,39.526,22.769,39.336L22.769,39.336z M22.769,39.336"/>
			<path fill="#DD7017" d="M47.506,24.108c-1.637-0.625-3.156-1.746-4.512-3.332c-0.289-0.336-0.793-0.375-1.128-0.09
				c-0.336,0.289-0.376,0.793-0.09,1.129c1.535,1.793,3.269,3.071,5.16,3.789c0.094,0.035,0.19,0.055,0.284,0.055
				c0.324,0,0.625-0.198,0.75-0.516C48.127,24.729,47.92,24.265,47.506,24.108L47.506,24.108z M47.506,24.108"/>
			<path fill="#DD7017" d="M34.354,17.808c0.312,0.082,0.562,0.344,0.601,0.684c0.141,1.306,0.817,2.996,2.004,3.832
				c0.36,0.259,0.446,0.755,0.192,1.117c-0.157,0.219-0.403,0.34-0.657,0.34c-0.16,0-0.32-0.051-0.461-0.147
				c-1.602-1.129-2.395-3.157-2.625-4.676"/>
			<path fill="#DD7017" d="M36.033,23.633c0.141,0.097,0.301,0.147,0.461,0.147c0.254,0,0.5-0.121,0.657-0.34
				c0.254-0.362,0.168-0.858-0.192-1.117c-1.187-0.836-1.863-2.526-2.004-3.832c-0.039-0.34-0.289-0.602-0.601-0.684
				c-0.306,0.368-0.621,0.747-0.946,1.146C33.639,20.476,34.432,22.504,36.033,23.633L36.033,23.633z M36.033,23.633"/>
			<path fill="#DD7017" d="M40.455,32.715c-1.511-0.246-3.496-1.043-4.605-2.618c-0.254-0.363-0.168-0.863,0.191-1.117
				c0.36-0.254,0.86-0.168,1.117,0.192c0.836,1.187,2.528,1.862,3.832,2.008c0.352,0.035,0.614,0.296,0.688,0.625"/>
			<path fill="#DD7017" d="M40.99,31.18c-1.304-0.146-2.996-0.821-3.832-2.008c-0.253-0.36-0.753-0.446-1.113-0.192
				c-0.363,0.254-0.449,0.754-0.195,1.117c1.113,1.575,3.095,2.372,4.605,2.618c0.418-0.31,0.825-0.61,1.223-0.91
				C41.604,31.476,41.342,31.215,40.99,31.18L40.99,31.18z M40.99,31.18"/>
			<path fill="#DD7017" d="M27.983,26.18c0.319,0.074,0.573,0.339,0.612,0.683c0.091,0.82,0.509,1.879,1.238,2.396
				c0.364,0.257,0.449,0.754,0.196,1.117c-0.157,0.219-0.407,0.34-0.657,0.34c-0.16,0-0.32-0.051-0.461-0.149
				c-1.062-0.75-1.632-2.047-1.839-3.094"/>
			<path fill="#DD7017" d="M28.912,30.565c0.141,0.099,0.301,0.149,0.461,0.149c0.254,0,0.5-0.121,0.657-0.34
				c0.253-0.36,0.168-0.86-0.192-1.117c-0.733-0.517-1.151-1.575-1.242-2.396c-0.034-0.348-0.293-0.608-0.612-0.683
				c-0.302,0.425-0.606,0.859-0.907,1.292C27.283,28.519,27.85,29.815,28.912,30.565L28.912,30.565z M28.912,30.565"/>
			<path fill="#DD7017" d="M30.596,39.487c-1.086-0.141-2.594-0.711-3.426-1.891c-0.254-0.363-0.172-0.863,0.192-1.117
				c0.358-0.254,0.858-0.168,1.112,0.192c0.52,0.733,1.578,1.151,2.395,1.242c0.442,0.047,0.758,0.44,0.711,0.879
				c-0.004,0.026-0.015,0.047-0.023,0.069"/>
			<path fill="#DD7017" d="M30.869,37.914c-0.816-0.091-1.879-0.509-2.395-1.242c-0.254-0.36-0.75-0.446-1.112-0.192
				c-0.364,0.254-0.45,0.754-0.192,1.117c0.832,1.18,2.34,1.75,3.426,1.891c0.32-0.203,0.642-0.414,0.961-0.621
				c0.009-0.022,0.02-0.047,0.023-0.069C31.627,38.354,31.312,37.961,30.869,37.914L30.869,37.914z M30.869,37.914"/>
		</g>
	</g>
</g>
</svg>
