<?xml version="1.0" encoding="utf-8"?>
<!-- Generator: Adobe Illustrator 16.0.0, SVG Export Plug-In . SVG Version: 6.00 Build 0)  -->
<!DOCTYPE svg PUBLIC "-//W3C//DTD SVG 1.1//EN" "http://www.w3.org/Graphics/SVG/1.1/DTD/svg11.dtd">
<svg version="1.1" id="Layer_1" xmlns="http://www.w3.org/2000/svg" xmlns:xlink="http://www.w3.org/1999/xlink" x="0px" y="0px"
	 width="61.581px" height="54.466px" viewBox="0 0 61.581 54.466" enable-background="new 0 0 61.581 54.466" xml:space="preserve">
<g>
	<g>
		<g>
			<g>
				<path fill="#E8E8E8" d="M31.918,54.466c-2.085,0-4.171-0.475-5.723-1.425L2.807,38.721c-1.653-1.008-2.657-2.515-2.784-4.164
					C0.008,34.458,0,34.357,0,34.255v-4.44c0-0.101,0.008-0.199,0.021-0.295c-0.094-1.027,0.155-2.054,0.705-2.965
					c-0.412-0.673-0.653-1.409-0.706-2.174C0.007,24.287,0,24.191,0,24.095v-4.439c0-0.104,0.008-0.205,0.023-0.305
					c-0.169-1.927,0.864-3.822,2.786-4.994c1.468-0.902,2.635-1.141,3.573-1.331c0.817-0.167,1.407-0.287,2.274-0.817
					c0.712-0.435,0.822-0.637,1.041-1.039c0.443-0.814,0.966-1.622,2.469-2.541c2.34-1.429,11.688-7.158,11.688-7.158
					c3.213-1.96,8.237-1.959,11.446-0.002L58.685,15.79c2.025,1.229,3.089,3.109,2.866,5.057l0.029,2.878
					c0.001,0.093-0.005,0.186-0.017,0.276l0.017,1.41c0,0.908-0.261,1.776-0.754,2.558c0.591,0.929,0.847,1.973,0.725,3.038
					l0.029,2.878c0.001,0.093-0.005,0.186-0.017,0.276l0.017,1.41c0,1.802-1.052,3.467-2.885,4.59
					c-0.002,0.001-9.358,5.718-11.696,7.157c-1.476,0.896-2.636,1.132-3.567,1.321c-0.821,0.167-1.415,0.288-2.288,0.822
					c-0.707,0.433-0.817,0.636-1.038,1.04c-0.445,0.814-0.97,1.621-2.473,2.54C36.085,53.991,34.002,54.466,31.918,54.466z
					 M4,34.058c0.005,0.052,0.008,0.104,0.01,0.156c0.007,0.357,0.328,0.756,0.882,1.093L28.285,49.63
					c2.012,1.23,5.617,1.009,7.259,0c0.719-0.439,0.83-0.643,1.052-1.047c0.443-0.812,0.966-1.616,2.459-2.533
					c1.476-0.901,2.642-1.139,3.578-1.329c0.788-0.161,1.41-0.288,2.28-0.815c2.33-1.435,11.694-7.157,11.694-7.157
					c0.717-0.438,0.973-0.884,0.973-1.153l-0.02-1.666c-0.001-0.095,0.005-0.189,0.017-0.282l-0.027-2.721
					c-0.001-0.11,0.007-0.24,0.023-0.349c0.065-0.416-0.434-0.838-0.65-1.001c-0.504-0.376-0.801-0.968-0.803-1.597
					s0.293-1.222,0.795-1.601c0.423-0.319,0.665-0.664,0.665-0.944l-0.02-1.666c-0.001-0.095,0.005-0.189,0.017-0.282l-0.027-2.721
					c-0.001-0.11,0.007-0.24,0.023-0.349c0.055-0.351-0.317-0.815-0.971-1.212L33.215,4.88c-1.934-1.18-5.335-1.179-7.272,0.002l0,0
					c0.001,0-9.35,5.729-11.689,7.16c-0.713,0.435-0.822,0.637-1.041,1.039c-0.443,0.814-0.966,1.621-2.469,2.54
					c-1.467,0.896-2.629,1.133-3.562,1.323c-0.82,0.167-1.412,0.288-2.283,0.823c-0.657,0.401-0.986,0.923-0.867,1.367
					c0.104,0.382,0.09,0.78-0.031,1.146v3.616c0.006,0.057,0.009,0.114,0.01,0.173c0.003,0.279,0.217,0.599,0.601,0.897
					c0.485,0.379,0.77,0.962,0.77,1.578s-0.285,1.198-0.771,1.577c-0.223,0.174-0.726,0.634-0.58,1.159
					C4.135,29.667,4.122,30.07,4,30.44V34.058z"/>
			</g>
		</g>
		<g>
			<g>
				<path fill="#FFFFFF" d="M31.918,53.975c-1.99,0-3.98-0.453-5.461-1.36l-23.39-14.32c-1.521-0.927-2.439-2.301-2.548-3.796
					c-0.013-0.079-0.02-0.16-0.02-0.243v-4.44c0-0.096,0.009-0.188,0.026-0.279c-0.109-1.038,0.175-2.081,0.798-2.983
					c-0.479-0.679-0.756-1.437-0.807-2.226C0.506,24.251,0.5,24.174,0.5,24.095v-4.439c0-0.098,0.01-0.193,0.027-0.286
					c-0.178-1.759,0.769-3.504,2.542-4.586c1.395-0.857,2.467-1.075,3.413-1.269c0.835-0.17,1.493-0.304,2.436-0.88
					c0.826-0.505,0.975-0.776,1.22-1.227c0.425-0.782,0.891-1.498,2.29-2.354c2.34-1.429,11.688-7.159,11.688-7.159
					c3.065-1.869,7.861-1.87,10.925-0.001l23.382,14.321c1.865,1.132,2.841,2.845,2.628,4.604l0.029,2.911
					c0.001,0.08-0.005,0.16-0.017,0.239l0.017,1.447c0,0.912-0.298,1.782-0.859,2.554c0.664,0.907,0.959,1.949,0.83,3.009
					l0.029,2.91c0.001,0.081-0.005,0.161-0.017,0.24l0.017,1.447c0,1.618-0.965,3.127-2.646,4.157
					c-0.001,0.001-9.358,5.719-11.697,7.158c-1.398,0.849-2.464,1.065-3.405,1.257c-0.838,0.171-1.5,0.306-2.448,0.886
					c-0.82,0.503-0.97,0.775-1.217,1.227c-0.427,0.781-0.895,1.498-2.294,2.354C35.896,53.521,33.906,53.975,31.918,53.975z
					 M3.5,34.084c0.005,0.046,0.009,0.093,0.01,0.141c0.011,0.539,0.409,1.075,1.121,1.509l23.393,14.322
					c2.159,1.322,6.023,1.08,7.782,0.001c0.832-0.509,0.981-0.781,1.229-1.233c0.426-0.779,0.892-1.494,2.282-2.347
					c1.399-0.855,2.471-1.074,3.416-1.267c0.836-0.17,1.496-0.305,2.439-0.877c2.333-1.437,11.696-7.158,11.696-7.158
					c0.77-0.471,1.212-1.047,1.212-1.58l-0.02-1.672c-0.001-0.082,0.005-0.164,0.018-0.244l-0.028-2.758
					c-0.001-0.083,0.005-0.186,0.018-0.267c0.103-0.659-0.485-1.209-0.846-1.479c-0.378-0.282-0.601-0.726-0.602-1.197
					s0.22-0.917,0.596-1.201c0.558-0.42,0.864-0.897,0.864-1.343l-0.02-1.672c-0.001-0.082,0.005-0.164,0.018-0.244L58.05,20.76
					c-0.001-0.082,0.005-0.185,0.018-0.266c0.127-0.812-0.801-1.471-1.206-1.717L33.477,4.454c-2.112-1.288-5.683-1.288-7.795,0.001
					c0,0-9.35,5.73-11.689,7.16c-0.827,0.505-0.975,0.776-1.22,1.227c-0.425,0.781-0.891,1.498-2.29,2.353
					c-1.392,0.851-2.459,1.068-3.401,1.26c-0.837,0.171-1.498,0.306-2.444,0.888c-0.853,0.521-1.268,1.256-1.088,1.923
					c0.084,0.312,0.064,0.637-0.049,0.931v3.729c0.006,0.05,0.009,0.101,0.01,0.152c0.007,0.558,0.435,1.007,0.793,1.286
					c0.364,0.284,0.577,0.721,0.577,1.184c0,0.462-0.214,0.898-0.578,1.183c-0.639,0.497-0.914,1.112-0.755,1.687
					c0.086,0.313,0.067,0.643-0.047,0.939V34.084z"/>
			</g>
		</g>
	</g>
	<g>
		<g>
			<g>
				<path fill="#F4900C" d="M57.646,32.726L45.95,25.571l-11.692-7.157c-2.583-1.581-6.772-1.581-9.355,0
					c0,0-9.356,5.726-11.694,7.157c-2.339,1.431-1.17,2.146-3.507,3.579c-2.34,1.429-3.508,0.714-5.847,2.145
					c-2.342,1.431-2.584,4.143,0,5.725l11.691,7.157l11.695,7.155c2.582,1.583,7.017,1.436,9.351,0
					c2.342-1.431,1.174-2.143,3.511-3.578c2.338-1.429,3.506-0.715,5.848-2.144c2.341-1.434,11.695-7.155,11.695-7.155
					C60.226,36.873,60.227,34.308,57.646,32.726"/>
			</g>
			<g>
				<path fill="#F4900C" d="M59.552,32.378L1.997,31.505v2.751l57.585,1.341L59.552,32.378z"/>
			</g>
			<g>
				<path fill="#F4900C" d="M59.552,30.686L1.997,29.812v2.751l57.585,1.341L59.552,30.686z"/>
			</g>
		</g>
		<g>
			<path fill="#FFAC33" d="M57.644,27.647L45.95,20.493l-11.692-7.157c-2.583-1.581-6.772-1.581-9.355,0
				c0,0-9.356,5.726-11.694,7.157c-2.337,1.431-1.169,2.146-3.507,3.579c-2.34,1.428-3.508,0.714-5.847,2.145
				c-2.342,1.43-2.584,4.142,0,5.725l11.691,7.157l11.695,7.155c2.584,1.583,7.017,1.436,9.352,0
				c2.341-1.431,1.173-2.143,3.511-3.578c2.338-1.429,3.506-0.715,5.847-2.144c2.341-1.434,11.693-7.155,11.693-7.155
				C60.226,31.794,60.227,29.229,57.644,27.647"/>
		</g>
		<g>
			<path fill="#FFD983" d="M55.911,29.082L43.94,21.923l-11.97-7.155c0,0-2.55-1.339-4.787,0c0,0-9.761,5.835-11.787,7.046
				c-2.024,1.212-1.749,2.478-3.775,3.688c-2.024,1.21-3.957,0.936-5.983,2.145c-2.394,1.434,0,2.867,0,2.867l11.97,7.155
				l11.97,7.157c0,0,2.394,1.429,4.787,0c2.027-1.214,1.567-2.366,3.592-3.58c2.026-1.212,4.143-1.048,6.168-2.258
				c2.026-1.207,11.787-7.047,11.787-7.047S58.147,30.418,55.911,29.082"/>
		</g>
		<g>
			<g>
				<path fill="#77B255" d="M13.836,39.235c-1.565,1.331,1.688,5.955,5.5,3.492c0.949,1.877,6.696,6.506,10.663,0.173
					c0.82,1.486,9.771,3.805,11.638-3.799c0.301-1.018-10.204-3.19-15.845-3.157C22.679,35.962,16.79,36.724,13.836,39.235"/>
			</g>
			<g>
				<path fill="#77B255" d="M5.658,26.086c-1.327,1.248-3.834,3.759-1.165,7.515c1.165,1.969,3.582,3.248,3.904,2.641
					c0.753-1.432,2.258-2.685,4.518-2.551c-0.029-0.51-1.099,4.626,2.67,5.994c1.848,0.67,3.834-0.403,6.094-2.772
					c3.617-3.797,12.834-2.025,15.421-1.031c2.619,1.009,4.914,1.667,4.229,4.36c-0.15,0.593,1.223,1.107,2.62,0.616
					c2.35-0.824,5.747-2.867,6.349-5.108c1.677-0.293,2.935,0.173,3.901,1.452c0.48,0.632,2.123,0.784,2.825-0.042
					c1.241-1.458,3.274-5.934,0.395-9.774c-3.287-4.384-8.286-6.71-19.513-7.649C26.677,18.798,12.231,19.916,5.658,26.086"/>
			</g>
		</g>
		<g>
			<path fill="#FFCC4D" d="M52.78,38.346c0,0.896-1.515,1.623-3.385,1.623H12.154c-1.869,0-3.386-0.728-3.386-1.623v-17.86
				c0-0.897,1.517-0.829,3.386-0.829h37.241c1.87,0,3.385-0.068,3.385,0.829V38.346L52.78,38.346z"/>
		</g>
		<g>
			<path fill="#BE1931" d="M56.691,29.791c0,4.686-7.763,8.486-17.337,8.486c-9.578,0-17.34-3.801-17.34-8.486
				c0-4.688,7.762-8.485,17.34-8.485C48.929,21.306,56.691,25.104,56.691,29.791"/>
		</g>
		<g>
			<g>
				<path fill="#F4900C" d="M57.646,22.568L45.95,15.415L34.258,8.258c-2.583-1.581-6.772-1.581-9.355,0
					c0,0-9.356,5.725-11.694,7.157c-2.339,1.431-1.17,2.146-3.507,3.578c-2.34,1.429-3.508,0.715-5.847,2.146
					c-2.342,1.43-2.584,4.142,0,5.725l11.691,7.157l11.695,7.155c2.582,1.583,7.017,1.436,9.351,0
					c2.342-1.431,1.174-2.144,3.511-3.579c2.338-1.429,3.506-0.714,5.848-2.143c2.341-1.434,11.695-7.155,11.695-7.155
					C60.226,26.716,60.227,24.151,57.646,22.568"/>
			</g>
			<g>
				<path fill="#F4900C" d="M59.552,22.222L1.997,21.348v2.751l57.585,1.341L59.552,22.222z"/>
			</g>
			<g>
				<path fill="#F4900C" d="M59.552,20.528L1.997,19.655v2.75l57.585,1.341L59.552,20.528z"/>
			</g>
		</g>
		<g>
			<path fill="#FFAC33" d="M57.644,17.49L45.95,10.337L34.258,3.18c-2.583-1.581-6.772-1.581-9.355,0c0,0-9.356,5.725-11.694,7.157
				c-2.337,1.43-1.169,2.146-3.507,3.578c-2.34,1.429-3.508,0.715-5.847,2.145c-2.342,1.431-2.584,4.143,0,5.726l11.691,7.157
				l11.695,7.155c2.584,1.582,7.017,1.436,9.352,0c2.341-1.431,1.173-2.144,3.511-3.579c2.338-1.429,3.506-0.714,5.847-2.143
				c2.341-1.434,11.693-7.155,11.693-7.155C60.226,21.638,60.227,19.073,57.644,17.49"/>
		</g>
		<g>
			<path fill="#FFD983" d="M55.911,18.926L43.94,11.767l-11.97-7.155c0,0-2.55-1.339-4.787,0c0,0-9.761,5.835-11.787,7.045
				c-2.024,1.212-1.749,2.479-3.775,3.688c-2.024,1.212-3.957,0.937-5.983,2.146c-2.394,1.434,0,2.867,0,2.867l11.97,7.155
				l11.97,7.157c0,0,2.394,1.429,4.787,0c2.027-1.214,1.567-2.367,3.592-3.58c2.026-1.213,4.143-1.048,6.169-2.259
				c2.025-1.207,11.786-7.047,11.786-7.047S58.147,20.261,55.911,18.926"/>
		</g>
	</g>
</g>
</svg>
