<?xml version="1.0" encoding="utf-8"?>
<!-- Generator: Adobe Illustrator 16.0.0, SVG Export Plug-In . SVG Version: 6.00 Build 0)  -->
<!DOCTYPE svg PUBLIC "-//W3C//DTD SVG 1.1//EN" "http://www.w3.org/Graphics/SVG/1.1/DTD/svg11.dtd">
<svg version="1.1" id="Layer_1" xmlns="http://www.w3.org/2000/svg" xmlns:xlink="http://www.w3.org/1999/xlink" x="0px" y="0px"
	 width="78.531px" height="59.301px" viewBox="0 0 78.531 59.301" enable-background="new 0 0 78.531 59.301" xml:space="preserve">
<g>
	<g>
		<g>
			<g>
				<g>
					<path fill="#E8E8E8" d="M53.6,59.301H39.93c-1.104,0-2-0.896-2-2V45.071H7.7c-1.686,0-3.139-1.257-3.38-2.924l-0.303-2.182
						C1.783,39.854,0,38.002,0,35.741c0-2.333,1.897-4.23,4.229-4.23h3.615c-0.072-0.283-0.128-0.573-0.167-0.867
						c-0.144-1.227,0.329-2.398,1.26-3.166c0.474-0.375,0.983-0.686,1.516-0.932c-0.48-0.542-0.773-1.255-0.773-2.035
						c0-0.888,0.381-1.688,0.988-2.246c-0.607-0.56-0.988-1.363-0.988-2.254c0-0.446,0.097-0.871,0.27-1.254
						c-1.766-0.528-3.479-1.538-4.934-2.992c-1.651-1.649-2.794-3.74-3.218-5.886C1.579,8.813,1.929,7.721,2.735,6.968
						C3.547,6.216,4.699,5.939,5.737,6.24l3.049,0.812L7.958,3.971C7.683,2.889,7.961,1.787,8.697,0.997
						c0.759-0.788,1.829-1.137,2.883-0.945c2.197,0.448,4.283,1.595,5.924,3.235c3.152,3.152,4.207,7.524,2.82,10.979l0.723,0.724
						c1.514-1.156,3.218-2.019,5.043-2.549c0.562-2.287,2.626-3.989,5.08-3.989c2.129,0,3.966,1.276,4.785,3.104
						c0.817-1.827,2.649-3.104,4.774-3.104c2.447,0,4.509,1.688,5.082,3.959c1.866,0.53,3.605,1.405,5.145,2.587l0.722-0.723
						c-1.388-3.465-0.328-7.842,2.83-10.99c1.642-1.642,3.729-2.787,5.874-3.224c1.113-0.195,2.19,0.154,2.921,0.937
						c0.759,0.816,1.031,1.937,0.731,2.998l-0.816,3.056l3.087-0.822c1.004-0.293,2.15-0.012,2.956,0.737
						c0.808,0.753,1.158,1.845,0.939,2.922c-0.423,2.138-1.566,4.229-3.217,5.878c-1.443,1.443-3.187,2.468-5,2.997
						c0.171,0.381,0.267,0.804,0.267,1.248c0,0.891-0.382,1.694-0.988,2.254c0.606,0.558,0.988,1.358,0.988,2.246
						c0,0.276-0.037,0.545-0.105,0.8h1.072l0.013-3.887c0-0.063,0.004-0.128,0.01-0.191c0.104-1.041,0.603-1.886,1.403-2.379
						c1.048-0.645,2.205-0.439,2.758-0.281c1.419,0.22,2.366,0.992,2.825,2.303c0.821,0.143,1.574,0.523,2.156,1.105
						c0.848,0.85,1.268,2.058,1.149,3.316c-0.006,0.062,0,0.104,0.005,0.122c0.005-0.009,0.046-0.003,0.108-0.009
						c1.477-0.144,2.506,0.696,3.047,2.467c0.042,0.137,0.101,0.329,0.148,0.442c0.83,0.416,1.43,1.194,1.624,2.111
						c0.202,0.951-0.06,1.942-0.698,2.65c-0.025,0.027-0.051,0.054-0.076,0.08c-0.452,0.448-1.014,0.731-1.624,0.819
						c-0.102,0.015-0.201,0.019-0.306,0.021l-3.84-0.039v7.029c0,0.479-0.02,0.96-0.058,1.438c3.445,1.274,5.383,5.099,5.479,5.292
						c0.435,0.875,0.174,1.936-0.617,2.509c-3.402,2.465-6.836,2.973-9.394,2.872C63.856,57.055,58.911,59.301,53.6,59.301z
						 M41.93,55.301H53.6c4.438,0,8.546-2.005,11.273-5.5c0.428-0.548,1.104-0.842,1.801-0.757c1.562,0.176,3.763,0.09,6.077-1.064
						c-0.788-0.97-1.909-1.952-3.133-1.959c-0.595-0.003-1.157-0.271-1.534-0.731c-0.378-0.46-0.53-1.064-0.418-1.648
						c0.169-0.87,0.254-1.762,0.254-2.649v-9.05c0-0.534,0.214-1.046,0.593-1.421c0.379-0.376,0.872-0.622,1.428-0.579l3.259,0.033
						c-0.096-0.215-0.171-0.422-0.232-0.608c-0.863-0.127-1.658-0.515-2.268-1.123c-0.848-0.848-1.268-2.057-1.15-3.316
						c0.006-0.063,0-0.104-0.005-0.123c-0.005,0.009-0.046,0.003-0.109,0.009c-0.502,0.047-1.497,0.013-2.214-0.806l-0.011,3.311
						c-0.004,1.102-0.898,1.993-2,1.993h-9.09c-0.304,0-0.599,0.009-0.894,0.033c-0.787,0.074-1.538-0.337-1.919-1.028
						c-0.356-0.647-0.325-1.434,0.07-2.048c-0.305-0.296-0.513-0.686-0.583-1.118c-0.05-0.31-0.125-0.63-0.234-1.006
						c-0.113-0.387-0.106-0.793,0.013-1.169c-0.317-0.186-0.581-0.453-0.747-0.79c-0.286-0.58-0.628-1.146-1.015-1.679
						c-0.191-0.264-0.311-0.561-0.357-0.865c-0.298-0.093-0.578-0.256-0.814-0.491c-1.66-1.65-3.748-2.74-6.041-3.149
						c-1.021-0.182-1.732-1.113-1.641-2.146c0.005-0.053,0.012-0.11,0.012-0.164c0-0.683-0.557-1.239-1.24-1.239
						c-0.662,0-1.203,0.53-1.229,1.191c0.05,0.524-0.109,1.049-0.447,1.459c-0.38,0.462-0.946,0.729-1.544,0.729h-3.11
						c-0.604,0-1.177-0.273-1.557-0.744c-0.33-0.409-0.484-0.93-0.435-1.447c-0.032-0.666-0.575-1.188-1.238-1.188
						c-0.679,0-1.23,0.557-1.23,1.24c0,0.055,0.007,0.11,0.012,0.166c0.084,1.023-0.618,1.974-1.628,2.16
						c-2.258,0.416-4.32,1.497-5.967,3.125c-0.235,0.232-0.514,0.396-0.81,0.487c-0.047,0.311-0.167,0.612-0.362,0.881
						c-0.389,0.531-0.739,1.112-1.042,1.726c-0.166,0.337-0.422,0.616-0.732,0.811c0.116,0.376,0.121,0.783,0.006,1.168
						c-0.087,0.288-0.16,0.613-0.224,0.996c-0.071,0.427-0.277,0.811-0.578,1.104c0.263,0.346,0.405,0.77,0.405,1.206
						c0,0.453,0.031,0.925,0.094,1.402c0.107,0.822-0.306,1.626-1.036,2.02c-0.73,0.393-1.627,0.293-2.256-0.249
						c-0.296-0.256-0.612-0.451-0.941-0.58c-1.065-0.433-2.254-0.312-3.187,0.301c0.136,0.623,0.455,1.211,0.93,1.69
						c0.566,0.574,0.733,1.433,0.423,2.177c-0.312,0.745-1.039,1.229-1.846,1.229H4.229C4.105,35.511,4,35.616,4,35.741
						c0,0.124,0.105,0.229,0.229,0.229h1.53c0.998,0,1.844,0.736,1.981,1.725l0.468,3.376h31.73c0.555,0,1.084,0.23,1.463,0.636
						c0.378,0.406,0.571,0.95,0.532,1.504c-0.007,0.095-0.005,0.198-0.005,0.3V55.301z M76.713,28.259
						c0.001,0.001,0.002,0.001,0.004,0.002C76.715,28.26,76.714,28.26,76.713,28.259z M6.163,10.494
						c0.386,0.884,0.959,1.721,1.681,2.441c2.239,2.241,5.431,2.904,7.421,1.551c0.204-0.139,0.427-0.234,0.655-0.29
						c0.055-0.239,0.153-0.472,0.299-0.685c1.355-1.981,0.691-5.161-1.543-7.396c-0.723-0.723-1.564-1.299-2.453-1.688l1.198,4.454
						c0.013,0.045,0.023,0.09,0.032,0.136c0.138,0.705-0.056,1.424-0.531,1.974c-0.031,0.036-0.063,0.071-0.098,0.104
						c-0.597,0.596-1.468,0.813-2.276,0.57L6.163,10.494z M58.055,15.058c0.047,0.006,0.095,0.014,0.142,0.023
						c1.957,0.393,4.241-0.427,5.959-2.145c0.724-0.724,1.298-1.562,1.684-2.444l-4.449,1.19c-0.748,0.225-1.619,0.007-2.214-0.588
						c-0.03-0.03-0.061-0.062-0.089-0.095c-0.526-0.6-0.708-1.408-0.486-2.163l1.18-4.411c-0.876,0.387-1.721,0.964-2.446,1.689
						c-2.24,2.233-2.905,5.418-1.55,7.411c0.141,0.208,0.238,0.434,0.293,0.667c0.261,0.061,0.512,0.175,0.736,0.342
						c0.022,0.014,0.047,0.027,0.053,0.031c0.178,0.109,0.36,0.205,0.552,0.287c0.084,0.036,0.139,0.052,0.194,0.07
						c0.158,0.059,0.239,0.079,0.319,0.103C57.974,15.038,58.015,15.048,58.055,15.058z M56.915,14.617
						c0.001,0,0.002,0.001,0.003,0.001C56.917,14.618,56.916,14.617,56.915,14.617z M56.913,14.615
						C56.914,14.615,56.914,14.615,56.913,14.615C56.914,14.615,56.914,14.615,56.913,14.615z M39.473,13.449
						c0.004,0.019,0.007,0.036,0.01,0.054C39.479,13.486,39.477,13.468,39.473,13.449z M39.473,13.446c0,0.001,0,0.002,0,0.003
						C39.473,13.448,39.473,13.447,39.473,13.446z M32.444,13.409c0,0.001,0,0.002,0,0.003
						C32.444,13.411,32.444,13.41,32.444,13.409z M4.663,10.093c0.01,0.004,0.021,0.006,0.031,0.009L4.663,10.093z M67.376,10.082
						l-0.038,0.011C67.351,10.089,67.363,10.086,67.376,10.082z M62.471,9.847l-0.02,0.071C62.459,9.895,62.465,9.87,62.471,9.847z
						 M66.278,9.103c0,0.002-0.001,0.004-0.001,0.006C66.277,9.106,66.278,9.104,66.278,9.103z M5.719,9.09
						C5.72,9.093,5.721,9.097,5.721,9.1C5.721,9.097,5.72,9.093,5.719,9.09z M60.39,7.81c-0.032,0.008-0.063,0.017-0.096,0.026
						L60.39,7.81z M11.564,7.797l0.089,0.023C11.624,7.812,11.594,7.804,11.564,7.797z M60.176,2.939
						c-0.002,0.007-0.004,0.015-0.006,0.022L60.176,2.939z"/>
				</g>
			</g>
			<g>
				<g>
					<path fill="#FFFFFF" d="M53.6,58.801H39.93c-0.828,0-1.5-0.672-1.5-1.5V44.571H7.7c-1.439,0-2.68-1.073-2.885-2.495
						l-0.362-2.605H4.229c-2.057,0-3.729-1.673-3.729-3.729s1.673-3.73,3.729-3.73h4.29c-0.165-0.46-0.281-0.939-0.347-1.433
						c-0.122-1.05,0.283-2.056,1.083-2.715c0.657-0.52,1.389-0.908,2.157-1.16c-0.739-0.449-1.233-1.264-1.233-2.192
						c0-0.97,0.544-1.814,1.342-2.245c-0.798-0.434-1.342-1.281-1.342-2.255c0-0.59,0.201-1.133,0.538-1.565
						c-1.904-0.44-3.783-1.468-5.349-3.034c-1.582-1.58-2.676-3.58-3.081-5.629c-0.184-0.896,0.11-1.816,0.788-2.448
						c0.682-0.635,1.646-0.866,2.521-0.613l3.896,1.035L8.441,3.841C8.209,2.932,8.443,2.003,9.063,1.338
						c0.637-0.662,1.537-0.952,2.429-0.794c2.09,0.427,4.086,1.524,5.658,3.097c3.102,3.102,4.085,7.426,2.581,10.74l1.276,1.276
						c1.625-1.318,3.494-2.274,5.508-2.816c0.401-2.209,2.336-3.89,4.654-3.89c2.141,0,3.955,1.427,4.541,3.38h0.487
						c0.585-1.953,2.396-3.38,4.531-3.38c2.313,0,4.246,1.666,4.658,3.862c2.056,0.539,3.958,1.508,5.607,2.852l1.275-1.275
						c-1.505-3.324-0.517-7.653,2.591-10.751c1.573-1.573,3.569-2.671,5.62-3.088c0.938-0.172,1.843,0.131,2.455,0.787
						c0.639,0.688,0.868,1.629,0.616,2.521l-1.041,3.897l3.921-1.045c0.844-0.248,1.809-0.011,2.488,0.62
						c0.679,0.633,0.973,1.551,0.789,2.457c-0.404,2.043-1.499,4.042-3.08,5.622c-1.551,1.552-3.461,2.599-5.418,3.035
						c0.337,0.433,0.538,0.976,0.538,1.564c0,0.974-0.544,1.821-1.342,2.255c0.798,0.431,1.342,1.275,1.342,2.245
						c0,0.475-0.129,0.919-0.354,1.3h2.318l0.015-4.385c0-0.048,0.003-0.096,0.008-0.144c0.118-1.19,0.782-1.766,1.167-2.003
						c0.91-0.558,1.934-0.354,2.391-0.217c1.836,0.271,2.36,1.495,2.554,2.266c0.835,0.08,1.604,0.43,2.18,1.006
						c0.742,0.743,1.109,1.807,1.005,2.917c-0.021,0.222,0.029,0.405,0.141,0.517s0.294,0.162,0.517,0.141
						c1.809-0.172,2.332,1.49,2.523,2.114c0.078,0.259,0.198,0.65,0.298,0.694c0.748,0.333,1.292,1.011,1.463,1.817
						c0.169,0.795-0.049,1.622-0.581,2.212c-0.018,0.021-0.037,0.04-0.057,0.06c-0.38,0.378-0.832,0.606-1.343,0.68
						c-0.075,0.011-0.143,0.016-0.229,0.016l-4.345-0.044v7.534c0,0.596-0.03,1.192-0.092,1.785c3.481,1.05,5.47,4.977,5.565,5.168
						c0.325,0.656,0.13,1.452-0.464,1.882c-3.396,2.461-6.82,2.9-9.318,2.766C63.726,56.548,58.847,58.801,53.6,58.801z
						 M41.43,55.801H53.6c4.592,0,8.845-2.075,11.668-5.692c0.321-0.411,0.824-0.63,1.351-0.567
						c1.754,0.193,4.275,0.079,6.886-1.395c-0.854-1.182-2.271-2.617-3.883-2.626c-0.446-0.003-0.868-0.203-1.151-0.549
						c-0.282-0.345-0.397-0.798-0.312-1.236c0.174-0.901,0.263-1.824,0.263-2.744v-9.05c0-0.4,0.16-0.784,0.444-1.066
						c0.281-0.277,0.661-0.434,1.056-0.434c0.005,0,0.01,0,0.016,0l4.132,0.042c-0.404-0.543-0.589-1.146-0.722-1.579
						c-0.876-0.058-1.689-0.412-2.293-1.015c-0.742-0.743-1.109-1.806-1.006-2.917c0.021-0.223-0.029-0.406-0.141-0.518
						s-0.294-0.159-0.518-0.141c-0.741,0.076-2.037-0.103-2.403-2.037c-0.014-0.069-0.031-0.161-0.048-0.232
						c-0.035-0.008-0.082-0.016-0.144-0.022c-0.021-0.003-0.044-0.006-0.066-0.01l-0.018,5.303c-0.003,0.826-0.674,1.495-1.5,1.495
						h-9.09c-0.318,0-0.626,0.009-0.936,0.035c-0.598,0.041-1.154-0.254-1.438-0.771c-0.286-0.519-0.24-1.156,0.117-1.628
						c0.067-0.09,0.152-0.183,0.241-0.271c-0.434-0.215-0.738-0.625-0.815-1.105c-0.054-0.332-0.133-0.671-0.249-1.067
						c-0.125-0.427-0.055-0.886,0.192-1.255c0.006-0.01,0.013-0.02,0.02-0.029c-0.416-0.108-0.786-0.368-0.978-0.755
						c-0.299-0.605-0.654-1.195-1.059-1.752c-0.214-0.294-0.307-0.644-0.282-0.985c-0.343-0.026-0.679-0.17-0.941-0.432
						c-1.732-1.723-3.912-2.859-6.306-3.287c-0.765-0.137-1.299-0.835-1.23-1.608c0.006-0.067,0.014-0.142,0.014-0.208
						c0-0.96-0.78-1.74-1.74-1.74c-0.944,0-1.714,0.765-1.729,1.711c0.046,0.402-0.073,0.808-0.332,1.122
						c-0.285,0.347-0.71,0.547-1.158,0.547h-3.11c-0.453,0-0.883-0.205-1.167-0.558c-0.255-0.315-0.369-0.718-0.323-1.116
						c-0.025-0.951-0.796-1.706-1.739-1.706c-0.954,0-1.73,0.78-1.73,1.74c0,0.068,0.008,0.138,0.013,0.207
						c0.063,0.767-0.463,1.487-1.22,1.628c-2.356,0.435-4.51,1.562-6.228,3.261c-0.263,0.26-0.598,0.403-0.939,0.43
						c0.026,0.346-0.067,0.701-0.285,0.999c-0.405,0.555-0.771,1.16-1.086,1.799c-0.191,0.388-0.54,0.672-0.953,0.784
						c0.003,0.004,0.006,0.008,0.008,0.012c0.247,0.371,0.316,0.834,0.188,1.261c-0.092,0.309-0.17,0.654-0.237,1.058
						c-0.081,0.482-0.392,0.893-0.829,1.104c0.096,0.097,0.188,0.197,0.278,0.3c0.239,0.273,0.371,0.625,0.371,0.988
						c0,0.475,0.033,0.968,0.098,1.467c0.08,0.617-0.229,1.22-0.776,1.515c-0.547,0.295-1.222,0.222-1.692-0.188
						c-0.339-0.293-0.704-0.517-1.087-0.667c-1.323-0.537-2.817-0.323-3.921,0.55c0.121,0.848,0.508,1.634,1.126,2.259
						c0.426,0.431,0.551,1.074,0.317,1.633c-0.232,0.559-0.778,0.922-1.384,0.922H4.229c-0.402,0-0.729,0.328-0.729,0.73
						s0.327,0.729,0.729,0.729h1.53c0.749,0,1.383,0.552,1.485,1.294l0.529,3.807h32.165c0.416,0,0.813,0.173,1.097,0.477
						c0.284,0.305,0.429,0.713,0.399,1.128c-0.007,0.106-0.006,0.221-0.006,0.335V55.801z M16.011,18.052
						c0.092,0.034,0.183,0.07,0.272,0.107l-0.157-0.158C16.088,18.019,16.05,18.035,16.011,18.052z M55.882,18.001l-0.111,0.11
						c0.064-0.025,0.129-0.05,0.193-0.074C55.937,18.025,55.909,18.013,55.882,18.001z M5.368,9.765
						c0.368,1.279,1.107,2.511,2.122,3.524c2.405,2.408,5.87,3.098,8.056,1.611c0.251-0.171,0.538-0.256,0.824-0.26
						c0-0.294,0.086-0.589,0.262-0.847c1.488-2.177,0.799-5.63-1.603-8.032c-1.015-1.015-2.254-1.758-3.539-2.133l1.448,5.382
						c0.009,0.034,0.017,0.067,0.023,0.102c0.108,0.554-0.044,1.118-0.418,1.55c-0.023,0.027-0.048,0.054-0.073,0.079
						c-0.467,0.467-1.149,0.635-1.777,0.445L5.368,9.765z M57.971,15.551c0.042,0.005,0.084,0.012,0.127,0.021
						c2.121,0.426,4.576-0.444,6.411-2.281c1.017-1.017,1.757-2.251,2.123-3.527l-5.372,1.437c-0.587,0.179-1.267,0.006-1.73-0.458
						C59.05,10.2,58.907,9.567,59.08,8.979l1.431-5.35c-1.265,0.366-2.51,1.112-3.53,2.133c-2.407,2.399-3.099,5.857-1.61,8.046
						c0.173,0.254,0.258,0.544,0.26,0.833c0.342,0.002,0.685,0.121,0.963,0.358c0.21,0.115,0.415,0.223,0.628,0.313
						c0.091,0.041,0.162,0.062,0.233,0.086c0.15,0.056,0.246,0.081,0.34,0.108C57.854,15.524,57.913,15.538,57.971,15.551z
						 M38.982,13.548c0.001,0.001,0.001,0.001,0.001,0.002C38.983,13.549,38.982,13.549,38.982,13.548z M38.982,13.545
						c0,0.001,0,0.002,0,0.002S38.982,13.546,38.982,13.545z M38.981,13.542c0,0.001,0.001,0.002,0.001,0.003
						C38.982,13.544,38.981,13.543,38.981,13.542z M32.934,13.515c-0.001,0.001-0.001,0.001-0.001,0.002
						C32.933,13.516,32.933,13.516,32.934,13.515z M61.982,9.738l-0.014,0.051C61.974,9.772,61.979,9.755,61.982,9.738z M4.792,9.61
						c0.004,0.001,0.009,0.002,0.013,0.003L4.792,9.61z M67.236,9.602l-0.018,0.005C67.225,9.605,67.23,9.604,67.236,9.602z
						 M66.769,9.199c0,0.001,0,0.002,0,0.003C66.769,9.201,66.769,9.2,66.769,9.199z M5.229,9.19c0,0.001,0,0.003,0.001,0.004
						C5.229,9.193,5.229,9.191,5.229,9.19z M60.506,8.296c-0.022,0.006-0.045,0.012-0.068,0.019L60.506,8.296z M11.46,8.286
						l0.062,0.017C11.502,8.297,11.48,8.291,11.46,8.286z M60.659,3.067c-0.001,0.003-0.001,0.006-0.002,0.009L60.659,3.067z"/>
				</g>
			</g>
		</g>
	</g>
	<g>
		<g>
			<g>
				<g>
					<path fill="#DB712A" d="M51.296,20.026c-0.27,0-0.539-0.103-0.745-0.309c-0.412-0.412-0.412-1.079,0-1.491l3.729-3.729
						c0.411-0.411,1.079-0.411,1.491,0c0.411,0.412,0.411,1.08,0,1.491l-3.729,3.729C51.836,19.924,51.566,20.026,51.296,20.026z"/>
				</g>
				<g>
					<path fill="#DB712A" d="M20.59,19.909c-0.271,0-0.54-0.103-0.745-0.309l-3.729-3.729c-0.411-0.411-0.411-1.079,0-1.491
						c0.412-0.411,1.08-0.411,1.491,0l3.729,3.729c0.412,0.412,0.412,1.079,0,1.491C21.129,19.807,20.859,19.909,20.59,19.909z"/>
				</g>
			</g>
			<g>
				<g>
					<circle fill="#EFE4B4" cx="31.175" cy="13.688" r="3.234"/>
				</g>
				<g>
					<circle fill="#EFE4B4" cx="40.734" cy="13.688" r="3.233"/>
				</g>
			</g>
			<g>
				<g>
					<path fill="#DB712A" d="M52.45,27.817c-0.582,0-1.054-0.472-1.054-1.054c-0.001-2.086,0.811-4.046,2.284-5.519
						c1.473-1.474,3.433-2.284,5.518-2.284c0.582,0,1.055,0.472,1.055,1.054c0,0.583-0.472,1.055-1.055,1.055
						c-1.521,0-2.952,0.592-4.027,1.667c-1.074,1.074-1.666,2.505-1.666,4.027C53.505,27.346,53.033,27.817,52.45,27.817z"/>
				</g>
				<g>
					<path fill="#DB712A" d="M52.45,32.316c-0.582,0-1.054-0.472-1.054-1.054c-0.001-2.086,0.811-4.046,2.284-5.519
						c1.473-1.474,3.433-2.284,5.518-2.285c0.582,0,1.055,0.473,1.055,1.055s-0.472,1.055-1.055,1.055
						c-1.521,0-2.952,0.592-4.027,1.666c-1.074,1.075-1.666,2.505-1.666,4.027C53.505,31.845,53.033,32.316,52.45,32.316z"/>
				</g>
				<g>
					<path fill="#DB712A" d="M19.482,27.817c-0.582,0-1.054-0.472-1.054-1.054c0-3.14-2.555-5.694-5.694-5.694
						c-0.582,0-1.054-0.472-1.054-1.054c0-0.583,0.472-1.055,1.054-1.055l0,0c4.303,0,7.803,3.5,7.803,7.803
						C20.537,27.346,20.065,27.817,19.482,27.817z"/>
				</g>
				<g>
					<path fill="#DB712A" d="M19.482,32.316c-0.582,0-1.054-0.472-1.054-1.055c0-3.139-2.555-5.693-5.694-5.693
						c-0.582,0-1.054-0.473-1.054-1.055s0.472-1.054,1.054-1.054l0,0c4.303,0,7.803,3.5,7.803,7.803
						C20.537,31.845,20.065,32.316,19.482,32.316z"/>
				</g>
			</g>
			<g>
				<path fill="#FB8C3B" d="M54.981,27.466c0,7.376-5.98,13.355-13.356,13.355H30.378c-7.376,0-13.355-5.979-13.355-13.355v-0.281
					c0-7.376,5.979-13.355,13.355-13.355h11.247c7.376,0,13.356,5.979,13.356,13.355V27.466z"/>
			</g>
			<g opacity="0.1" enable-background="new    ">
				<path d="M22.739,27.466v-0.281c0-7.376,5.98-13.355,13.356-13.355h-5.718c-7.376,0-13.355,5.979-13.355,13.355v0.281
					c0,7.376,5.979,13.355,13.355,13.355h5.718C28.72,40.821,22.739,34.842,22.739,27.466z"/>
			</g>
			<g>
				<g>
					<path fill="#B0CE6F" d="M18.81,28.057c0.731-1.8,2.388-3.074,4.321-3.325c0.516-0.066,1.029,0.142,1.353,0.55
						c1.209,1.529,1.507,3.597,0.774,5.397s-2.389,3.074-4.322,3.325c-0.516,0.066-1.028-0.142-1.352-0.55
						C18.374,31.926,18.077,29.856,18.81,28.057z"/>
				</g>
				<g>
					<path fill="#B0CE6F" d="M12.988,34.698c-1.8-0.732-3.074-2.389-3.324-4.322c-0.067-0.516,0.142-1.029,0.549-1.352
						c1.529-1.21,3.598-1.507,5.398-0.775c1.8,0.732,3.074,2.389,3.324,4.322c0.067,0.516-0.142,1.029-0.549,1.352
						C16.857,35.133,14.789,35.43,12.988,34.698z"/>
				</g>
			</g>
			<g>
				<g>
					<path fill="#79A85B" d="M19.548,36.534c-0.132,0-0.267-0.025-0.396-0.078c-0.54-0.219-0.799-0.834-0.58-1.374l2.458-6.043
						c0.219-0.539,0.833-0.8,1.373-0.579c0.54,0.219,0.8,0.834,0.58,1.373l-2.457,6.044C20.358,36.286,19.964,36.534,19.548,36.534z
						"/>
				</g>
				<g>
					<path fill="#79A85B" d="M20.411,35.014c-0.133,0-0.267-0.025-0.396-0.078l-6.043-2.457c-0.54-0.22-0.8-0.835-0.58-1.374
						c0.219-0.539,0.835-0.799,1.374-0.58l6.043,2.458c0.539,0.22,0.799,0.834,0.579,1.374
						C21.222,34.766,20.827,35.014,20.411,35.014z"/>
				</g>
			</g>
			<g>
				<circle fill="#EF645E" cx="56.584" cy="32.949" r="4.549"/>
			</g>
			<g>
				<path fill="#C69C6D" d="M5.302,34.636l1.003,7.223c0.096,0.695,0.69,1.213,1.393,1.213h55.391c0.702,0,1.296-0.518,1.393-1.213
					l1.003-7.223H5.302L5.302,34.636z"/>
			</g>
			<g opacity="0.1" enable-background="new    ">
				<path d="M11.998,41.858l-1.003-7.223H5.302l1.003,7.223c0.096,0.695,0.69,1.213,1.393,1.213h5.693
					C12.689,43.071,12.095,42.554,11.998,41.858z"/>
			</g>
			<g>
				<path fill="#A67C52" d="M68.782,35.742c0,1.232-0.999,2.231-2.231,2.231H4.234c-1.232,0-2.231-0.999-2.231-2.231l0,0
					c0-1.232,0.999-2.231,2.231-2.231h62.316C67.783,33.511,68.782,34.51,68.782,35.742L68.782,35.742z"/>
			</g>
			<g opacity="0.1" enable-background="new    ">
				<path d="M7.697,35.742c0-1.232,0.998-2.231,2.23-2.231H4.234c-1.232,0-2.231,0.999-2.231,2.231s0.999,2.231,2.231,2.231h5.693
					C8.695,37.974,7.697,36.975,7.697,35.742z"/>
			</g>
			<g>
				<path fill="#FB8C3B" d="M65.572,14.352c1.369-1.37,2.318-3.095,2.672-4.858c0.077-0.39-0.051-0.792-0.341-1.064
					s-0.7-0.375-1.085-0.272L60.87,9.751c-0.1,0.026-0.205-0.002-0.278-0.074c-0.072-0.073-0.101-0.179-0.074-0.278l1.594-5.949
					c0.104-0.384,0.001-0.794-0.271-1.084s-0.675-0.419-1.064-0.341c-1.764,0.354-3.488,1.303-4.858,2.672
					c-3.278,3.278-3.779,8.111-1.118,10.773C57.461,18.132,62.294,17.63,65.572,14.352z"/>
			</g>
			<g opacity="0.1">
				<g>
					<path d="M57.635,16.884c-2.662-2.661-2.16-7.494,1.118-10.772c0.941-0.942,2.052-1.686,3.228-2.173l0.131-0.489
						c0.104-0.384,0.001-0.794-0.271-1.084s-0.675-0.419-1.064-0.341c-1.763,0.354-3.488,1.303-4.858,2.672
						c-3.278,3.278-3.779,8.111-1.118,10.773c0.83,0.829,1.871,1.352,3.011,1.578C57.75,16.994,57.691,16.94,57.635,16.884z"/>
				</g>
			</g>
			<g>
				<path fill="#DB712A" d="M60.87,9.751c-0.1,0.026-0.205-0.002-0.278-0.074c-0.072-0.072-0.101-0.179-0.074-0.278l0.417-1.556
					l-2.398,2.398c-0.411,0.411-0.411,1.079,0,1.491c0.206,0.205,0.477,0.309,0.746,0.309s0.54-0.104,0.746-0.309l2.397-2.398
					L60.87,9.751z"/>
			</g>
			<g>
				<path fill="#FB8C3B" d="M6.432,14.352c-1.37-1.37-2.319-3.095-2.672-4.858C3.682,9.104,3.811,8.701,4.1,8.429
					c0.29-0.272,0.7-0.375,1.085-0.272l5.948,1.595c0.1,0.026,0.206-0.002,0.278-0.074c0.072-0.073,0.101-0.179,0.074-0.278
					L9.892,3.449c-0.104-0.384,0-0.794,0.271-1.084c0.272-0.29,0.675-0.419,1.064-0.341c1.764,0.354,3.488,1.303,4.858,2.672
					c3.278,3.278,3.78,8.111,1.118,10.773S9.709,17.63,6.432,14.352z"/>
			</g>
			<g>
				<path fill="#DB712A" d="M13.467,10.24l-2.398-2.397l0.417,1.556c0.027,0.1-0.002,0.206-0.074,0.278s-0.179,0.101-0.277,0.074
					L9.577,9.334l2.398,2.398c0.206,0.205,0.476,0.309,0.745,0.309c0.271,0,0.54-0.104,0.746-0.309
					C13.878,11.32,13.878,10.652,13.467,10.24z"/>
			</g>
			<g opacity="0.1">
				<g>
					<path d="M9.273,12.82c-1.21-1.21-2.092-2.698-2.524-4.244l-1.564-0.42C4.8,8.054,4.39,8.156,4.1,8.429
						C3.811,8.701,3.682,9.104,3.76,9.493c0.353,1.764,1.302,3.488,2.672,4.858c3.272,3.272,8.095,3.777,10.759,1.13
						C14.645,16.054,11.576,15.123,9.273,12.82z"/>
				</g>
			</g>
		</g>
		<g>
			<g>
				<path fill="#698B9E" d="M76.275,31.738c0.467-0.503,0.261-1.366-0.364-1.643c-1.457-0.649-0.859-2.807-2.078-2.691
					c-1.396,0.13-2.422-0.896-2.291-2.291c0.131-1.397-0.895-2.423-2.292-2.292s-0.035-2.042-2.295-2.291
					c0,0-1.575-0.609-1.725,0.898l-0.024,5.884h-9.083c-8.943,0-16.197,7.251-16.197,16.199v13.787h13.677
					c9.008,0,16.313-7.302,16.313-16.31v-9.046l5.868,0.055C75.994,31.967,76.152,31.868,76.275,31.738L76.275,31.738z
					 M76.275,31.738"/>
			</g>
			<g>
				<path fill="#5D7989" d="M57.572,52.744h-1.619c0-6.258-5.093-11.347-11.35-11.347v-1.623
					C51.755,39.774,57.572,45.592,57.572,52.744L57.572,52.744z M57.572,52.744"/>
			</g>
			<g>
				<path fill="#5D7989" d="M60.211,50.104h-1.622c0-6.257-5.09-11.347-11.346-11.347V37.14
					C54.394,37.14,60.211,42.957,60.211,50.104L60.211,50.104z M60.211,50.104"/>
			</g>
			<g>
				<path fill="#5D7989" d="M62.729,47.587H61.11c0-6.261-5.089-11.35-11.347-11.35v-1.619
					C56.911,34.618,62.729,40.437,62.729,47.587L62.729,47.587z M62.729,47.587"/>
			</g>
			<g>
				<path fill="#5D7989" d="M65.368,44.948h-1.622c0-6.258-5.09-11.348-11.347-11.348v-1.621
					C59.551,31.979,65.368,37.796,65.368,44.948L65.368,44.948z M65.368,44.948"/>
			</g>
			<g>
				<path fill="#546A79" d="M51.798,27.914c-0.32-1.606-0.985-3.351-2.247-5.093c0,0-6.665,3.305-3.931,8.37
					C47.39,29.68,49.49,28.552,51.798,27.914L51.798,27.914z M51.798,27.914"/>
			</g>
			<g>
				<path fill="#546A79" d="M69.622,44.018c-0.49,2.608-1.603,4.994-3.178,7.009c2.319,0.261,5.727,0.035,9.106-2.418
					C75.551,48.608,73.283,44.033,69.622,44.018L69.622,44.018z M69.622,44.018"/>
			</g>
			<g>
				<path fill="#38454F" d="M46.227,47.465c0,0.895-0.725,1.618-1.623,1.618c-0.895,0-1.618-0.724-1.618-1.618
					c0-0.896,0.724-1.623,1.618-1.623C45.502,45.842,46.227,46.569,46.227,47.465L46.227,47.465z M46.227,47.465"/>
			</g>
		</g>
	</g>
</g>
</svg>
