<?xml version="1.0" encoding="utf-8"?>
<!-- Generator: Adobe Illustrator 16.0.0, SVG Export Plug-In . SVG Version: 6.00 Build 0)  -->
<!DOCTYPE svg PUBLIC "-//W3C//DTD SVG 1.1//EN" "http://www.w3.org/Graphics/SVG/1.1/DTD/svg11.dtd">
<svg version="1.1" id="Layer_1" xmlns="http://www.w3.org/2000/svg" xmlns:xlink="http://www.w3.org/1999/xlink" x="0px" y="0px"
	 width="55.029px" height="46.447px" viewBox="0 0 55.029 46.447" enable-background="new 0 0 55.029 46.447" xml:space="preserve">
<g>
	<g>
		<g>
			<g>
				<path fill="#E8E8E8" d="M27.538,46.447c-2.694,0-5.392-0.608-7.499-1.826c-1.113-0.638-1.994-1.402-2.623-2.279
					c-0.147-0.057-0.289-0.112-0.419-0.164l-0.359-0.156c-0.301-0.132-0.628-0.274-0.888-0.399c-0.626-0.313-1.416-0.71-2.011-1.062
					c-0.444-0.258-1.043-0.621-1.481-0.91c-0.595-0.404-1.274-0.899-1.755-1.277c-0.283-0.206-0.7-0.554-1.014-0.823l-0.372-0.338
					c-0.343-0.311-0.72-0.655-1.012-0.947c-0.274-0.273-0.646-0.647-0.909-0.942l-0.221-0.248c-0.301-0.337-0.642-0.723-0.891-1.04
					c-0.36-0.469-1.015-1.333-1.481-2.022c-0.29-0.417-0.636-0.968-0.864-1.383c-0.306-0.512-0.563-0.985-0.737-1.353
					c-0.331-0.673-0.73-1.547-1.006-2.2c-0.17-0.394-0.372-0.971-0.518-1.394c-0.147-0.429-0.335-1.001-0.446-1.437
					c-0.17-0.633-0.389-1.563-0.552-2.35c-0.09-0.44-0.18-1.021-0.235-1.469c-0.022-0.14-0.122-0.823-0.153-1.459
					c-0.038-0.521-0.069-1.24-0.081-1.865C0.003,16.988,0,16.874,0,16.76c-0.025-4.81,3.082-9.215,8.751-12.394
					c10.64-5.973,27.725-5.795,38.085,0.396c1.932,1.153,3.57,2.479,4.868,3.938c2.188,2.466,3.337,5.281,3.325,8.144
					c0,0.274-0.011,0.604-0.021,0.903l-0.01,0.289c-0.023,0.427-0.065,0.918-0.098,1.285c-0.013,0.277-0.068,0.717-0.121,1.108
					l-0.039,0.272c-0.064,0.56-0.28,1.701-0.507,2.644l-0.03,0.121c-0.105,0.409-0.236,0.913-0.357,1.295
					c-0.238,0.716-0.551,1.63-0.811,2.306c-0.176,0.435-0.413,0.975-0.598,1.364l-0.1,0.206c-0.179,0.367-0.39,0.8-0.562,1.118
					c-0.336,0.612-0.839,1.452-1.284,2.146c-0.334,0.538-0.786,1.136-0.916,1.306c-0.284,0.379-0.684,0.898-1.005,1.263
					c-0.627,0.734-1.471,1.602-1.714,1.85c-0.345,0.345-0.862,0.836-1.322,1.222c-0.418,0.354-0.994,0.824-1.431,1.154
					c-1.329,0.993-2.493,1.688-3.07,2.015l-0.388,0.209c-0.282,0.152-0.585,0.315-0.832,0.439l-0.233,0.112
					c-0.468,0.225-1.051,0.505-1.562,0.698l-0.15,0.059c-0.079,0.031-0.16,0.062-0.243,0.095c-0.608,0.868-1.478,1.637-2.593,2.291
					C32.934,45.837,30.237,46.447,27.538,46.447z M27.423,3.942c-6.03,0-12.06,1.299-16.715,3.912
					C6.364,10.29,3.982,13.449,4,16.749l0.015,0.121L4.01,17c0.009,0.551,0.037,1.209,0.075,1.725
					c0.017,0.335,0.064,0.778,0.121,1.152c0.052,0.409,0.122,0.867,0.192,1.212c0.146,0.702,0.348,1.564,0.503,2.143
					c0.094,0.367,0.246,0.816,0.36,1.151c0.114,0.333,0.271,0.795,0.414,1.123c0.251,0.597,0.621,1.406,0.929,2.032
					c0.169,0.356,0.414,0.78,0.604,1.102c0.194,0.35,0.467,0.783,0.692,1.107c0.423,0.624,1.022,1.416,1.344,1.835
					c0.19,0.242,0.471,0.554,0.715,0.828l0.229,0.256c0.211,0.237,0.52,0.543,0.745,0.77c0.252,0.251,0.578,0.547,0.874,0.815
					l0.337,0.308c0.191,0.162,0.515,0.436,0.777,0.628c0.462,0.361,1.067,0.803,1.562,1.139c0.359,0.236,0.882,0.553,1.282,0.786
					c0.486,0.288,1.204,0.647,1.728,0.91c0.213,0.103,0.489,0.223,0.743,0.333l0.312,0.137c0.184,0.072,0.483,0.187,0.773,0.297
					l0.837,0.318l0.353,0.657c0.264,0.49,0.79,0.972,1.521,1.391c2.997,1.73,8.021,1.731,10.979,0.007
					c0.924-0.542,1.316-1.047,1.482-1.375l0.362-0.714l0.755-0.268c0.283-0.1,0.555-0.206,0.802-0.303l0.172-0.066
					c0.398-0.151,0.867-0.38,1.264-0.57l0.208-0.1c0.182-0.091,0.442-0.232,0.687-0.364l0.367-0.197
					c0.447-0.255,1.446-0.851,2.59-1.706c0.377-0.284,0.881-0.695,1.255-1.013c0.302-0.254,0.724-0.645,1.06-0.979
					c0.441-0.45,1.086-1.132,1.533-1.654c0.277-0.316,0.599-0.739,0.841-1.062c0.276-0.361,0.554-0.756,0.72-1.023
					c0.411-0.64,0.868-1.403,1.156-1.928c0.146-0.267,0.324-0.636,0.476-0.949l0.092-0.187c0.144-0.307,0.346-0.767,0.484-1.106
					c0.227-0.589,0.514-1.435,0.725-2.068c0.092-0.292,0.2-0.716,0.288-1.06c0.295-1.221,0.428-2.141,0.443-2.251l0.042-0.322
					c0.038-0.28,0.084-0.595,0.097-0.846c0.033-0.405,0.071-0.854,0.091-1.188l0.008-0.249c0.009-0.257,0.019-0.539,0.019-0.773
					v-0.009c0.009-1.864-0.792-3.757-2.315-5.474c-1.025-1.152-2.348-2.217-3.93-3.16C40.048,5.365,33.734,3.942,27.423,3.942z"/>
			</g>
		</g>
		<g>
			<g>
				<path fill="#FFFFFF" d="M27.539,45.954c-2.605,0-5.213-0.589-7.25-1.766c-1.104-0.632-1.96-1.391-2.551-2.259
					c-0.195-0.075-0.386-0.148-0.556-0.217l-0.345-0.15c-0.296-0.128-0.616-0.269-0.87-0.391c-0.612-0.307-1.395-0.698-1.974-1.042
					c-0.44-0.256-1.029-0.614-1.461-0.898c-0.58-0.394-1.249-0.881-1.721-1.253c-0.288-0.209-0.693-0.548-0.998-0.809l-0.361-0.329
					c-0.336-0.306-0.708-0.644-0.994-0.931c-0.269-0.268-0.632-0.633-0.89-0.922L7.349,34.74c-0.293-0.329-0.627-0.705-0.87-1.016
					c-0.354-0.461-1.002-1.315-1.461-1.994c-0.285-0.409-0.619-0.943-0.841-1.345c-0.305-0.512-0.556-0.971-0.724-1.324
					c-0.329-0.671-0.725-1.535-0.996-2.18c-0.168-0.388-0.364-0.951-0.506-1.363c-0.143-0.417-0.326-0.973-0.435-1.397
					c-0.169-0.63-0.385-1.55-0.546-2.327c-0.088-0.428-0.176-0.993-0.229-1.429c-0.054-0.348-0.126-0.936-0.149-1.422
					c-0.039-0.529-0.07-1.244-0.081-1.864C0.502,16.973,0.5,16.866,0.5,16.76C0.476,12.138,3.493,7.889,8.996,4.802
					c10.5-5.896,27.361-5.72,37.583,0.391c1.889,1.127,3.487,2.419,4.752,3.841c2.104,2.373,3.21,5.073,3.198,7.812
					c0,0.27-0.011,0.593-0.021,0.887l-0.01,0.291c-0.022,0.407-0.064,0.894-0.096,1.257c-0.013,0.283-0.068,0.707-0.119,1.085
					l-0.039,0.275c-0.054,0.466-0.245,1.546-0.496,2.591l-0.029,0.112c-0.104,0.4-0.231,0.895-0.35,1.27
					c-0.233,0.701-0.543,1.607-0.801,2.276c-0.169,0.418-0.402,0.949-0.583,1.331l-0.097,0.2c-0.176,0.36-0.383,0.785-0.553,1.098
					c-0.33,0.602-0.826,1.431-1.266,2.114c-0.325,0.525-0.766,1.106-0.892,1.271c-0.281,0.374-0.671,0.881-0.983,1.237
					c-0.621,0.728-1.455,1.585-1.696,1.83c-0.416,0.417-0.917,0.879-1.286,1.188c-0.413,0.351-0.98,0.812-1.411,1.138
					c-1.304,0.976-2.448,1.658-3.015,1.979l-0.379,0.204c-0.278,0.15-0.575,0.311-0.818,0.433l-0.227,0.108
					c-0.459,0.221-1.031,0.496-1.523,0.682l-0.154,0.061c-0.124,0.049-0.253,0.099-0.387,0.149c-0.569,0.86-1.415,1.622-2.521,2.271
					C32.753,45.364,30.146,45.954,27.539,45.954z M27.422,3.449c-6.119,0-12.235,1.318-16.958,3.969
					c-4.51,2.529-6.982,5.844-6.964,9.334l0.011,0.091L3.51,17c0.009,0.568,0.038,1.236,0.076,1.761
					c0.018,0.343,0.065,0.797,0.126,1.192c0.052,0.406,0.124,0.88,0.197,1.236c0.146,0.711,0.352,1.585,0.51,2.172
					c0.095,0.372,0.251,0.838,0.369,1.184c0.119,0.345,0.282,0.82,0.429,1.159c0.253,0.601,0.628,1.421,0.939,2.054
					c0.171,0.362,0.425,0.804,0.623,1.137c0.196,0.354,0.474,0.796,0.712,1.139c0.426,0.629,1.033,1.431,1.357,1.854
					c0.199,0.254,0.487,0.574,0.738,0.855l0.227,0.255c0.219,0.245,0.535,0.56,0.767,0.792c0.257,0.257,0.59,0.559,0.891,0.832
					l0.335,0.306c0.214,0.182,0.549,0.464,0.82,0.663c0.456,0.358,1.074,0.808,1.576,1.149c0.372,0.245,0.904,0.566,1.312,0.804
					c0.499,0.296,1.225,0.659,1.756,0.925c0.225,0.109,0.507,0.232,0.767,0.345l0.311,0.136c0.202,0.08,0.505,0.195,0.798,0.307
					l0.662,0.253L20.071,40c0.309,0.573,0.9,1.122,1.714,1.588c3.129,1.808,8.384,1.808,11.479,0.006
					c0.813-0.478,1.395-1.025,1.677-1.581l0.271-0.536l0.566-0.2c0.289-0.103,0.564-0.21,0.816-0.309l0.171-0.066
					c0.407-0.154,0.891-0.389,1.299-0.585l0.208-0.1c0.193-0.097,0.46-0.241,0.708-0.376l0.364-0.195
					c0.47-0.267,1.489-0.875,2.655-1.747c0.385-0.29,0.897-0.709,1.278-1.032c0.31-0.26,0.745-0.662,1.09-1.007
					c0.45-0.459,1.104-1.15,1.56-1.684c0.281-0.319,0.612-0.754,0.86-1.086c0.283-0.368,0.571-0.779,0.746-1.06
					c0.345-0.537,0.831-1.334,1.169-1.951c0.149-0.273,0.332-0.651,0.487-0.971l0.091-0.187c0.15-0.32,0.356-0.789,0.498-1.137
					c0.232-0.604,0.522-1.458,0.736-2.099c0.097-0.308,0.207-0.741,0.298-1.093c0.305-1.264,0.438-2.197,0.454-2.312l0.043-0.32
					c0.04-0.294,0.086-0.624,0.1-0.887c0.033-0.392,0.071-0.845,0.092-1.184l0.008-0.261c0.009-0.263,0.019-0.552,0.019-0.791
					v-0.007c0.009-1.988-0.835-3.997-2.441-5.808c-1.06-1.19-2.422-2.287-4.047-3.258C40.233,4.895,33.826,3.449,27.422,3.449z"/>
			</g>
		</g>
	</g>
	<g>
		<g>
			<g>
				<path fill="#C6C5CB" d="M36.683,36.979c0.058-1.407-0.842-2.827-2.702-3.901c-3.595-2.075-9.402-2.074-12.974,0.001
					c-1.778,1.033-2.666,2.388-2.665,3.743c0-0.004,0-0.008,0-0.013l-0.007,2.301c-0.004,1.368,0.899,2.739,2.708,3.783
					c3.594,2.075,9.402,2.075,12.973,0c1.773-1.031,2.662-2.38,2.666-3.731l0.007-2.301C36.688,36.9,36.685,36.939,36.683,36.979z"
					/>
			</g>
			<g>
				<path fill="#C6C5CB" d="M36.688,36.861l-0.007,2.301c-0.004,1.352-0.893,2.7-2.666,3.731c-3.57,2.074-9.379,2.075-12.973,0
					c-1.809-1.044-2.712-2.415-2.708-3.783l0.007-2.301c-0.004,1.368,0.899,2.739,2.708,3.783c3.594,2.075,9.402,2.074,12.972,0
					C35.796,39.562,36.685,38.212,36.688,36.861z"/>
			</g>
		</g>
		<g>
			<g>
				<path fill="#E0E0E2" d="M33.98,33.078c3.594,2.075,3.612,5.439,0.041,7.515c-3.569,2.074-9.378,2.075-12.972,0
					c-3.595-2.075-3.612-5.439-0.043-7.514C24.578,31.004,30.386,31.003,33.98,33.078z"/>
			</g>
			<g>
				<path fill="#E0E0E2" d="M53.022,16.907c0.051-3.751-2.347-7.519-7.216-10.429C35.985,0.607,19.833,0.443,9.729,6.113
					C4.561,9.014,1.977,12.878,2,16.748c-0.001-0.024-0.001-0.051-0.002-0.075C1.998,16.701,2,16.729,2,16.758
					c0,0.058,0.001,0.114,0.003,0.172c0.001,0.047,0.002,0.094,0.004,0.141c0-0.024-0.001-0.05-0.001-0.073
					c0.001,0.037,0.002,0.075,0.004,0.113c-0.001-0.014-0.002-0.026-0.003-0.04c0.016,0.591,0.044,1.27,0.079,1.804
					c0.025,0.395,0.088,0.919,0.142,1.311c0.054,0.394,0.129,0.918,0.209,1.307c0.142,0.681,0.35,1.585,0.529,2.257
					c0.104,0.389,0.27,0.899,0.399,1.28c0.132,0.386,0.313,0.898,0.474,1.273c0.273,0.643,0.659,1.491,0.968,2.119
					c0.187,0.38,0.468,0.869,0.679,1.236c0.218,0.378,0.523,0.875,0.772,1.234c0.405,0.584,0.97,1.347,1.406,1.908
					c0.289,0.373,0.711,0.841,1.028,1.19c0.241,0.267,0.576,0.609,0.832,0.862c0.368,0.365,0.881,0.831,1.27,1.174
					c0.274,0.242,0.65,0.553,0.941,0.774c0.479,0.365,1.129,0.839,1.628,1.176c0.409,0.275,0.971,0.616,1.396,0.865
					c0.545,0.319,1.299,0.698,1.865,0.979c0.329,0.162,0.78,0.354,1.118,0.497c0.456,0.192,1.074,0.421,1.541,0.583
					c0.39,0.135,0.913,0.302,1.311,0.408c0.684,0.184,1.605,0.391,2.299,0.534c0.355,0.074,0.837,0.142,1.197,0.191
					c0.342,0.047,0.798,0.104,1.142,0.128c0.679,0.046,1.586,0.099,2.267,0.103c0.342,0.001,0.798-0.01,1.139-0.025
					c0.342-0.015,0.796-0.052,1.137-0.075c0.359-0.024,0.837-0.093,1.195-0.135c0.623-0.073,1.929-0.32,2.472-0.463
					c0.469-0.123,1.098-0.275,1.559-0.426c0.702-0.229,1.628-0.567,2.315-0.838c0.492-0.193,1.127-0.503,1.603-0.735
					c0.344-0.168,0.793-0.413,1.128-0.6c0.538-0.301,1.624-0.943,2.853-1.866c0.417-0.312,0.957-0.751,1.352-1.092
					c0.366-0.314,0.845-0.745,1.183-1.09c0.507-0.517,1.163-1.225,1.639-1.77c0.292-0.334,0.651-0.803,0.917-1.157
					c0.258-0.343,0.593-0.808,0.823-1.17c0.378-0.595,0.865-1.399,1.204-2.019c0.197-0.359,0.438-0.851,0.612-1.222
					c0.172-0.366,0.395-0.858,0.539-1.236c0.249-0.651,0.557-1.528,0.771-2.191c0.121-0.377,0.254-0.89,0.348-1.274
					c0.336-1.37,0.472-2.421,0.473-2.431c0.048-0.392,0.127-0.911,0.156-1.305c0.025-0.349,0.064-0.812,0.081-1.161
					c0.017-0.351,0.03-0.818,0.03-1.169C53.025,16.846,53.023,16.876,53.022,16.907z"/>
			</g>
		</g>
		<g>
			<path fill="#C6C5CB" d="M15.987,36.021c-0.758-0.467-1.733-1.147-2.441-1.686c-0.494-0.376-1.126-0.916-1.562-1.357
				c-0.674-0.685-1.56-1.615-2.153-2.37s-1.321-1.815-1.794-2.651c-0.42-0.742-0.943-1.757-1.261-2.549
				c-0.389-0.966-0.819-2.289-1.086-3.296c-0.213-0.8-0.394-1.892-0.491-2.714c-0.096-0.811-0.141-1.9-0.155-2.716
				c0.01-3.386,2.286-6.762,6.808-9.3l0,0c8.898-4.993,23.124-4.85,31.772,0.321c4.254,2.543,6.366,5.827,6.357,9.104l0,0
				c-0.023,0.54-0.012,1.263-0.076,1.799c-0.129,1.056-0.294,2.473-0.569,3.5c-0.21,0.782-0.498,1.827-0.799,2.578
				c-0.192,0.478-0.447,1.115-0.668,1.581c-0.241,0.512-0.583,1.185-0.87,1.672c-0.502,0.854-1.245,1.952-1.854,2.734
				c-0.543,0.696-1.347,1.561-1.975,2.182c-0.517,0.51-1.244,1.154-1.826,1.589c-0.354,0.264-0.822,0.622-1.19,0.867
				c-0.485,0.322-1.145,0.735-1.652,1.021c-0.698,0.395-1.662,0.862-2.402,1.168c-0.403,0.167-0.946,0.371-1.358,0.513
				c-0.363,0.125-0.852,0.283-1.225,0.379c-0.321,0.082-0.748,0.204-1.073,0.27c-0.318,0.063-0.741,0.155-1.061,0.212
				c-0.318,0.056-0.745,0.117-1.065,0.159c-0.309,0.041-0.72,0.088-1.029,0.105c-0.301,0.018-0.701,0.046-1.002,0.057
				c-0.3,0.011-0.7,0.017-1,0.012c-0.602-0.008-1.403-0.062-2.003-0.109c-0.309-0.023-0.718-0.079-1.023-0.125
				c-0.314-0.048-0.732-0.117-1.045-0.178c-0.321-0.063-0.745-0.164-1.065-0.235c-0.327-0.072-0.756-0.203-1.078-0.294
				c-0.568-0.16-1.682-0.554-2.434-0.886c-0.363-0.16-0.846-0.379-1.198-0.56C16.996,36.591,16.41,36.281,15.987,36.021z"/>
		</g>
		<g>
			<path fill="#FFB657" d="M12.457,11.815c-8.553,4.8-8.747,12.72-0.433,17.69c8.313,4.97,21.987,5.108,30.541,0.309
				s8.748-12.72,0.434-17.689C34.686,7.154,21.011,7.017,12.457,11.815"/>
		</g>
		<g>
			<path fill="#8FCC05" d="M32.725,18.333c-0.391-0.226-4.513,0.103-6.376,1.185c-1.863,1.083-1.261,2.123-0.285,2.687
				s2.772,0.908,4.636-0.174C32.562,20.947,33.059,18.525,32.725,18.333"/>
		</g>
		<g>
			<g>
				<polyline fill="#9CDD03" points="30.278,18.897 30.074,19.865 30.32,19.722 30.278,18.897 				"/>
			</g>
			<g>
				<polyline fill="#9CDD03" points="28.764,19.413 28.874,20.562 29.121,20.419 28.764,19.413 				"/>
			</g>
			<g>
				<polyline fill="#9CDD03" points="27.146,19.869 27.675,21.259 27.921,21.116 27.146,19.869 				"/>
			</g>
			<g>
				<polyline fill="#9CDD03" points="31.743,19.743 30.32,19.722 30.074,19.865 31.743,19.743 				"/>
			</g>
			<g>
				<polyline fill="#9CDD03" points="30.857,20.622 29.121,20.419 28.874,20.562 30.857,20.622 				"/>
			</g>
			<g>
				<polyline fill="#9CDD03" points="30.076,21.561 27.921,21.116 27.675,21.259 30.076,21.561 				"/>
			</g>
			<g>
				<path fill="#9CDD03" d="M24.085,22.751c-0.001,0-0.002,0.001-0.002,0.001c-0.001,0-0.001,0-0.001,0l0,0
					c-0.044,0.025-0.071,0.08-0.071,0.157c0,0.155,0.108,0.344,0.244,0.422c0.071,0.042,0.137,0.043,0.182,0.012
					c-0.003,0.002-0.005,0.004-0.008,0.005c0,0,7.141-4.201,7.099-4.232C31.46,19.077,24.24,22.674,24.085,22.751z"/>
			</g>
		</g>
		<g>
			<path fill="#FFA834" d="M13.98,13.338L13.98,13.338c8.553-4.799,22.227-4.661,30.541,0.31c0.897,0.536,1.694,1.106,2.394,1.703
				c-0.978-1.158-2.282-2.249-3.916-3.226c-8.313-4.971-21.988-5.108-30.542-0.31l0,0c-7.63,4.282-8.607,11.048-2.826,15.986
				C5.633,23.065,7.107,17.194,13.98,13.338z"/>
		</g>
		<g>
			<g>
				<path fill="#FEC377" d="M12.152,16.729c-1.46,0.819-1.493,2.171-0.073,3.02c1.419,0.849,3.754,0.872,5.214,0.053
					c1.461-0.819,1.494-2.172,0.074-3.02C15.947,15.934,13.613,15.909,12.152,16.729"/>
			</g>
			<g>
				<path fill="#FEC377" d="M21.069,17.137c-0.871,0.488-0.892,1.296-0.044,1.802c0.847,0.507,2.24,0.521,3.112,0.032
					c0.871-0.489,0.891-1.297,0.044-1.803C23.334,16.661,21.941,16.647,21.069,17.137"/>
			</g>
		</g>
		<g>
			<path fill="#FFA834" d="M24.03,22.752L24.03,22.752L24.03,22.752c-0.047,0.026-0.076,0.085-0.076,0.167
				c-0.001,0.164,0.115,0.365,0.259,0.447c0.076,0.045,0.145,0.046,0.192,0.013c-0.003,0.002-0.005,0.004-0.008,0.006
				c0,0,0.63-0.371,1.526-0.899c-0.111-0.047-0.218-0.099-0.316-0.157c-0.112-0.067-0.21-0.139-0.294-0.215
				c-0.735,0.365-1.24,0.617-1.281,0.638C24.031,22.751,24.031,22.751,24.03,22.752z"/>
		</g>
		<g>
			<path fill="#FEC377" d="M17.277,23.063c-0.644,0.36-0.658,0.957-0.032,1.331s1.655,0.385,2.299,0.023s0.658-0.958,0.032-1.332
				S17.921,22.702,17.277,23.063"/>
		</g>
		<g>
			<path fill="#D8D8DA" d="M40.045,38.968c-0.335,0.187-0.784,0.432-1.128,0.6c-0.476,0.232-1.11,0.542-1.603,0.735
				c-0.688,0.271-1.613,0.608-2.315,0.838c-0.461,0.15-1.09,0.303-1.559,0.426c-0.543,0.143-1.849,0.39-2.472,0.463
				c-0.358,0.042-0.836,0.11-1.195,0.135c-0.341,0.023-0.795,0.061-1.137,0.075c-0.341,0.016-0.797,0.026-1.139,0.025
				c-0.681-0.004-1.588-0.057-2.267-0.103c-0.344-0.023-0.8-0.081-1.142-0.128c-0.36-0.05-0.842-0.117-1.197-0.191
				c-0.693-0.144-1.615-0.351-2.299-0.534c-0.397-0.106-0.921-0.273-1.311-0.408c-0.467-0.162-1.085-0.391-1.541-0.583
				c-0.338-0.144-0.789-0.335-1.118-0.497c-0.566-0.28-1.32-0.658-1.865-0.979c-0.425-0.249-0.987-0.59-1.396-0.865
				c-0.499-0.337-1.148-0.811-1.628-1.176c-0.291-0.222-0.667-0.533-0.941-0.774c-0.39-0.343-0.901-0.809-1.271-1.174
				c-0.255-0.253-0.59-0.596-0.831-0.862c-0.317-0.35-0.739-0.817-1.028-1.19c-0.437-0.562-1.001-1.324-1.406-1.908
				c-0.249-0.359-0.555-0.856-0.772-1.234c-0.211-0.367-0.493-0.856-0.68-1.236c-0.308-0.628-0.693-1.477-0.968-2.119
				c-0.159-0.375-0.341-0.888-0.473-1.273c-0.13-0.381-0.295-0.892-0.399-1.28c-0.18-0.672-0.388-1.576-0.529-2.257
				c-0.08-0.389-0.155-0.913-0.209-1.307c-0.054-0.392-0.116-0.916-0.143-1.311c-0.042-0.659-0.075-1.541-0.087-2.201
				c-0.01,3.72,2.389,7.449,7.219,10.337c9.821,5.871,25.974,6.034,36.078,0.364c5.135-2.881,7.719-6.715,7.73-10.559
				c0,0.351-0.014,0.818-0.03,1.168s-0.056,0.813-0.081,1.162c-0.029,0.393-0.108,0.913-0.156,1.305
				c-0.001,0.01-0.137,1.061-0.473,2.43c-0.094,0.386-0.227,0.897-0.348,1.275c-0.215,0.663-0.522,1.54-0.771,2.19
				c-0.145,0.378-0.367,0.87-0.539,1.237c-0.174,0.371-0.415,0.862-0.612,1.222c-0.339,0.618-0.826,1.424-1.204,2.019
				c-0.23,0.362-0.565,0.827-0.823,1.17c-0.266,0.354-0.625,0.823-0.917,1.157c-0.476,0.545-1.132,1.253-1.639,1.77
				c-0.338,0.345-0.816,0.775-1.183,1.09c-0.395,0.34-0.935,0.778-1.352,1.092C41.669,38.024,40.583,38.667,40.045,38.968z"/>
		</g>
		<g>
			<path fill="#E0E0E2" d="M9.729,6.113c10.104-5.67,26.257-5.506,36.078,0.365c9.821,5.87,9.592,15.227-0.512,20.896
				c-10.104,5.67-26.257,5.507-36.078-0.364S-0.375,11.783,9.729,6.113z M11.851,7.382c-8.897,4.993-9.1,13.232-0.45,18.403
				c8.648,5.17,22.874,5.313,31.771,0.32c8.898-4.993,9.101-13.231,0.451-18.402C34.975,2.532,20.749,2.389,11.851,7.382"/>
		</g>
	</g>
</g>
</svg>
