<?xml version="1.0" encoding="utf-8"?>
<!-- Generator: Adobe Illustrator 16.0.0, SVG Export Plug-In . SVG Version: 6.00 Build 0)  -->
<!DOCTYPE svg PUBLIC "-//W3C//DTD SVG 1.1//EN" "http://www.w3.org/Graphics/SVG/1.1/DTD/svg11.dtd">
<svg version="1.1" id="Layer_1" xmlns="http://www.w3.org/2000/svg" xmlns:xlink="http://www.w3.org/1999/xlink" x="0px" y="0px"
	 width="52.931px" height="55.294px" viewBox="0 0 52.931 55.294" enable-background="new 0 0 52.931 55.294" xml:space="preserve">
<g>
	<g>
		<g>
			<g>
				<path fill="#E8E8E8" d="M35.912,55.294c-1.674,0-3.35-0.385-4.69-1.156l-9.892-5.711c-1.628-0.943-2.55-2.366-2.53-3.908v-0.641
					c-2.185,0.344-4.577,0.007-6.365-1.019L2.54,37.146C0.923,36.203,0,34.79,0,33.264v-22.53c0-1.521,0.911-2.927,2.5-3.856
					l9.835-5.713c2.666-1.551,6.698-1.553,9.376-0.002L31.6,6.871c1.636,0.944,2.562,2.381,2.54,3.94v0.61
					c2.185-0.35,4.572-0.004,6.361,1.03l9.889,5.709c0.557,0.324,1.029,0.694,1.409,1.104c0.245,0.265,0.453,0.553,0.614,0.854
					c0.339,0.569,0.531,1.273,0.517,1.97v22.485c0,1.506-0.908,2.906-2.492,3.842l-9.843,5.718
					C39.263,54.907,37.588,55.294,35.912,55.294z M22.8,44.538c0.011,0,0.123,0.188,0.532,0.426l9.888,5.708
					c1.436,0.827,3.945,0.828,5.365,0.003l9.83-5.71c0.435-0.257,0.523-0.455,0.524-0.457l-0.052-22.5
					c-0.075-0.079-0.221-0.221-0.503-0.385L38.5,15.916c-1.409-0.816-3.96-0.819-5.352-0.005l-3.009,1.756v-6.883
					c-0.012-0.027-0.152-0.225-0.54-0.448l-9.89-5.71c-1.408-0.816-3.965-0.815-5.365-0.003l-9.83,5.71
					c-0.438,0.256-0.521,0.453-0.522,0.455L4,33.256c0-0.02,0.107,0.175,0.547,0.431l9.883,5.705c1.406,0.807,3.969,0.808,5.371,0
					l2.999-1.729V44.538L22.8,44.538z"/>
			</g>
		</g>
		<g>
			<g>
				<path fill="#FFFFFF" d="M35.911,54.781c-1.595,0-3.191-0.358-4.439-1.077l-9.892-5.711c-1.467-0.849-2.297-2.112-2.28-3.468
					v-1.26c-2.221,0.484-4.794,0.206-6.616-0.841L2.79,36.713c-1.457-0.85-2.29-2.105-2.29-3.449v-22.53
					c0-1.339,0.821-2.587,2.252-3.425l9.835-5.712c2.481-1.442,6.381-1.444,8.874-0.002l9.889,5.71
					c1.474,0.851,2.309,2.127,2.29,3.5v1.229c2.216-0.488,4.787-0.204,6.611,0.851l9.889,5.71c0.513,0.298,0.946,0.637,1.292,1.011
					c0.217,0.234,0.4,0.487,0.541,0.749c0.303,0.51,0.471,1.125,0.457,1.729v22.491c0,1.344-0.798,2.556-2.247,3.411l-9.84,5.716
					C39.104,54.422,37.509,54.781,35.911,54.781z M22.3,38.528v6.016c-0.002,0.201,0.241,0.539,0.782,0.853l9.888,5.709
					c1.571,0.903,4.312,0.905,5.866,0.002l9.831-5.71c0.523-0.31,0.763-0.638,0.763-0.823l0.001-22.559
					c0.001-0.029-0.018-0.098-0.071-0.188c-0.036-0.064-0.062-0.112-0.128-0.182c-0.142-0.153-0.352-0.313-0.596-0.455l-9.886-5.708
					c-1.567-0.907-4.303-0.907-5.854-0.004l-2.256,1.317v-6.012c0.003-0.206-0.203-0.543-0.79-0.882l-9.89-5.71
					c-1.567-0.905-4.309-0.907-5.866-0.002L4.264,9.9C3.701,10.229,3.5,10.556,3.5,10.733v22.53c0,0.194,0.246,0.534,0.796,0.854
					l9.884,5.707c1.566,0.896,4.311,0.899,5.871-0.001L22.3,38.528z"/>
			</g>
		</g>
	</g>
	<g>
		<g>
			<path fill="#1D1D1F" d="M32.136,10.783c0.016-0.787-0.497-1.577-1.537-2.178l-9.891-5.711c-2.041-1.178-5.339-1.178-7.366,0
				L3.514,8.605C2.504,9.192,2,9.962,2.001,10.731c0-0.002,0-0.005,0-0.007v22.536c-0.003,0.777,0.511,1.556,1.537,2.148
				l9.892,5.711c2.04,1.178,5.339,1.178,7.366,0l9.827-5.711c1.007-0.585,1.512-1.352,1.514-2.118V10.754
				C32.137,10.764,32.136,10.773,32.136,10.783z"/>
		</g>
		<g>
			<path fill="#2E2E30" d="M32.137,10.754V33.29c-0.003,0.768-0.507,1.533-1.514,2.119V12.872
				C31.63,12.287,32.134,11.521,32.137,10.754z"/>
		</g>
		<g>
			<g>
				<path fill="#1D1D1F" d="M2.001,33.261V10.725c-0.003,0.776,0.51,1.555,1.537,2.147v22.537
					C2.511,34.816,1.998,34.038,2.001,33.261z"/>
			</g>
			<g>
				<polygon fill="#1D1D1F" points="30.623,12.872 30.623,35.409 20.796,41.12 20.796,18.583 				"/>
			</g>
		</g>
		<g>
			<polygon fill="#2E2E30" points="13.43,18.583 13.43,41.12 3.538,35.409 3.538,12.872 			"/>
		</g>
		<g>
			<path fill="#3E3D43" d="M20.796,18.583V41.12c-2.027,1.178-5.326,1.178-7.366,0V18.583C15.47,19.761,18.769,19.761,20.796,18.583
				z"/>
		</g>
		<g>
			<path fill="#57565C" d="M30.599,8.605c2.041,1.178,2.052,3.089,0.024,4.267l-9.827,5.711c-2.027,1.179-5.326,1.179-7.366,0
				l-9.892-5.711c-2.041-1.178-2.052-3.088-0.024-4.267l9.828-5.711c2.027-1.178,5.325-1.178,7.366,0L30.599,8.605z"/>
		</g>
		<g>
			<path fill="#E0E0E2" d="M17.117,18.475c-1.202,0-2.365-0.273-3.191-0.751l-9.892-5.711c-0.661-0.381-1.041-0.849-1.042-1.282
				c0-0.429,0.371-0.891,1.021-1.268l9.827-5.711c0.819-0.476,1.979-0.749,3.18-0.749c1.202,0,2.365,0.273,3.192,0.751l9.891,5.71
				c0.662,0.382,1.041,0.85,1.042,1.283c0.001,0.429-0.371,0.89-1.021,1.268l-9.827,5.711
				C19.478,18.201,18.318,18.475,17.117,18.475z"/>
		</g>
		<g>
			<g>
				<path fill="#86BC06" d="M18.812,14.829l4.426-2.555c0.488-0.282,0.732-0.652,0.731-1.021l-0.024-2.03c0,0.001,0,0.003,0,0.004
					c0.001-0.366-0.239-0.731-0.72-1.011L18.828,5.66c-0.964-0.561-2.533-0.561-3.503,0l-4.426,2.555
					c-0.502,0.29-0.745,0.674-0.729,1.054c-0.001-0.011-0.002-0.021-0.002-0.031l0.024,2.029c0.001,0.365,0.24,0.729,0.72,1.008
					l4.396,2.555C16.273,15.39,17.842,15.39,18.812,14.829z"/>
			</g>
			<g>
				<path fill="#86BC06" d="M10.192,11.267l-0.024-2.029c0.001,0.364,0.241,0.729,0.72,1.007l0.024,2.03
					C10.433,11.996,10.193,11.632,10.192,11.267z"/>
			</g>
		</g>
		<g>
			<path fill="#7AAB02" d="M23.944,9.223l0.024,2.03c0.001,0.369-0.243,0.739-0.731,1.021l-0.024-2.03
				C23.702,9.963,23.945,9.593,23.944,9.223z"/>
		</g>
		<g>
			<polygon fill="#86BC06" points="15.284,12.8 15.309,14.829 10.912,12.274 10.888,10.244 			"/>
		</g>
		<g>
			<polygon fill="#7AAB02" points="23.213,10.244 23.237,12.274 18.812,14.829 18.788,12.8 			"/>
		</g>
		<g>
			<path fill="#8FCC05" d="M18.788,12.8l0.024,2.029c-0.971,0.561-2.539,0.561-3.504,0L15.284,12.8
				C16.249,13.36,17.817,13.36,18.788,12.8z"/>
		</g>
		<g>
			<path fill="#9CDD03" d="M18.788,12.8c-0.971,0.561-2.539,0.561-3.504,0l-4.396-2.556c-0.964-0.56-0.959-1.469,0.012-2.029
				l4.426-2.555c0.971-0.561,2.539-0.561,3.503,0l4.396,2.556c0.965,0.56,0.959,1.469-0.011,2.029L18.788,12.8z"/>
		</g>
		<g>
			<path fill="#1D1D1F" d="M50.931,22.067c0.016-0.786-0.497-1.577-1.537-2.177l-9.892-5.711c-2.04-1.179-5.338-1.179-7.366,0
				l-9.827,5.711c-1.01,0.587-1.515,1.356-1.513,2.126c0-0.003,0-0.005,0-0.008v22.537c-0.003,0.777,0.511,1.556,1.537,2.148
				l9.892,5.71c2.04,1.179,5.339,1.179,7.366,0l9.827-5.711c1.007-0.585,1.511-1.351,1.514-2.118V22.038
				C50.932,22.048,50.931,22.058,50.931,22.067z"/>
		</g>
		<g>
			<g>
				<path fill="#1D1D1F" d="M20.796,44.546V22.009c-0.003,0.777,0.511,1.556,1.537,2.148v22.537
					C21.307,46.102,20.793,45.323,20.796,44.546z"/>
			</g>
			<g>
				<polygon fill="#1D1D1F" points="49.418,24.157 49.418,46.693 39.591,52.405 39.591,29.868 				"/>
			</g>
		</g>
		<g>
			<polygon fill="#2E2E30" points="32.225,29.868 32.225,52.405 22.333,46.694 22.333,24.157 			"/>
		</g>
		<g>
			<path fill="#3E3D43" d="M39.591,29.868v22.536c-2.027,1.179-5.326,1.179-7.366,0V29.868
				C34.265,31.046,37.563,31.046,39.591,29.868z"/>
		</g>
		<g>
			<path fill="#57565C" d="M49.394,19.891c2.041,1.178,2.052,3.088,0.024,4.267l-9.827,5.711c-2.027,1.178-5.326,1.178-7.366,0
				l-9.892-5.711c-2.041-1.179-2.052-3.089-0.023-4.267l9.827-5.711c2.027-1.179,5.325-1.179,7.365,0L49.394,19.891z"/>
		</g>
		<g>
			<path fill="#E0E0E2" d="M35.912,29.76c-1.202,0-2.365-0.273-3.191-0.751l-9.892-5.711c-0.661-0.382-1.041-0.85-1.042-1.283
				c0-0.428,0.372-0.89,1.021-1.267l9.827-5.711c0.819-0.477,1.979-0.749,3.18-0.749c1.202,0,2.365,0.273,3.192,0.75l9.891,5.711
				c0.662,0.382,1.041,0.85,1.042,1.283c0.001,0.428-0.371,0.89-1.021,1.267l-9.827,5.711C38.272,29.486,37.113,29.76,35.912,29.76z
				"/>
		</g>
		<g>
			<g>
				<path fill="#D8D8DA" d="M26.012,22.699c0,0,0.027,0.733,0.207,0.803s0.812-0.088,0.812-0.088l0.136-0.525L26.012,22.699z"/>
			</g>
			<g>
				<path fill="#D8D8DA" d="M26.464,19.232c0,0,0.351,0.412,0.486,0.37s0.43-0.422,0.43-0.422l-0.162-0.365L26.464,19.232z"/>
			</g>
			<g>
				<path fill="#D8D8DA" d="M24.188,22.89c-0.096-0.043-0.521-0.988-0.272-1.151s0.479-0.287,0.479-0.287s0.389-0.075,0.389-0.323
					s0.224-0.793,0.298-0.793s1.314,0.05,1.488,0c0.173-0.05,1.116-0.844,1.19-0.794s0.347,0.149,0.422,0.248
					c0.074,0.1-0.646,0.546-0.894,0.942s-1.389,1.067-1.389,1.314c0,0.248-0.818,0.148-0.818,0.148s0.149,0.397,0.149,0.496
					C25.229,22.79,24.411,22.988,24.188,22.89z"/>
			</g>
		</g>
		<g>
			<g>
				<path fill="#FF9911" d="M37.607,26.114l4.425-2.556c0.488-0.281,0.732-0.651,0.731-1.021l-0.024-2.029c0,0.001,0,0.002,0,0.004
					c0.001-0.366-0.239-0.732-0.72-1.012l-4.396-2.555c-0.964-0.561-2.533-0.561-3.504,0L29.694,19.5
					c-0.502,0.29-0.745,0.674-0.729,1.054c-0.001-0.011-0.002-0.021-0.002-0.032l0.024,2.03c0.001,0.364,0.24,0.729,0.72,1.007
					l4.396,2.556C35.067,26.675,36.637,26.675,37.607,26.114z"/>
			</g>
			<g>
				<path fill="#FF9911" d="M28.987,22.552l-0.024-2.03c0.001,0.365,0.241,0.729,0.72,1.008l0.024,2.029
					C29.228,23.28,28.988,22.916,28.987,22.552z"/>
			</g>
		</g>
		<g>
			<path fill="#F18700" d="M42.739,20.508l0.024,2.029c0.001,0.37-0.243,0.74-0.731,1.022l-0.023-2.03
				C42.497,21.247,42.74,20.877,42.739,20.508z"/>
		</g>
		<g>
			<polygon fill="#FF9911" points="34.079,24.084 34.104,26.114 29.707,23.559 29.683,21.529 			"/>
		</g>
		<g>
			<polygon fill="#F18700" points="42.009,21.529 42.032,23.559 37.607,26.114 37.583,24.084 			"/>
		</g>
		<g>
			<path fill="#FFA834" d="M37.583,24.084l0.024,2.03c-0.971,0.561-2.54,0.561-3.504,0l-0.024-2.03
				C35.044,24.645,36.612,24.645,37.583,24.084z"/>
		</g>
		<g>
			<path fill="#FFB657" d="M37.583,24.084c-0.971,0.561-2.539,0.561-3.504,0l-4.396-2.555c-0.964-0.561-0.959-1.469,0.012-2.029
				l4.426-2.555c0.971-0.561,2.539-0.561,3.503,0L42.02,19.5c0.965,0.561,0.959,1.469-0.011,2.029L37.583,24.084z"/>
		</g>
	</g>
</g>
</svg>
