<?xml version="1.0" encoding="utf-8"?>
<!-- Generator: Adobe Illustrator 16.0.0, SVG Export Plug-In . SVG Version: 6.00 Build 0)  -->
<!DOCTYPE svg PUBLIC "-//W3C//DTD SVG 1.1//EN" "http://www.w3.org/Graphics/SVG/1.1/DTD/svg11.dtd">
<svg version="1.1" id="Layer_1" xmlns="http://www.w3.org/2000/svg" xmlns:xlink="http://www.w3.org/1999/xlink" x="0px" y="0px"
	 width="56.24px" height="35.931px" viewBox="0 0 56.24 35.931" enable-background="new 0 0 56.24 35.931" xml:space="preserve">
<g>
	<g transform="matrix(1.25 0 0 -1.25 0 45)">
		<g>
			<g>
				<path fill="#E8E8E8" d="M36.424,7.255H8.56C3.84,7.255,0,11.099,0,15.823c0,0.14,0.001,0.279,0.009,0.419
					c0.165,11.082,6.977,19.757,15.52,19.757c0.395,0,0.777-0.02,1.16-0.061c1.895,0.203,3.903-0.095,5.783-0.862
					c1.498,0.612,3.064,0.923,4.665,0.923c0.38,0,0.765-0.019,1.173-0.056c0.393,0.038,0.78,0.056,1.155,0.056
					c8.562,0,15.528-9.051,15.528-20.176C44.992,11.099,41.148,7.255,36.424,7.255z M15.528,32.799
					c-6.669,0-12.196-7.463-12.32-16.638L3.205,16.08C3.199,15.995,3.2,15.909,3.2,15.823c0-2.96,2.405-5.368,5.36-5.368h27.864
					c2.96,0,5.368,2.408,5.368,5.368c0,9.36-5.531,16.976-12.328,16.976c-0.318,0-0.638-0.018-0.98-0.055l-0.168-0.018l-0.169,0.017
					c-0.361,0.038-0.691,0.055-1.012,0.055c-1.366,0-2.703-0.308-3.974-0.916l-0.688-0.329l-0.688,0.327
					c-1.597,0.759-3.305,1.059-4.896,0.858l-0.201-0.025l-0.2,0.025C16.171,32.78,15.857,32.799,15.528,32.799z"/>
			</g>
		</g>
		<g>
			<g>
				<path fill="#FFFFFF" d="M36.424,7.655H8.56c-4.499,0-8.16,3.664-8.16,8.168c0,0.146,0.001,0.291,0.01,0.438
					c0.143,10.635,6.926,19.337,15.118,19.337c0.396,0,0.777-0.021,1.16-0.063c1.897,0.21,3.904-0.098,5.783-0.893
					c1.496,0.635,3.062,0.956,4.665,0.956c0.379,0,0.764-0.019,1.174-0.058c0.393,0.038,0.78,0.058,1.154,0.058
					c8.341,0,15.128-8.871,15.128-19.776C44.592,11.32,40.928,7.655,36.424,7.655z M15.528,33.199
					c-6.887,0-12.593-7.641-12.72-17.032C2.799,16.012,2.8,15.918,2.8,15.823c0-3.18,2.584-5.768,5.76-5.768h27.864
					c3.18,0,5.768,2.588,5.768,5.768c0,9.581-5.71,17.376-12.728,17.376c-0.333,0-0.667-0.019-1.023-0.057l-0.127-0.014
					l-0.126,0.013c-0.375,0.039-0.72,0.058-1.053,0.058c-1.427,0-2.821-0.321-4.147-0.955l-0.516-0.247l-0.517,0.246
					c-1.666,0.791-3.45,1.105-5.118,0.893l-0.15-0.019l-0.15,0.019C16.205,33.179,15.874,33.199,15.528,33.199z"/>
			</g>
		</g>
	</g>
	<g transform="matrix(1.25 0 0 -1.25 0 45)">
		<g>
			<g>
				<path fill="#FFE8B6" d="M15.53,34.4c-7.693,0-13.932-8.318-13.932-18.577h6.966V8.857h19.876
					c0.655,2.154,1.023,4.502,1.023,6.966C29.462,26.082,23.223,34.4,15.53,34.4"/>
			</g>
			<g>
				<path fill="#FFE8B6" d="M35.267,18.146h5.684C40.092,27.306,34.243,34.4,27.14,34.4c-7.693,0-13.931-8.317-13.931-18.576
					c0-2.465,0.367-4.812,1.022-6.966h21.037V18.146z"/>
			</g>
		</g>
		<g>
			<g>
				<path fill="#FFAC33" d="M43.394,15.824c0,10.259-6.238,18.576-13.932,18.576c-7.693,0-13.931-8.317-13.931-18.576
					c0-2.465,0.367-4.812,1.022-6.966h19.876C40.276,8.858,43.394,11.977,43.394,15.824"/>
			</g>
			<g>
				<path fill="#FFAC33" d="M20.173,15.824H8.563V8.858h11.61V15.824z"/>
			</g>
		</g>
		<g>
			<path fill="#FFE8B6" d="M1.598,15.824c0,3.846,3.12,6.965,6.966,6.965c3.846,0,6.966-3.119,6.966-6.965
				c0-3.848-3.12-6.966-6.966-6.966C4.717,8.858,1.598,11.977,1.598,15.824"/>
		</g>
		<g>
			<path fill="#FFAC33" d="M17.852,34.4c-7.693,0-13.932-8.318-13.932-18.577c0-2.566,2.08-4.644,4.644-4.644
				c2.565,0,4.645,2.078,4.645,4.644c0,8.084,3.88,14.944,9.287,17.497C21.041,34.007,19.483,34.4,17.852,34.4"/>
		</g>
		<g>
			<g>
				<path fill="#FFCC4D" d="M10.886,19.307c0-0.642-0.779-1.161-1.741-1.161c-0.962,0-1.741,0.519-1.741,1.161
					c0,0.642,0.779,1.161,1.741,1.161C10.107,20.468,10.886,19.949,10.886,19.307"/>
			</g>
			<g>
				<path fill="#FFCC4D" d="M10.886,18.146c0-0.642-0.52-1.161-1.161-1.161s-1.161,0.519-1.161,1.161s0.52,1.161,1.161,1.161
					S10.886,18.788,10.886,18.146"/>
			</g>
		</g>
		<g>
			<g>
				<path fill="#C1694F" d="M11.466,16.985c-0.208,0-0.407-0.043-0.591-0.11c0.002,0.037,0.01,0.073,0.01,0.11
					c0,1.283-1.039,2.322-2.322,2.322c-1.281,0-2.322-1.039-2.322-2.322c0-0.609,0.241-1.161,0.626-1.576
					c-0.38-0.32-0.626-0.791-0.626-1.327c0-0.787,0.526-1.445,1.244-1.661c0.194-0.645,0.755-1.116,1.441-1.206
					c2.295,0.18,4.108,2.013,4.253,4.318C13.039,16.357,12.329,16.985,11.466,16.985z"/>
			</g>
			<g>
				<path fill="#C1694F" d="M12.047,16.985c0.641,0,1.161,0.519,1.161,1.161s-0.52,1.161-1.161,1.161
					c-0.641,0-1.161-0.519-1.161-1.161S11.406,16.985,12.047,16.985z"/>
			</g>
		</g>
		<g>
			<g>
				<path fill="#D99E82" d="M12.627,18.146c-0.963,0-1.741-0.78-1.741-1.741c0-0.962,0.779-1.741,1.741-1.741
					c0.152,0,0.295,0.024,0.436,0.061c0.087,0.355,0.145,0.719,0.145,1.1c0,0.739,0.043,1.464,0.106,2.18
					C13.104,18.095,12.871,18.146,12.627,18.146z"/>
			</g>
			<g>
				<path fill="#D99E82" d="M7.403,18.146c-0.641,0-1.161-0.519-1.161-1.161c-0.641,0-1.161-0.519-1.161-1.161
					s0.52-1.161,1.161-1.161c0.641,0,1.161,0.519,1.161,1.161c0.641,0,1.161,0.519,1.161,1.161
					C8.564,17.627,8.044,18.146,7.403,18.146z"/>
			</g>
			<g>
				<path fill="#D99E82" d="M9.725,18.146c-0.641,0-1.161-0.519-1.161-1.161c0-0.642,0.52-1.161,1.161-1.161
					s1.161,0.519,1.161,1.161C10.886,17.627,10.366,18.146,9.725,18.146z"/>
			</g>
		</g>
		<g>
			<g>
				<path fill="#FFD983" d="M12.047,19.307c0-0.642-0.52-1.161-1.161-1.161s-1.161,0.519-1.161,1.161
					c0,0.642,0.52,1.161,1.161,1.161S12.047,19.949,12.047,19.307"/>
			</g>
			<g>
				<path fill="#FFD983" d="M13.208,21.629c0-0.642-0.52-1.161-1.161-1.161c-0.641,0-1.161,0.519-1.161,1.161
					s0.52,1.161,1.161,1.161C12.688,22.79,13.208,22.271,13.208,21.629"/>
			</g>
			<g>
				<path fill="#FFD983" d="M13.208,19.307c0-0.642-0.52-1.161-1.161-1.161c-0.641,0-1.161,0.519-1.161,1.161
					c0,0.642,0.52,1.161,1.161,1.161C12.688,20.468,13.208,19.949,13.208,19.307"/>
			</g>
		</g>
		<g>
			<g>
				<g>
					<path fill="#FFD983" d="M12.047,21.629c-0.641,0-1.161-0.519-1.161-1.161s0.52-1.161,1.161-1.161
						c0.641,0,1.161,0.519,1.161,1.161S12.688,21.629,12.047,21.629z"/>
				</g>
				<g>
					<g>
						<path fill="#FFE8B6" d="M9.725,22.79c-0.641,0-1.161-0.519-1.161-1.161s0.52-1.161,1.161-1.161s1.161,0.519,1.161,1.161
							S10.366,22.79,9.725,22.79z"/>
					</g>
					<g>
						<path fill="#FFE8B6" d="M8.564,20.468c-0.641,0-1.161-0.519-1.161-1.161c0-0.642,0.52-1.161,1.161-1.161
							s1.161,0.519,1.161,1.161C9.725,19.949,9.205,20.468,8.564,20.468z"/>
					</g>
				</g>
			</g>
			<g>
				<path fill="#FFE8B6" d="M12.047,21.629c-0.641,0-1.161-0.519-1.161-1.161s0.52-1.161,1.161-1.161
					c0.641,0,1.161,0.519,1.161,1.161S12.688,21.629,12.047,21.629z"/>
			</g>
		</g>
		<g>
			<path fill="#77B255" d="M15.531,28.595c-0.652,0-1.238-0.202-1.659-0.525c-0.316,0.323-0.755,0.525-1.243,0.525
				c-0.857,0-1.565-0.619-1.71-1.434c-0.251,0.163-0.555,0.273-0.902,0.273c-0.802,0-1.452-0.52-1.452-1.161
				c0-0.22,0.098-0.416,0.231-0.592c-0.143-0.169-0.231-0.361-0.231-0.569c-0.641,0-1.161-0.52-1.161-1.161
				c0-0.235,0.086-0.441,0.207-0.623c-0.128-0.163-0.207-0.342-0.207-0.538c0-0.642,0.779-1.161,1.741-1.161
				c0.499,0,0.947,0.141,1.265,0.366c0.294-0.227,0.657-0.366,1.058-0.366c0.228,0,0.447,0.046,0.646,0.127
				c0.19-0.7,0.802-1.209,1.545-1.268c0.575,2.954,1.685,5.614,3.18,7.802C16.465,28.482,16.016,28.595,15.531,28.595z"/>
		</g>
		<g>
			<g>
				<path fill="#FFD983" d="M15.531,28.595c0-0.641-0.52-1.161-1.162-1.161c-0.641,0-1.161,0.52-1.161,1.161
					c0,0.641,0.52,1.161,1.161,1.161C15.01,29.755,15.531,29.236,15.531,28.595"/>
			</g>
			<g>
				<path fill="#FFD983" d="M16.691,30.916c0-0.641-0.52-1.161-1.161-1.161c-0.641,0-1.162,0.52-1.162,1.161
					c0,0.641,0.52,1.162,1.162,1.162C16.171,32.078,16.691,31.558,16.691,30.916"/>
			</g>
			<g>
				<path fill="#FFD983" d="M13.208,26.273c0-0.641-0.52-1.161-1.161-1.161c-0.641,0-1.161,0.52-1.161,1.161s0.52,1.161,1.161,1.161
					C12.688,27.434,13.208,26.913,13.208,26.273"/>
			</g>
		</g>
		<g>
			<g>
				<path fill="#A6D388" d="M10.886,26.273c-0.641,0-1.161-0.52-1.161-1.161s0.52-1.161,1.161-1.161s1.161,0.52,1.161,1.161
					S11.527,26.273,10.886,26.273z"/>
			</g>
			<g>
				<circle fill="#A6D388" cx="12.628" cy="26.854" r="0.725"/>
			</g>
			<g>
				<circle fill="#A6D388" cx="9.145" cy="23.37" r="0.726"/>
			</g>
			<g>
				<circle fill="#A6D388" cx="12.628" cy="23.37" r="0.726"/>
			</g>
			<g>
				<path fill="#A6D388" d="M13.208,26.273c-0.641,0-1.161-0.52-1.161-1.161s0.52-1.161,1.161-1.161c0.641,0,1.161,0.52,1.161,1.161
					S13.849,26.273,13.208,26.273z"/>
			</g>
			<g>
				<path fill="#A6D388" d="M19.013,32.078c-0.641,0-1.161-0.52-1.161-1.162c0-0.041,0.019-0.074,0.023-0.113
					c-0.19,0.07-0.391,0.113-0.604,0.113c-0.963,0-1.741-0.779-1.741-1.741c0-0.651,0.361-1.211,0.89-1.51
					c0.98,1.572,2.154,2.917,3.47,3.989C19.677,31.907,19.371,32.078,19.013,32.078z"/>
			</g>
		</g>
		<g>
			<g>
				<path fill="#DD2E44" d="M12.047,29.755c-0.641,0-1.161-0.52-1.161-1.161c0-0.641,0.52-1.161,1.161-1.161
					c0.641,0,1.161,0.52,1.161,1.161C13.208,29.236,12.688,29.755,12.047,29.755z"/>
			</g>
			<g>
				<path fill="#DD2E44" d="M15.531,30.916c-0.641,0-1.162-0.52-1.162-1.161c0-0.641,0.52-1.161,1.162-1.161
					c0.641,0,1.161,0.52,1.161,1.161C16.691,30.397,16.171,30.916,15.531,30.916z"/>
			</g>
			<g>
				<path fill="#DD2E44" d="M17.852,33.239c-0.641,0-1.161-0.52-1.161-1.161c0-0.641,0.52-1.162,1.161-1.162
					c0.641,0,1.161,0.52,1.161,1.162C19.013,32.719,18.493,33.239,17.852,33.239z"/>
			</g>
		</g>
		<g>
			<g>
				<path fill="#F4900C" d="M21.335,14.663c-0.641,0-1.161-0.52-1.161-1.161c0-0.642,0.52-1.162,1.161-1.162s1.161,0.52,1.161,1.162
					C22.496,14.144,21.976,14.663,21.335,14.663z"/>
			</g>
			<g>
				<path fill="#F4900C" d="M16.691,11.18c-0.641,0-1.161-0.519-1.161-1.161s0.52-1.161,1.161-1.161
					c0.641,0,1.161,0.519,1.161,1.161S17.332,11.18,16.691,11.18z"/>
			</g>
			<g>
				<path fill="#F4900C" d="M23.657,11.18c-0.641,0-1.161-0.519-1.161-1.161s0.52-1.161,1.161-1.161s1.161,0.519,1.161,1.161
					S24.298,11.18,23.657,11.18z"/>
			</g>
			<g>
				<path fill="#F4900C" d="M27.14,12.341c-0.642,0-1.161-0.519-1.161-1.161s0.519-1.161,1.161-1.161
					c0.642,0,1.161,0.519,1.161,1.161S27.782,12.341,27.14,12.341z"/>
			</g>
			<g>
				<path fill="#F4900C" d="M31.784,12.341c-0.642,0-1.161-0.519-1.161-1.161s0.519-1.161,1.161-1.161
					c0.642,0,1.161,0.519,1.161,1.161S32.426,12.341,31.784,12.341z"/>
			</g>
			<g>
				<path fill="#F4900C" d="M35.267,11.18c-0.642,0-1.162-0.519-1.162-1.161s0.52-1.161,1.162-1.161
					c0.641,0,1.161,0.519,1.161,1.161S35.909,11.18,35.267,11.18z"/>
			</g>
			<g>
				<path fill="#F4900C" d="M37.589,13.502c-0.642,0-1.161-0.52-1.161-1.162c0-0.641,0.519-1.161,1.161-1.161
					c0.642,0,1.161,0.52,1.161,1.161C38.75,12.983,38.231,13.502,37.589,13.502z"/>
			</g>
			<g>
				<path fill="#F4900C" d="M27.14,16.985c0,0.642-0.519,1.161-1.161,1.161c-0.641,0-1.161-0.519-1.161-1.161
					c0-0.642,0.52-1.161,1.161-1.161C26.621,15.824,27.14,16.343,27.14,16.985z"/>
			</g>
			<g>
				<path fill="#F4900C" d="M19.013,18.146c-0.641,0-1.161-0.519-1.161-1.161c0-0.642,0.52-1.161,1.161-1.161
					s1.161,0.519,1.161,1.161C20.174,17.627,19.654,18.146,19.013,18.146z"/>
			</g>
			<g>
				<path fill="#F4900C" d="M41.072,15.824c-0.642,0-1.161-0.52-1.161-1.161c0-0.642,0.519-1.161,1.161-1.161
					s1.161,0.519,1.161,1.161C42.233,15.305,41.714,15.824,41.072,15.824z"/>
			</g>
			<g>
				<path fill="#F4900C" d="M21.335,20.468c0.641,0,1.161,0.519,1.161,1.161s-0.52,1.161-1.161,1.161s-1.161-0.519-1.161-1.161
					S20.695,20.468,21.335,20.468z"/>
			</g>
			<g>
				<path fill="#F4900C" d="M27.14,22.79c0.642,0,1.161,0.52,1.161,1.161s-0.519,1.161-1.161,1.161c-0.642,0-1.161-0.52-1.161-1.161
					C25.979,23.309,26.498,22.79,27.14,22.79z"/>
			</g>
			<g>
				<path fill="#F4900C" d="M23.657,27.434c0.641,0,1.161,0.52,1.161,1.161c0,0.641-0.52,1.161-1.161,1.161s-1.16-0.52-1.16-1.161
					C22.497,27.954,23.016,27.434,23.657,27.434z"/>
			</g>
			<g>
				<path fill="#F4900C" d="M32.945,28.595c-0.642,0-1.161-0.52-1.161-1.161s0.519-1.161,1.161-1.161
					c0.642,0,1.161,0.52,1.161,1.161S33.587,28.595,32.945,28.595z"/>
			</g>
			<g>
				<path fill="#F4900C" d="M29.462,29.755c0.642,0,1.161,0.52,1.161,1.161c0,0.641-0.519,1.162-1.161,1.162
					c-0.642,0-1.161-0.52-1.161-1.162C28.301,30.276,28.82,29.755,29.462,29.755z"/>
			</g>
			<g>
				<path fill="#F4900C" d="M37.589,21.629c-0.642,0-1.161-0.519-1.161-1.161s0.519-1.161,1.161-1.161
					c0.642,0,1.161,0.519,1.161,1.161S38.231,21.629,37.589,21.629z"/>
			</g>
			<g>
				<path fill="#F4900C" d="M31.784,21.629c-0.642,0-1.161-0.519-1.161-1.161s0.519-1.161,1.161-1.161
					c0.642,0,1.161,0.519,1.161,1.161S32.426,21.629,31.784,21.629z"/>
			</g>
			<g>
				<path fill="#F4900C" d="M29.462,16.985c-0.642,0-1.161-0.519-1.161-1.161s0.519-1.161,1.161-1.161
					c0.642,0,1.161,0.519,1.161,1.161S30.104,16.985,29.462,16.985z"/>
			</g>
			<g>
				<path fill="#F4900C" d="M35.267,15.824c0.641,0,1.161,0.519,1.161,1.161c0,0.642-0.52,1.161-1.161,1.161
					c-0.642,0-1.162-0.519-1.162-1.161C34.105,16.343,34.625,15.824,35.267,15.824z"/>
			</g>
		</g>
	</g>
</g>
</svg>
